<svg width="316" height="174" viewBox="0 0 316 174" fill="none" xmlns="http://www.w3.org/2000/svg">
<rect x="1.5" y="1.5" width="313" height="171" rx="18.5" fill="#141321" stroke="#D93A7C" stroke-width="3"/>
<path d="M34.5801 68.8438L35.7422 73H39.7891L33.3906 53.0938H29.9043L23.3828 73H27.4297L28.6055 68.8438H34.5801ZM29.5488 65.5762L31.6406 58.248L33.6777 65.5762H29.5488ZM41.7441 73H45.5586V62.4863C45.6862 62.2858 45.8275 62.1035 45.9824 61.9395C46.1374 61.7754 46.3105 61.6341 46.502 61.5156C46.7389 61.3516 47.0078 61.2285 47.3086 61.1465C47.6185 61.0645 47.9557 61.0234 48.3203 61.0234C48.7578 61.0234 49.1497 61.069 49.4961 61.1602C49.8424 61.2422 50.1387 61.3926 50.3848 61.6113C50.6309 61.8301 50.8177 62.1309 50.9453 62.5137C51.082 62.8874 51.1504 63.3659 51.1504 63.9492V73H54.9512V63.8945C54.9512 62.819 54.8236 61.9076 54.5684 61.1602C54.3223 60.4036 53.9759 59.7839 53.5293 59.3008C53.0736 58.8268 52.5358 58.4805 51.916 58.2617C51.2962 58.043 50.6126 57.9336 49.8652 57.9336C49.2819 57.9336 48.7305 58.0156 48.2109 58.1797C47.6914 58.3438 47.2129 58.5807 46.7754 58.8906C46.5202 59.0729 46.2786 59.278 46.0508 59.5059C45.8229 59.7337 45.6133 59.9844 45.4219 60.2578L45.1895 58.207H41.7441V73ZM65.5332 54.584H61.7324V58.207H58.3555V61.0098H61.7324V67.7363C61.7324 68.7116 61.86 69.5501 62.1152 70.252C62.3704 70.9447 62.735 71.5143 63.209 71.9609C63.6738 72.4167 64.2344 72.7539 64.8906 72.9727C65.556 73.1823 66.2943 73.2871 67.1055 73.2871C67.5247 73.2871 67.9486 73.2643 68.377 73.2188C68.8145 73.1823 69.2337 73.1276 69.6348 73.0547C70.0358 72.9818 70.4141 72.8906 70.7695 72.7812C71.125 72.6628 71.4349 72.526 71.6992 72.3711L71.3301 69.7598C71.1569 69.8053 70.9473 69.8509 70.7012 69.8965C70.4642 69.9421 70.209 69.9831 69.9355 70.0195C69.653 70.0651 69.3568 70.1016 69.0469 70.1289C68.7461 70.1562 68.4499 70.1699 68.1582 70.1699C67.7572 70.1699 67.3926 70.1243 67.0645 70.0332C66.7454 69.9421 66.472 69.7871 66.2441 69.5684C66.0163 69.3587 65.8385 69.0762 65.7109 68.7207C65.5924 68.3561 65.5332 67.9049 65.5332 67.3672V61.0098H71.0566V58.207H65.5332V54.584ZM74.8574 65.4668V65.7539C74.8574 66.8385 75.0124 67.8411 75.3223 68.7617C75.6322 69.6732 76.0879 70.4661 76.6895 71.1406C77.2819 71.8151 78.0111 72.3438 78.877 72.7266C79.752 73.1003 80.7454 73.2871 81.8574 73.2871C82.9603 73.2871 83.9447 73.1003 84.8105 72.7266C85.6764 72.3438 86.4056 71.8151 86.998 71.1406C87.5905 70.4661 88.0417 69.6732 88.3516 68.7617C88.6615 67.8411 88.8164 66.8385 88.8164 65.7539V65.4668C88.8164 64.3913 88.6615 63.3978 88.3516 62.4863C88.0417 61.5658 87.5905 60.7682 86.998 60.0938C86.3965 59.4193 85.6628 58.8906 84.7969 58.5078C83.931 58.125 82.9421 57.9336 81.8301 57.9336C80.7181 57.9336 79.7292 58.125 78.8633 58.5078C78.0065 58.8906 77.2819 59.4193 76.6895 60.0938C76.0879 60.7682 75.6322 61.5658 75.3223 62.4863C75.0124 63.3978 74.8574 64.3913 74.8574 65.4668ZM78.6582 65.7539V65.4668C78.6582 64.8652 78.7174 64.2956 78.8359 63.7578C78.9544 63.2201 79.1413 62.7461 79.3965 62.3359C79.6517 61.9258 79.9798 61.6022 80.3809 61.3652C80.7819 61.1283 81.265 61.0098 81.8301 61.0098C82.4043 61.0098 82.8919 61.1283 83.293 61.3652C83.694 61.6022 84.0221 61.9258 84.2773 62.3359C84.5234 62.7461 84.7057 63.2201 84.8242 63.7578C84.9427 64.2956 85.002 64.8652 85.002 65.4668V65.7539C85.002 66.3737 84.9427 66.957 84.8242 67.5039C84.7057 68.0417 84.5234 68.5111 84.2773 68.9121C84.0221 69.3223 83.694 69.6458 83.293 69.8828C82.8919 70.1198 82.4134 70.2383 81.8574 70.2383C81.2832 70.2383 80.791 70.1198 80.3809 69.8828C79.9798 69.6458 79.6517 69.3223 79.3965 68.9121C79.1413 68.5111 78.9544 68.0417 78.8359 67.5039C78.7174 66.957 78.6582 66.3737 78.6582 65.7539ZM87.0527 55.2266L83.0332 51.9043H80.832L76.8672 55.1992V55.6094H79.834L81.9258 53.873L84.0312 55.6094H87.0527V55.2266ZM92.1934 73H96.0078V62.4863C96.1354 62.2858 96.2767 62.1035 96.4316 61.9395C96.5866 61.7754 96.7598 61.6341 96.9512 61.5156C97.1882 61.3516 97.457 61.2285 97.7578 61.1465C98.0677 61.0645 98.4049 61.0234 98.7695 61.0234C99.207 61.0234 99.599 61.069 99.9453 61.1602C100.292 61.2422 100.588 61.3926 100.834 61.6113C101.08 61.8301 101.267 62.1309 101.395 62.5137C101.531 62.8874 101.6 63.3659 101.6 63.9492V73H105.4V63.8945C105.4 62.819 105.273 61.9076 105.018 61.1602C104.771 60.4036 104.425 59.7839 103.979 59.3008C103.523 58.8268 102.985 58.4805 102.365 58.2617C101.745 58.043 101.062 57.9336 100.314 57.9336C99.7311 57.9336 99.1797 58.0156 98.6602 58.1797C98.1406 58.3438 97.6621 58.5807 97.2246 58.8906C96.9694 59.0729 96.7279 59.278 96.5 59.5059C96.2721 59.7337 96.0625 59.9844 95.8711 60.2578L95.6387 58.207H92.1934V73ZM110.021 58.207V61.3105H114.232V69.9102H110.021V73H122.08V69.9102H118.074V58.207H110.021ZM113.959 54.4199C113.959 54.7116 114.009 54.985 114.109 55.2402C114.219 55.4863 114.369 55.696 114.561 55.8691C114.752 56.0514 114.98 56.1927 115.244 56.293C115.518 56.3932 115.818 56.4434 116.146 56.4434C116.821 56.4434 117.354 56.2565 117.746 55.8828C118.147 55.5 118.348 55.0124 118.348 54.4199C118.348 53.8275 118.147 53.3444 117.746 52.9707C117.354 52.5879 116.821 52.3965 116.146 52.3965C115.818 52.3965 115.518 52.4466 115.244 52.5469C114.98 52.6471 114.752 52.7839 114.561 52.957C114.369 53.1393 114.219 53.3581 114.109 53.6133C114.009 53.8594 113.959 54.1283 113.959 54.4199ZM125.307 65.4668V65.7539C125.307 66.8385 125.462 67.8411 125.771 68.7617C126.081 69.6732 126.537 70.4661 127.139 71.1406C127.731 71.8151 128.46 72.3438 129.326 72.7266C130.201 73.1003 131.195 73.2871 132.307 73.2871C133.41 73.2871 134.394 73.1003 135.26 72.7266C136.126 72.3438 136.855 71.8151 137.447 71.1406C138.04 70.4661 138.491 69.6732 138.801 68.7617C139.111 67.8411 139.266 66.8385 139.266 65.7539V65.4668C139.266 64.3913 139.111 63.3978 138.801 62.4863C138.491 61.5658 138.04 60.7682 137.447 60.0938C136.846 59.4193 136.112 58.8906 135.246 58.5078C134.38 58.125 133.391 57.9336 132.279 57.9336C131.167 57.9336 130.178 58.125 129.312 58.5078C128.456 58.8906 127.731 59.4193 127.139 60.0938C126.537 60.7682 126.081 61.5658 125.771 62.4863C125.462 63.3978 125.307 64.3913 125.307 65.4668ZM129.107 65.7539V65.4668C129.107 64.8652 129.167 64.2956 129.285 63.7578C129.404 63.2201 129.59 62.7461 129.846 62.3359C130.101 61.9258 130.429 61.6022 130.83 61.3652C131.231 61.1283 131.714 61.0098 132.279 61.0098C132.854 61.0098 133.341 61.1283 133.742 61.3652C134.143 61.6022 134.471 61.9258 134.727 62.3359C134.973 62.7461 135.155 63.2201 135.273 63.7578C135.392 64.2956 135.451 64.8652 135.451 65.4668V65.7539C135.451 66.3737 135.392 66.957 135.273 67.5039C135.155 68.0417 134.973 68.5111 134.727 68.9121C134.471 69.3223 134.143 69.6458 133.742 69.8828C133.341 70.1198 132.863 70.2383 132.307 70.2383C131.732 70.2383 131.24 70.1198 130.83 69.8828C130.429 69.6458 130.101 69.3223 129.846 68.9121C129.59 68.5111 129.404 68.0417 129.285 67.5039C129.167 66.957 129.107 66.3737 129.107 65.7539ZM166.076 65.5625L169.822 73H173.938V72.8223L169.658 64.6055C170.205 64.3594 170.697 64.0677 171.135 63.7305C171.581 63.3932 171.964 62.9967 172.283 62.541C172.593 62.0944 172.83 61.5885 172.994 61.0234C173.167 60.4492 173.254 59.8066 173.254 59.0957C173.254 58.1113 173.081 57.2454 172.734 56.498C172.397 55.7507 171.914 55.1263 171.285 54.625C170.647 54.1237 169.882 53.7454 168.988 53.4902C168.095 53.2259 167.097 53.0938 165.994 53.0938H159.322V73H163.164V65.5625H166.076ZM163.164 62.4453V56.2109H165.994C166.523 56.2109 166.992 56.2747 167.402 56.4023C167.812 56.5299 168.159 56.7122 168.441 56.9492C168.76 57.2135 168.997 57.5508 169.152 57.9609C169.316 58.362 169.398 58.8268 169.398 59.3555C169.398 59.793 169.335 60.1895 169.207 60.5449C169.089 60.9004 168.911 61.2057 168.674 61.4609C168.391 61.7799 168.022 62.026 167.566 62.1992C167.12 62.3633 166.6 62.4453 166.008 62.4453H163.164ZM183.453 73.2734C184.884 73.2734 186.124 72.9954 187.172 72.4395C188.22 71.8835 188.986 71.2637 189.469 70.5801L187.568 68.5293C187.131 69.0944 186.561 69.5182 185.859 69.8008C185.158 70.0833 184.433 70.2246 183.686 70.2246C183.157 70.2246 182.669 70.1426 182.223 69.9785C181.776 69.8145 181.38 69.582 181.033 69.2812C180.696 68.9896 180.427 68.666 180.227 68.3105C180.026 67.946 179.862 67.4674 179.734 66.875V66.834H189.77V65.2207C189.77 64.1361 189.619 63.1471 189.318 62.2539C189.018 61.3516 188.58 60.5814 188.006 59.9434C187.423 59.3053 186.712 58.8132 185.873 58.4668C185.044 58.1113 184.096 57.9336 183.029 57.9336C181.999 57.9336 181.047 58.1204 180.172 58.4941C179.297 58.8678 178.54 59.3919 177.902 60.0664C177.264 60.7409 176.768 61.5475 176.412 62.4863C176.057 63.416 175.879 64.446 175.879 65.5762V66.123C175.879 67.1165 176.057 68.0508 176.412 68.9258C176.777 69.7917 177.292 70.5436 177.957 71.1816C178.622 71.8288 179.42 72.3392 180.35 72.7129C181.279 73.0866 182.314 73.2734 183.453 73.2734ZM183.002 61.0098C183.485 61.0098 183.909 61.0872 184.273 61.2422C184.647 61.388 184.962 61.5885 185.217 61.8438C185.472 62.1081 185.673 62.418 185.818 62.7734C185.964 63.1289 186.037 63.5072 186.037 63.9082V64.209H179.803C179.894 63.7259 180.031 63.2884 180.213 62.8965C180.395 62.5046 180.623 62.1673 180.896 61.8848C181.161 61.6022 181.471 61.388 181.826 61.2422C182.182 61.0872 182.574 61.0098 183.002 61.0098ZM206.422 65.7539V65.4668C206.422 64.5736 206.34 63.735 206.176 62.9512C206.021 62.1673 205.779 61.4609 205.451 60.832C205.242 60.4401 205 60.0801 204.727 59.752C204.453 59.4147 204.148 59.1276 203.811 58.8906C203.391 58.5807 202.913 58.3438 202.375 58.1797C201.846 58.0156 201.263 57.9336 200.625 57.9336C200.16 57.9336 199.727 57.9837 199.326 58.084C198.934 58.1751 198.57 58.3164 198.232 58.5078C197.995 58.6354 197.772 58.7904 197.562 58.9727C197.353 59.1458 197.157 59.3372 196.975 59.5469V52H193.174V73H196.592L196.77 71.4277C196.924 71.6283 197.089 71.8151 197.262 71.9883C197.435 72.1523 197.622 72.3027 197.822 72.4395C198.196 72.7129 198.615 72.918 199.08 73.0547C199.554 73.2005 200.078 73.2734 200.652 73.2734C201.281 73.2734 201.855 73.1914 202.375 73.0273C202.904 72.8724 203.378 72.6445 203.797 72.3438C204.262 72.0247 204.663 71.6237 205 71.1406C205.346 70.6576 205.624 70.1198 205.834 69.5273C206.025 68.9896 206.171 68.4062 206.271 67.7773C206.372 67.1393 206.422 66.4648 206.422 65.7539ZM202.621 65.4668V65.7539C202.621 66.1367 202.603 66.5059 202.566 66.8613C202.539 67.2168 202.489 67.5449 202.416 67.8457C202.325 68.2559 202.188 68.625 202.006 68.9531C201.833 69.2721 201.605 69.5319 201.322 69.7324C201.122 69.8783 200.885 69.9922 200.611 70.0742C200.338 70.1562 200.033 70.1973 199.695 70.1973C199.303 70.1973 198.952 70.1517 198.643 70.0605C198.342 69.9694 198.077 69.8372 197.85 69.6641C197.658 69.5273 197.49 69.3678 197.344 69.1855C197.207 68.9941 197.084 68.7845 196.975 68.5566V62.6641C197.057 62.4909 197.148 62.3314 197.248 62.1855C197.348 62.0306 197.458 61.8939 197.576 61.7754C197.822 61.5293 198.118 61.3424 198.465 61.2148C198.811 61.0872 199.212 61.0234 199.668 61.0234C200.005 61.0234 200.306 61.0645 200.57 61.1465C200.835 61.2194 201.072 61.3333 201.281 61.4883C201.6 61.7344 201.837 62.0078 201.992 62.3086C202.156 62.6003 202.288 62.9329 202.389 63.3066C202.471 63.6257 202.53 63.9674 202.566 64.332C202.603 64.6966 202.621 65.0749 202.621 65.4668ZM209.389 65.4668V65.7539C209.389 66.8385 209.544 67.8411 209.854 68.7617C210.163 69.6732 210.619 70.4661 211.221 71.1406C211.813 71.8151 212.542 72.3438 213.408 72.7266C214.283 73.1003 215.277 73.2871 216.389 73.2871C217.492 73.2871 218.476 73.1003 219.342 72.7266C220.208 72.3438 220.937 71.8151 221.529 71.1406C222.122 70.4661 222.573 69.6732 222.883 68.7617C223.193 67.8411 223.348 66.8385 223.348 65.7539V65.4668C223.348 64.3913 223.193 63.3978 222.883 62.4863C222.573 61.5658 222.122 60.7682 221.529 60.0938C220.928 59.4193 220.194 58.8906 219.328 58.5078C218.462 58.125 217.473 57.9336 216.361 57.9336C215.249 57.9336 214.26 58.125 213.395 58.5078C212.538 58.8906 211.813 59.4193 211.221 60.0938C210.619 60.7682 210.163 61.5658 209.854 62.4863C209.544 63.3978 209.389 64.3913 209.389 65.4668ZM213.189 65.7539V65.4668C213.189 64.8652 213.249 64.2956 213.367 63.7578C213.486 63.2201 213.673 62.7461 213.928 62.3359C214.183 61.9258 214.511 61.6022 214.912 61.3652C215.313 61.1283 215.796 61.0098 216.361 61.0098C216.936 61.0098 217.423 61.1283 217.824 61.3652C218.225 61.6022 218.553 61.9258 218.809 62.3359C219.055 62.7461 219.237 63.2201 219.355 63.7578C219.474 64.2956 219.533 64.8652 219.533 65.4668V65.7539C219.533 66.3737 219.474 66.957 219.355 67.5039C219.237 68.0417 219.055 68.5111 218.809 68.9121C218.553 69.3223 218.225 69.6458 217.824 69.8828C217.423 70.1198 216.945 70.2383 216.389 70.2383C215.814 70.2383 215.322 70.1198 214.912 69.8828C214.511 69.6458 214.183 69.3223 213.928 68.9121C213.673 68.5111 213.486 68.0417 213.367 67.5039C213.249 66.957 213.189 66.3737 213.189 65.7539ZM236.377 73H239.822V58.207H236.008V68.584C235.889 68.821 235.748 69.0352 235.584 69.2266C235.42 69.418 235.233 69.582 235.023 69.7188C234.777 69.8737 234.49 69.9922 234.162 70.0742C233.843 70.1562 233.483 70.1973 233.082 70.1973C232.635 70.1973 232.257 70.1426 231.947 70.0332C231.637 69.9238 231.387 69.7415 231.195 69.4863C231.004 69.2402 230.863 68.9121 230.771 68.502C230.689 68.0918 230.648 67.5859 230.648 66.9844V58.207H226.848V66.957C226.848 68.0781 226.971 69.0397 227.217 69.8418C227.472 70.6348 227.827 71.2865 228.283 71.7969C228.739 72.3164 229.286 72.6947 229.924 72.9316C230.562 73.1686 231.264 73.2871 232.029 73.2871C232.868 73.2871 233.638 73.0775 234.34 72.6582C235.051 72.2389 235.657 71.6602 236.158 70.9219L236.377 73ZM250.09 70.2383C249.479 70.2383 248.973 70.1152 248.572 69.8691C248.18 69.623 247.87 69.2949 247.643 68.8848C247.406 68.4837 247.242 68.0189 247.15 67.4902C247.059 66.9525 247.014 66.3965 247.014 65.8223V65.4121C247.014 64.847 247.059 64.3001 247.15 63.7715C247.251 63.2428 247.419 62.7734 247.656 62.3633C247.884 61.9531 248.194 61.625 248.586 61.3789C248.978 61.1328 249.475 61.0098 250.076 61.0098C250.486 61.0098 250.865 61.0827 251.211 61.2285C251.557 61.3652 251.854 61.5521 252.1 61.7891C252.346 62.026 252.533 62.3086 252.66 62.6367C252.788 62.9648 252.842 63.3112 252.824 63.6758H256.406C256.424 62.8008 256.279 62.0124 255.969 61.3105C255.659 60.5996 255.226 59.9935 254.67 59.4922C254.105 59 253.435 58.6172 252.66 58.3438C251.885 58.0703 251.042 57.9336 250.131 57.9336C248.992 57.9336 247.989 58.1296 247.123 58.5215C246.266 58.9134 245.546 59.4466 244.963 60.1211C244.38 60.7956 243.942 61.5885 243.65 62.5C243.359 63.4023 243.213 64.373 243.213 65.4121V65.8223C243.213 66.8613 243.359 67.8366 243.65 68.748C243.951 69.6504 244.393 70.4388 244.977 71.1133C245.551 71.7878 246.271 72.321 247.137 72.7129C248.003 73.0957 249.01 73.2871 250.158 73.2871C251.006 73.2871 251.808 73.1549 252.564 72.8906C253.33 72.6172 254 72.2435 254.574 71.7695C255.148 71.2956 255.6 70.7305 255.928 70.0742C256.265 69.418 256.424 68.707 256.406 67.9414H252.824C252.842 68.2878 252.779 68.6022 252.633 68.8848C252.496 69.1673 252.3 69.4089 252.045 69.6094C251.79 69.8099 251.493 69.9648 251.156 70.0742C250.819 70.1836 250.464 70.2383 250.09 70.2383ZM251.553 72.8633H248.723L248.299 74.791C248.654 74.8184 248.96 74.8503 249.215 74.8867C249.47 74.9323 249.675 75.0007 249.83 75.0918C249.985 75.1738 250.099 75.2786 250.172 75.4062C250.245 75.5339 250.281 75.6888 250.281 75.8711C250.281 76.0807 250.236 76.2585 250.145 76.4043C250.062 76.5501 249.949 76.6686 249.803 76.7598C249.657 76.8418 249.484 76.901 249.283 76.9375C249.092 76.9831 248.882 77.0059 248.654 77.0059L248.75 79.1934C249.525 79.1934 250.204 79.1159 250.787 78.9609C251.37 78.806 251.863 78.5872 252.264 78.3047C252.656 78.0312 252.952 77.6986 253.152 77.3066C253.353 76.9147 253.453 76.4772 253.453 75.9941C253.453 75.6022 253.394 75.265 253.275 74.9824C253.157 74.709 253.002 74.4766 252.811 74.2852C252.619 74.1029 252.4 73.957 252.154 73.8477C251.908 73.7474 251.658 73.6745 251.402 73.6289L251.553 72.8633ZM269.6 73H273.455V72.7676C273.264 72.3939 273.118 71.9473 273.018 71.4277C272.917 70.9082 272.867 70.252 272.867 69.459V63.1152C272.867 62.2585 272.708 61.5065 272.389 60.8594C272.07 60.2031 271.628 59.6608 271.062 59.2324C270.497 58.804 269.827 58.4805 269.053 58.2617C268.287 58.043 267.458 57.9336 266.564 57.9336C265.571 57.9336 264.687 58.0612 263.912 58.3164C263.146 58.5625 262.499 58.8997 261.971 59.3281C261.433 59.7565 261.023 60.2533 260.74 60.8184C260.467 61.3835 260.33 61.9805 260.33 62.6094H264.131C264.131 62.3451 264.167 62.1035 264.24 61.8848C264.322 61.666 264.445 61.4792 264.609 61.3242C264.792 61.151 265.029 61.0189 265.32 60.9277C265.612 60.8275 265.958 60.7773 266.359 60.7773C266.815 60.7773 267.212 60.8366 267.549 60.9551C267.895 61.0645 268.182 61.224 268.41 61.4336C268.629 61.6341 268.793 61.8757 268.902 62.1582C269.012 62.4316 269.066 62.7415 269.066 63.0879V63.9629H266.947C265.854 63.9629 264.883 64.0632 264.035 64.2637C263.197 64.4551 262.49 64.7376 261.916 65.1113C261.278 65.5215 260.799 66.0456 260.48 66.6836C260.161 67.3125 260.002 68.0371 260.002 68.8574C260.002 69.4954 260.13 70.0879 260.385 70.6348C260.64 71.1725 260.995 71.6374 261.451 72.0293C261.907 72.4212 262.449 72.7266 263.078 72.9453C263.716 73.1641 264.413 73.2734 265.17 73.2734C265.635 73.2734 266.068 73.2279 266.469 73.1367C266.87 73.0547 267.239 72.9362 267.576 72.7812C267.904 72.6354 268.205 72.4622 268.479 72.2617C268.752 72.0612 268.993 71.847 269.203 71.6191C269.249 71.8835 269.303 72.1341 269.367 72.3711C269.431 72.6081 269.508 72.8177 269.6 73ZM265.977 70.334C265.621 70.334 265.307 70.293 265.033 70.2109C264.769 70.1198 264.546 70.0013 264.363 69.8555C264.181 69.7005 264.04 69.5137 263.939 69.2949C263.848 69.0671 263.803 68.821 263.803 68.5566C263.803 68.2194 263.867 67.9095 263.994 67.627C264.122 67.3353 264.318 67.0846 264.582 66.875C264.846 66.6745 265.188 66.5195 265.607 66.4102C266.027 66.2917 266.533 66.2324 267.125 66.2324H269.066V68.7754C268.957 68.9668 268.807 69.1582 268.615 69.3496C268.424 69.5319 268.196 69.696 267.932 69.8418C267.667 69.9876 267.371 70.1061 267.043 70.1973C266.715 70.2884 266.359 70.334 265.977 70.334ZM286.717 68.9395C286.717 69.1673 286.658 69.377 286.539 69.5684C286.43 69.7598 286.261 69.9284 286.033 70.0742C285.796 70.2201 285.491 70.3385 285.117 70.4297C284.753 70.5117 284.324 70.5527 283.832 70.5527C283.422 70.5527 283.021 70.5117 282.629 70.4297C282.246 70.3477 281.904 70.2155 281.604 70.0332C281.303 69.86 281.057 69.6322 280.865 69.3496C280.674 69.0579 280.564 68.7116 280.537 68.3105H276.914C276.914 68.9121 277.06 69.5137 277.352 70.1152C277.652 70.7077 278.09 71.2363 278.664 71.7012C279.238 72.1751 279.949 72.5579 280.797 72.8496C281.654 73.1413 282.638 73.2871 283.75 73.2871C284.762 73.2871 285.678 73.1777 286.498 72.959C287.318 72.7311 288.02 72.4167 288.604 72.0156C289.178 71.6146 289.62 71.1406 289.93 70.5938C290.249 70.0378 290.408 69.4316 290.408 68.7754C290.408 68.0645 290.249 67.4538 289.93 66.9434C289.62 66.4238 289.187 65.9818 288.631 65.6172C288.075 65.2617 287.414 64.9701 286.648 64.7422C285.883 64.5143 285.053 64.3275 284.16 64.1816C283.54 64.0905 283.03 63.9857 282.629 63.8672C282.228 63.7396 281.913 63.5983 281.686 63.4434C281.449 63.2975 281.285 63.1335 281.193 62.9512C281.102 62.7598 281.057 62.5547 281.057 62.3359C281.057 62.1172 281.107 61.9121 281.207 61.7207C281.316 61.5202 281.471 61.347 281.672 61.2012C281.891 61.0371 282.173 60.9095 282.52 60.8184C282.866 60.7272 283.271 60.6816 283.736 60.6816C284.283 60.6816 284.748 60.75 285.131 60.8867C285.523 61.0234 285.833 61.2057 286.061 61.4336C286.225 61.6068 286.348 61.8027 286.43 62.0215C286.512 62.2311 286.553 62.459 286.553 62.7051H290.354C290.354 62.0215 290.203 61.388 289.902 60.8047C289.602 60.2214 289.169 59.7155 288.604 59.2871C288.029 58.8678 287.332 58.5397 286.512 58.3027C285.691 58.0566 284.766 57.9336 283.736 57.9336C282.752 57.9336 281.868 58.0566 281.084 58.3027C280.3 58.5488 279.635 58.8815 279.088 59.3008C278.541 59.7201 278.122 60.2077 277.83 60.7637C277.538 61.3197 277.393 61.903 277.393 62.5137C277.393 63.1426 277.534 63.6986 277.816 64.1816C278.108 64.6647 278.509 65.0885 279.02 65.4531C279.53 65.8268 280.141 66.1458 280.852 66.4102C281.572 66.6654 282.365 66.8796 283.23 67.0527C283.914 67.1803 284.479 67.3079 284.926 67.4355C285.372 67.5632 285.732 67.6999 286.006 67.8457C286.27 68.0007 286.452 68.1647 286.553 68.3379C286.662 68.5111 286.717 68.7116 286.717 68.9395Z" fill="#F7D747"/>
<path d="M33.4355 102H38.3574C39.0605 102 39.7116 101.912 40.3105 101.736C40.916 101.554 41.4368 101.287 41.873 100.936C42.3092 100.59 42.651 100.161 42.8984 99.6465C43.1458 99.1322 43.2663 98.5365 43.2598 97.8594C43.2598 97.4753 43.2044 97.1107 43.0938 96.7656C42.9896 96.4141 42.8333 96.0951 42.625 95.8086C42.4232 95.5417 42.1725 95.304 41.873 95.0957C41.5736 94.8809 41.2122 94.7181 40.7891 94.6074V94.5879C41.0755 94.4707 41.3262 94.3405 41.541 94.1973C41.7624 94.0475 41.9609 93.875 42.1367 93.6797C42.3841 93.4128 42.5729 93.1068 42.7031 92.7617C42.8398 92.4102 42.9115 92.0326 42.918 91.6289C42.918 90.9648 42.791 90.3919 42.5371 89.9102C42.2897 89.4219 41.9447 89.0215 41.502 88.709C41.0592 88.3965 40.5352 88.1654 39.9297 88.0156C39.3242 87.8594 38.6764 87.7812 37.9863 87.7812H33.4355V102ZM35.7988 95.5742H38.4941C38.8783 95.5807 39.2201 95.6393 39.5195 95.75C39.819 95.8542 40.0729 96.0039 40.2812 96.1992C40.4896 96.3945 40.6458 96.6322 40.75 96.9121C40.8542 97.1855 40.9062 97.5013 40.9062 97.8594C40.9062 98.1979 40.8411 98.5072 40.7109 98.7871C40.5872 99.0605 40.4082 99.2917 40.1738 99.4805C39.959 99.6628 39.6986 99.806 39.3926 99.9102C39.0866 100.014 38.748 100.066 38.377 100.066H35.7988V95.5742ZM35.7988 93.7871V89.7246H38.0156C38.4193 89.7311 38.7871 89.7799 39.1191 89.8711C39.4512 89.9557 39.7279 90.0957 39.9492 90.291C40.1445 90.4473 40.2943 90.6491 40.3984 90.8965C40.5091 91.1374 40.5645 91.4238 40.5645 91.7559C40.5645 92.0684 40.5059 92.3451 40.3887 92.5859C40.2715 92.8268 40.112 93.0319 39.9102 93.2012C39.6888 93.39 39.4154 93.5332 39.0898 93.6309C38.7708 93.7285 38.4193 93.7806 38.0352 93.7871H35.7988ZM52.4492 102H54.5684V91.4336H52.2246V98.9141C52.1335 99.1094 52.0228 99.2884 51.8926 99.4512C51.7624 99.6074 51.6126 99.7441 51.4434 99.8613C51.2415 99.9915 51.0072 100.096 50.7402 100.174C50.4733 100.245 50.1706 100.281 49.832 100.281C49.5065 100.281 49.2233 100.239 48.9824 100.154C48.7415 100.07 48.543 99.9264 48.3867 99.7246C48.2305 99.5293 48.1165 99.2689 48.0449 98.9434C47.9733 98.6113 47.9375 98.2012 47.9375 97.7129V91.4336H45.6035V97.6934C45.6035 98.4876 45.6914 99.1712 45.8672 99.7441C46.043 100.311 46.2904 100.776 46.6094 101.141C46.9349 101.505 47.3223 101.775 47.7715 101.951C48.2272 102.12 48.7285 102.205 49.2754 102.205C49.9134 102.205 50.4896 102.059 51.0039 101.766C51.5182 101.466 51.9544 101.053 52.3125 100.525L52.4492 102ZM64.4414 99.1387C64.4414 99.3079 64.4023 99.4642 64.3242 99.6074C64.2526 99.7441 64.1419 99.8711 63.9922 99.9883C63.8099 100.132 63.5658 100.245 63.2598 100.33C62.9603 100.415 62.6087 100.457 62.2051 100.457C61.9056 100.457 61.6094 100.428 61.3164 100.369C61.0234 100.304 60.763 100.2 60.5352 100.057C60.3008 99.9199 60.1055 99.7409 59.9492 99.5195C59.7995 99.2917 59.7148 99.015 59.6953 98.6895H57.4297C57.4297 99.1257 57.5339 99.5553 57.7422 99.9785C57.9505 100.402 58.2565 100.776 58.6602 101.102C59.0573 101.434 59.5488 101.701 60.1348 101.902C60.7272 102.104 61.4043 102.205 62.166 102.205C62.8496 102.205 63.4714 102.127 64.0312 101.971C64.5911 101.814 65.0729 101.596 65.4766 101.316C65.8737 101.036 66.1797 100.701 66.3945 100.311C66.6159 99.9199 66.7266 99.4902 66.7266 99.0215C66.7266 98.5397 66.6224 98.123 66.4141 97.7715C66.2057 97.4199 65.9128 97.1139 65.5352 96.8535C65.1576 96.6061 64.7018 96.3978 64.168 96.2285C63.6341 96.0592 63.0449 95.916 62.4004 95.7988C61.9382 95.7207 61.554 95.6328 61.248 95.5352C60.9486 95.4375 60.7142 95.3301 60.5449 95.2129C60.3626 95.1022 60.2357 94.9753 60.1641 94.832C60.0924 94.6823 60.0566 94.5163 60.0566 94.334C60.0566 94.1582 60.099 93.9922 60.1836 93.8359C60.2682 93.6732 60.3952 93.5332 60.5645 93.416C60.7337 93.2858 60.9486 93.1849 61.209 93.1133C61.4759 93.0352 61.7852 92.9961 62.1367 92.9961C62.5208 92.9961 62.8561 93.0482 63.1426 93.1523C63.429 93.25 63.6634 93.3835 63.8457 93.5527C64.002 93.696 64.1191 93.8587 64.1973 94.041C64.2819 94.2168 64.3242 94.4023 64.3242 94.5977H66.6582C66.6582 94.1224 66.554 93.6797 66.3457 93.2695C66.1374 92.8594 65.8411 92.5046 65.457 92.2051C65.0664 91.9056 64.5911 91.6712 64.0312 91.502C63.4714 91.3262 62.8398 91.2383 62.1367 91.2383C61.4792 91.2383 60.8802 91.3229 60.3398 91.4922C59.806 91.6615 59.3503 91.8926 58.9727 92.1855C58.5885 92.4785 58.2923 92.8203 58.084 93.2109C57.8822 93.5951 57.7812 94.002 57.7812 94.4316C57.7812 94.8809 57.8822 95.2747 58.084 95.6133C58.2858 95.9518 58.5658 96.2448 58.9238 96.4922C59.2884 96.7526 59.7214 96.974 60.2227 97.1562C60.7305 97.3385 61.2904 97.4915 61.9023 97.6152C62.3906 97.7064 62.7975 97.804 63.123 97.9082C63.4486 98.0124 63.7122 98.123 63.9141 98.2402C64.1029 98.3704 64.2363 98.5072 64.3145 98.6504C64.3991 98.7936 64.4414 98.9564 64.4414 99.1387ZM70.0859 91.4336V93.377H73.3379V100.066H70.0859V102H78.7969V100.066H75.6914V91.4336H70.0859ZM73.123 88.6992C73.123 88.9466 73.1816 89.1647 73.2988 89.3535C73.4225 89.5358 73.6016 89.6628 73.8359 89.7344C74.0638 89.806 74.2721 89.8223 74.4609 89.7832C74.6497 89.7441 74.8125 89.6628 74.9492 89.5391C75.2227 89.4674 75.431 89.3275 75.5742 89.1191C75.7174 88.9043 75.7663 88.6536 75.7207 88.3672C75.6882 88.0872 75.5612 87.8594 75.3398 87.6836C75.125 87.5013 74.8418 87.4102 74.4902 87.4102C74.2819 87.4102 74.0931 87.4427 73.9238 87.5078C73.7611 87.5664 73.6211 87.651 73.5039 87.7617C73.3802 87.8789 73.2858 88.0189 73.2207 88.1816C73.1556 88.3379 73.123 88.5104 73.123 88.6992ZM81.5605 102H83.8945V94.4609C83.9987 94.2852 84.1191 94.1224 84.2559 93.9727C84.3926 93.8229 84.5391 93.696 84.6953 93.5918C84.8971 93.4551 85.1217 93.3509 85.3691 93.2793C85.6165 93.2012 85.8835 93.1621 86.1699 93.1621C86.515 93.1621 86.821 93.2012 87.0879 93.2793C87.3548 93.3509 87.5827 93.4746 87.7715 93.6504C87.9603 93.8262 88.1035 94.0605 88.2012 94.3535C88.2988 94.6465 88.3477 95.0111 88.3477 95.4473V102H90.6816V95.4082C90.6816 94.666 90.5938 94.0345 90.418 93.5137C90.2422 92.9863 89.9948 92.5534 89.6758 92.2148C89.3568 91.8763 88.9727 91.6289 88.5234 91.4727C88.0742 91.3164 87.5794 91.2383 87.0391 91.2383C86.6289 91.2383 86.2383 91.2969 85.8672 91.4141C85.4961 91.5312 85.1543 91.6973 84.8418 91.9121C84.6465 92.0488 84.4609 92.2051 84.2852 92.3809C84.1159 92.5501 83.9596 92.7357 83.8164 92.9375L83.6699 91.4336H81.5605V102ZM93.5723 102H95.9062V94.4609C96.0104 94.2852 96.1309 94.1224 96.2676 93.9727C96.4043 93.8229 96.5508 93.696 96.707 93.5918C96.9089 93.4551 97.1335 93.3509 97.3809 93.2793C97.6283 93.2012 97.8952 93.1621 98.1816 93.1621C98.5267 93.1621 98.8327 93.2012 99.0996 93.2793C99.3665 93.3509 99.5944 93.4746 99.7832 93.6504C99.972 93.8262 100.115 94.0605 100.213 94.3535C100.311 94.6465 100.359 95.0111 100.359 95.4473V102H102.693V95.4082C102.693 94.666 102.605 94.0345 102.43 93.5137C102.254 92.9863 102.007 92.5534 101.688 92.2148C101.368 91.8763 100.984 91.6289 100.535 91.4727C100.086 91.3164 99.5911 91.2383 99.0508 91.2383C98.6406 91.2383 98.25 91.2969 97.8789 91.4141C97.5078 91.5312 97.166 91.6973 96.8535 91.9121C96.6582 92.0488 96.4727 92.2051 96.2969 92.3809C96.1276 92.5501 95.9714 92.7357 95.8281 92.9375L95.6816 91.4336H93.5723V102ZM110.516 102.195C111.544 102.195 112.42 101.993 113.143 101.59C113.872 101.186 114.412 100.73 114.764 100.223L113.514 99.0117C113.188 99.4284 112.775 99.7507 112.273 99.9785C111.772 100.2 111.232 100.311 110.652 100.311C110.229 100.311 109.839 100.239 109.48 100.096C109.129 99.9525 108.823 99.7507 108.562 99.4902C108.302 99.2428 108.097 98.9629 107.947 98.6504C107.798 98.3379 107.687 97.9505 107.615 97.4883V97.4395H114.939V96.4336C114.939 95.6784 114.839 94.9818 114.637 94.3438C114.435 93.7057 114.135 93.1556 113.738 92.6934C113.341 92.2376 112.85 91.8828 112.264 91.6289C111.678 91.3685 111.004 91.2383 110.242 91.2383C109.559 91.2383 108.914 91.3685 108.309 91.6289C107.71 91.8828 107.182 92.2474 106.727 92.7227C106.271 93.1979 105.913 93.7708 105.652 94.4414C105.392 95.112 105.262 95.8607 105.262 96.6875V97.0879C105.262 97.8105 105.385 98.4844 105.633 99.1094C105.887 99.7279 106.245 100.265 106.707 100.721C107.169 101.183 107.723 101.544 108.367 101.805C109.018 102.065 109.734 102.195 110.516 102.195ZM110.232 93.1328C110.623 93.1328 110.965 93.2012 111.258 93.3379C111.557 93.4681 111.805 93.6439 112 93.8652C112.202 94.0931 112.358 94.36 112.469 94.666C112.579 94.9655 112.635 95.2682 112.635 95.5742V95.7305H107.664C107.736 95.3268 107.846 94.9655 107.996 94.6465C108.146 94.3275 108.331 94.054 108.553 93.8262C108.774 93.6048 109.025 93.4355 109.305 93.3184C109.591 93.1947 109.9 93.1328 110.232 93.1328ZM124.5 99.1387C124.5 99.3079 124.461 99.4642 124.383 99.6074C124.311 99.7441 124.201 99.8711 124.051 99.9883C123.868 100.132 123.624 100.245 123.318 100.33C123.019 100.415 122.667 100.457 122.264 100.457C121.964 100.457 121.668 100.428 121.375 100.369C121.082 100.304 120.822 100.2 120.594 100.057C120.359 99.9199 120.164 99.7409 120.008 99.5195C119.858 99.2917 119.773 99.015 119.754 98.6895H117.488C117.488 99.1257 117.592 99.5553 117.801 99.9785C118.009 100.402 118.315 100.776 118.719 101.102C119.116 101.434 119.607 101.701 120.193 101.902C120.786 102.104 121.463 102.205 122.225 102.205C122.908 102.205 123.53 102.127 124.09 101.971C124.65 101.814 125.132 101.596 125.535 101.316C125.932 101.036 126.238 100.701 126.453 100.311C126.674 99.9199 126.785 99.4902 126.785 99.0215C126.785 98.5397 126.681 98.123 126.473 97.7715C126.264 97.4199 125.971 97.1139 125.594 96.8535C125.216 96.6061 124.76 96.3978 124.227 96.2285C123.693 96.0592 123.104 95.916 122.459 95.7988C121.997 95.7207 121.613 95.6328 121.307 95.5352C121.007 95.4375 120.773 95.3301 120.604 95.2129C120.421 95.1022 120.294 94.9753 120.223 94.832C120.151 94.6823 120.115 94.5163 120.115 94.334C120.115 94.1582 120.158 93.9922 120.242 93.8359C120.327 93.6732 120.454 93.5332 120.623 93.416C120.792 93.2858 121.007 93.1849 121.268 93.1133C121.535 93.0352 121.844 92.9961 122.195 92.9961C122.579 92.9961 122.915 93.0482 123.201 93.1523C123.488 93.25 123.722 93.3835 123.904 93.5527C124.061 93.696 124.178 93.8587 124.256 94.041C124.34 94.2168 124.383 94.4023 124.383 94.5977H126.717C126.717 94.1224 126.613 93.6797 126.404 93.2695C126.196 92.8594 125.9 92.5046 125.516 92.2051C125.125 91.9056 124.65 91.6712 124.09 91.502C123.53 91.3262 122.898 91.2383 122.195 91.2383C121.538 91.2383 120.939 91.3229 120.398 91.4922C119.865 91.6615 119.409 91.8926 119.031 92.1855C118.647 92.4785 118.351 92.8203 118.143 93.2109C117.941 93.5951 117.84 94.002 117.84 94.4316C117.84 94.8809 117.941 95.2747 118.143 95.6133C118.344 95.9518 118.624 96.2448 118.982 96.4922C119.347 96.7526 119.78 96.974 120.281 97.1562C120.789 97.3385 121.349 97.4915 121.961 97.6152C122.449 97.7064 122.856 97.804 123.182 97.9082C123.507 98.0124 123.771 98.123 123.973 98.2402C124.161 98.3704 124.295 98.5072 124.373 98.6504C124.458 98.7936 124.5 98.9564 124.5 99.1387ZM141.912 87.7812V89.7246H144.881V100.066H141.912V102H150.291V100.066H147.254V89.7246H150.291V87.7812H141.912ZM153.631 102H155.965V94.4609C156.069 94.2852 156.189 94.1224 156.326 93.9727C156.463 93.8229 156.609 93.696 156.766 93.5918C156.967 93.4551 157.192 93.3509 157.439 93.2793C157.687 93.2012 157.954 93.1621 158.24 93.1621C158.585 93.1621 158.891 93.2012 159.158 93.2793C159.425 93.3509 159.653 93.4746 159.842 93.6504C160.031 93.8262 160.174 94.0605 160.271 94.3535C160.369 94.6465 160.418 95.0111 160.418 95.4473V102H162.752V95.4082C162.752 94.666 162.664 94.0345 162.488 93.5137C162.312 92.9863 162.065 92.5534 161.746 92.2148C161.427 91.8763 161.043 91.6289 160.594 91.4727C160.145 91.3164 159.65 91.2383 159.109 91.2383C158.699 91.2383 158.309 91.2969 157.938 91.4141C157.566 91.5312 157.225 91.6973 156.912 91.9121C156.717 92.0488 156.531 92.2051 156.355 92.3809C156.186 92.5501 156.03 92.7357 155.887 92.9375L155.74 91.4336H153.631V102ZM170.33 88.8555H167.986V91.4336H165.428V93.1816H167.986V98.377C167.986 99.054 168.074 99.6335 168.25 100.115C168.432 100.597 168.683 100.991 169.002 101.297C169.321 101.609 169.702 101.84 170.145 101.99C170.594 102.133 171.085 102.205 171.619 102.205C171.912 102.205 172.205 102.189 172.498 102.156C172.798 102.13 173.084 102.091 173.357 102.039C173.631 101.987 173.885 101.925 174.119 101.854C174.36 101.775 174.565 101.684 174.734 101.58L174.48 99.9688C174.363 99.9948 174.217 100.027 174.041 100.066C173.872 100.099 173.689 100.128 173.494 100.154C173.292 100.187 173.084 100.213 172.869 100.232C172.654 100.252 172.446 100.262 172.244 100.262C171.964 100.262 171.707 100.229 171.473 100.164C171.238 100.099 171.036 99.9883 170.867 99.832C170.698 99.6823 170.564 99.4772 170.467 99.2168C170.376 98.9499 170.33 98.6211 170.33 98.2305V93.1816H174.305V91.4336H170.33V88.8555ZM182.586 102.195C183.615 102.195 184.49 101.993 185.213 101.59C185.942 101.186 186.482 100.73 186.834 100.223L185.584 99.0117C185.258 99.4284 184.845 99.7507 184.344 99.9785C183.842 100.2 183.302 100.311 182.723 100.311C182.299 100.311 181.909 100.239 181.551 100.096C181.199 99.9525 180.893 99.7507 180.633 99.4902C180.372 99.2428 180.167 98.9629 180.018 98.6504C179.868 98.3379 179.757 97.9505 179.686 97.4883V97.4395H187.01V96.4336C187.01 95.6784 186.909 94.9818 186.707 94.3438C186.505 93.7057 186.206 93.1556 185.809 92.6934C185.411 92.2376 184.92 91.8828 184.334 91.6289C183.748 91.3685 183.074 91.2383 182.312 91.2383C181.629 91.2383 180.984 91.3685 180.379 91.6289C179.78 91.8828 179.253 92.2474 178.797 92.7227C178.341 93.1979 177.983 93.7708 177.723 94.4414C177.462 95.112 177.332 95.8607 177.332 96.6875V97.0879C177.332 97.8105 177.456 98.4844 177.703 99.1094C177.957 99.7279 178.315 100.265 178.777 100.721C179.24 101.183 179.793 101.544 180.438 101.805C181.089 102.065 181.805 102.195 182.586 102.195ZM182.303 93.1328C182.693 93.1328 183.035 93.2012 183.328 93.3379C183.628 93.4681 183.875 93.6439 184.07 93.8652C184.272 94.0931 184.428 94.36 184.539 94.666C184.65 94.9655 184.705 95.2682 184.705 95.5742V95.7305H179.734C179.806 95.3268 179.917 94.9655 180.066 94.6465C180.216 94.3275 180.402 94.054 180.623 93.8262C180.844 93.6048 181.095 93.4355 181.375 93.3184C181.661 93.1947 181.971 93.1328 182.303 93.1328ZM190.115 87V88.9434H193.455V100.066H190.115V102H199.012V100.066H195.809V87H190.115ZM202.127 87V88.9434H205.467V100.066H202.127V102H211.023V100.066H207.82V87H202.127ZM214.227 91.4336V93.377H217.479V100.066H214.227V102H222.938V100.066H219.832V91.4336H214.227ZM217.264 88.6992C217.264 88.9466 217.322 89.1647 217.439 89.3535C217.563 89.5358 217.742 89.6628 217.977 89.7344C218.204 89.806 218.413 89.8223 218.602 89.7832C218.79 89.7441 218.953 89.6628 219.09 89.5391C219.363 89.4674 219.572 89.3275 219.715 89.1191C219.858 88.9043 219.907 88.6536 219.861 88.3672C219.829 88.0872 219.702 87.8594 219.48 87.6836C219.266 87.5013 218.982 87.4102 218.631 87.4102C218.423 87.4102 218.234 87.4427 218.064 87.5078C217.902 87.5664 217.762 87.651 217.645 87.7617C217.521 87.8789 217.426 88.0189 217.361 88.1816C217.296 88.3379 217.264 88.5104 217.264 88.6992ZM225.398 96.6387V96.8438C225.398 97.6055 225.496 98.3151 225.691 98.9727C225.893 99.6237 226.176 100.187 226.541 100.662C226.912 101.144 227.358 101.521 227.879 101.795C228.4 102.062 228.986 102.195 229.637 102.195C229.995 102.195 230.327 102.156 230.633 102.078C230.939 102.007 231.219 101.899 231.473 101.756C231.642 101.665 231.798 101.557 231.941 101.434C232.091 101.31 232.234 101.176 232.371 101.033V101.766C232.371 102.163 232.312 102.518 232.195 102.83C232.085 103.143 231.925 103.406 231.717 103.621C231.489 103.842 231.212 104.012 230.887 104.129C230.568 104.246 230.2 104.305 229.783 104.305C229.542 104.305 229.305 104.279 229.07 104.227C228.836 104.181 228.605 104.106 228.377 104.002C228.149 103.898 227.924 103.761 227.703 103.592C227.488 103.429 227.286 103.234 227.098 103.006L225.994 104.422C226.229 104.734 226.508 105.001 226.834 105.223C227.16 105.444 227.501 105.623 227.859 105.76C228.217 105.896 228.576 105.997 228.934 106.062C229.292 106.128 229.62 106.16 229.92 106.16C230.63 106.16 231.277 106.059 231.863 105.857C232.456 105.662 232.964 105.376 233.387 104.998C233.803 104.614 234.126 104.145 234.354 103.592C234.588 103.045 234.705 102.417 234.705 101.707V91.4336H232.586L232.488 92.498C232.358 92.3418 232.218 92.1986 232.068 92.0684C231.919 91.9316 231.759 91.8145 231.59 91.7168C231.329 91.5605 231.04 91.4434 230.721 91.3652C230.402 91.2806 230.047 91.2383 229.656 91.2383C228.999 91.2383 228.406 91.3717 227.879 91.6387C227.358 91.8991 226.912 92.2669 226.541 92.7422C226.17 93.2174 225.887 93.7871 225.691 94.4512C225.496 95.1087 225.398 95.8379 225.398 96.6387ZM227.742 96.8438V96.6387C227.742 96.1634 227.791 95.7174 227.889 95.3008C227.986 94.8776 228.139 94.5065 228.348 94.1875C228.549 93.8685 228.807 93.6178 229.119 93.4355C229.432 93.2533 229.806 93.1621 230.242 93.1621C230.49 93.1621 230.717 93.1914 230.926 93.25C231.134 93.3021 231.323 93.3737 231.492 93.4648C231.681 93.5755 231.847 93.709 231.99 93.8652C232.14 94.0215 232.267 94.1973 232.371 94.3926V99.0215C232.267 99.2103 232.146 99.3828 232.01 99.5391C231.873 99.6953 231.717 99.8288 231.541 99.9395C231.365 100.044 231.167 100.125 230.945 100.184C230.73 100.242 230.49 100.271 230.223 100.271C229.793 100.271 229.422 100.184 229.109 100.008C228.797 99.8255 228.54 99.5749 228.338 99.2559C228.13 98.9499 227.977 98.5885 227.879 98.1719C227.788 97.7552 227.742 97.3125 227.742 96.8438ZM242.645 102.195C243.673 102.195 244.549 101.993 245.271 101.59C246.001 101.186 246.541 100.73 246.893 100.223L245.643 99.0117C245.317 99.4284 244.904 99.7507 244.402 99.9785C243.901 100.2 243.361 100.311 242.781 100.311C242.358 100.311 241.967 100.239 241.609 100.096C241.258 99.9525 240.952 99.7507 240.691 99.4902C240.431 99.2428 240.226 98.9629 240.076 98.6504C239.926 98.3379 239.816 97.9505 239.744 97.4883V97.4395H247.068V96.4336C247.068 95.6784 246.967 94.9818 246.766 94.3438C246.564 93.7057 246.264 93.1556 245.867 92.6934C245.47 92.2376 244.979 91.8828 244.393 91.6289C243.807 91.3685 243.133 91.2383 242.371 91.2383C241.688 91.2383 241.043 91.3685 240.438 91.6289C239.839 91.8828 239.311 92.2474 238.855 92.7227C238.4 93.1979 238.042 93.7708 237.781 94.4414C237.521 95.112 237.391 95.8607 237.391 96.6875V97.0879C237.391 97.8105 237.514 98.4844 237.762 99.1094C238.016 99.7279 238.374 100.265 238.836 100.721C239.298 101.183 239.852 101.544 240.496 101.805C241.147 102.065 241.863 102.195 242.645 102.195ZM242.361 93.1328C242.752 93.1328 243.094 93.2012 243.387 93.3379C243.686 93.4681 243.934 93.6439 244.129 93.8652C244.331 94.0931 244.487 94.36 244.598 94.666C244.708 94.9655 244.764 95.2682 244.764 95.5742V95.7305H239.793C239.865 95.3268 239.975 94.9655 240.125 94.6465C240.275 94.3275 240.46 94.054 240.682 93.8262C240.903 93.6048 241.154 93.4355 241.434 93.3184C241.72 93.1947 242.029 93.1328 242.361 93.1328ZM249.725 102H252.059V94.4609C252.163 94.2852 252.283 94.1224 252.42 93.9727C252.557 93.8229 252.703 93.696 252.859 93.5918C253.061 93.4551 253.286 93.3509 253.533 93.2793C253.781 93.2012 254.048 93.1621 254.334 93.1621C254.679 93.1621 254.985 93.2012 255.252 93.2793C255.519 93.3509 255.747 93.4746 255.936 93.6504C256.124 93.8262 256.268 94.0605 256.365 94.3535C256.463 94.6465 256.512 95.0111 256.512 95.4473V102H258.846V95.4082C258.846 94.666 258.758 94.0345 258.582 93.5137C258.406 92.9863 258.159 92.5534 257.84 92.2148C257.521 91.8763 257.137 91.6289 256.688 91.4727C256.238 91.3164 255.743 91.2383 255.203 91.2383C254.793 91.2383 254.402 91.2969 254.031 91.4141C253.66 91.5312 253.318 91.6973 253.006 91.9121C252.811 92.0488 252.625 92.2051 252.449 92.3809C252.28 92.5501 252.124 92.7357 251.98 92.9375L251.834 91.4336H249.725V102ZM266.336 100.32C265.848 100.32 265.441 100.223 265.115 100.027C264.79 99.832 264.533 99.5716 264.344 99.2461C264.148 98.9336 264.008 98.5723 263.924 98.1621C263.846 97.7454 263.807 97.3223 263.807 96.8926V96.5508C263.807 96.1276 263.846 95.7109 263.924 95.3008C264.008 94.8906 264.152 94.526 264.354 94.207C264.542 93.888 264.796 93.6309 265.115 93.4355C265.441 93.2337 265.848 93.1328 266.336 93.1328C266.655 93.1328 266.951 93.1882 267.225 93.2988C267.505 93.4095 267.745 93.5592 267.947 93.748C268.143 93.9368 268.292 94.1582 268.396 94.4121C268.507 94.666 268.562 94.9362 268.562 95.2227H270.76C270.766 94.6367 270.659 94.0996 270.438 93.6113C270.223 93.123 269.92 92.7031 269.529 92.3516C269.139 92 268.67 91.7266 268.123 91.5312C267.583 91.3359 266.993 91.2383 266.355 91.2383C265.548 91.2383 264.839 91.3815 264.227 91.668C263.621 91.9479 263.113 92.3288 262.703 92.8105C262.293 93.2923 261.984 93.8555 261.775 94.5C261.574 95.1445 261.473 95.8281 261.473 96.5508V96.8926C261.473 97.6217 261.577 98.3086 261.785 98.9531C261.993 99.5911 262.303 100.151 262.713 100.633C263.117 101.115 263.621 101.499 264.227 101.785C264.839 102.065 265.551 102.205 266.365 102.205C266.951 102.205 267.508 102.111 268.035 101.922C268.569 101.727 269.041 101.46 269.451 101.121C269.855 100.796 270.174 100.408 270.408 99.959C270.649 99.5033 270.766 99.0182 270.76 98.5039H268.562C268.562 98.7708 268.501 99.015 268.377 99.2363C268.26 99.4577 268.1 99.6497 267.898 99.8125C267.69 99.9753 267.449 100.102 267.176 100.193C266.909 100.278 266.629 100.32 266.336 100.32ZM278.68 102.195C279.708 102.195 280.584 101.993 281.307 101.59C282.036 101.186 282.576 100.73 282.928 100.223L281.678 99.0117C281.352 99.4284 280.939 99.7507 280.438 99.9785C279.936 100.2 279.396 100.311 278.816 100.311C278.393 100.311 278.003 100.239 277.645 100.096C277.293 99.9525 276.987 99.7507 276.727 99.4902C276.466 99.2428 276.261 98.9629 276.111 98.6504C275.962 98.3379 275.851 97.9505 275.779 97.4883V97.4395H283.104V96.4336C283.104 95.6784 283.003 94.9818 282.801 94.3438C282.599 93.7057 282.299 93.1556 281.902 92.6934C281.505 92.2376 281.014 91.8828 280.428 91.6289C279.842 91.3685 279.168 91.2383 278.406 91.2383C277.723 91.2383 277.078 91.3685 276.473 91.6289C275.874 91.8828 275.346 92.2474 274.891 92.7227C274.435 93.1979 274.077 93.7708 273.816 94.4414C273.556 95.112 273.426 95.8607 273.426 96.6875V97.0879C273.426 97.8105 273.549 98.4844 273.797 99.1094C274.051 99.7279 274.409 100.265 274.871 100.721C275.333 101.183 275.887 101.544 276.531 101.805C277.182 102.065 277.898 102.195 278.68 102.195ZM278.396 93.1328C278.787 93.1328 279.129 93.2012 279.422 93.3379C279.721 93.4681 279.969 93.6439 280.164 93.8652C280.366 94.0931 280.522 94.36 280.633 94.666C280.743 94.9655 280.799 95.2682 280.799 95.5742V95.7305H275.828C275.9 95.3268 276.01 94.9655 276.16 94.6465C276.31 94.3275 276.495 94.054 276.717 93.8262C276.938 93.6048 277.189 93.4355 277.469 93.3184C277.755 93.1947 278.064 93.1328 278.396 93.1328Z" fill="#F7D747"/>
<path d="M35.1328 123.191H37.2847C37.6867 123.187 38.0633 123.124 38.4146 123.001C38.77 122.878 39.0789 122.701 39.3413 122.468C39.6079 122.239 39.8174 121.96 39.9697 121.63C40.1221 121.296 40.1982 120.917 40.1982 120.494C40.1982 120.066 40.1221 119.685 39.9697 119.351C39.8174 119.017 39.61 118.733 39.3477 118.5C39.0853 118.268 38.7764 118.088 38.4209 117.961C38.0654 117.834 37.6867 117.766 37.2847 117.758H34.3774V127H35.1328V123.191ZM35.1328 122.544V118.412H37.2847C37.5894 118.416 37.8729 118.469 38.1353 118.57C38.4019 118.668 38.6325 118.807 38.8271 118.989C39.0176 119.171 39.1678 119.391 39.2778 119.649C39.3879 119.903 39.4429 120.189 39.4429 120.506C39.4429 120.824 39.3857 121.107 39.2715 121.357C39.1615 121.602 39.0091 121.812 38.8145 121.985C38.6198 122.163 38.3913 122.301 38.1289 122.398C37.8665 122.491 37.5851 122.54 37.2847 122.544H35.1328ZM41.6455 123.464V123.674C41.6455 124.139 41.7153 124.582 41.855 125C41.9946 125.419 42.1978 125.785 42.4644 126.099C42.7225 126.416 43.042 126.668 43.4229 126.854C43.8037 127.036 44.2354 127.127 44.7178 127.127C45.196 127.127 45.6234 127.034 46 126.848C46.3766 126.661 46.6961 126.412 46.9585 126.099C47.2209 125.781 47.4198 125.415 47.5552 125C47.6948 124.582 47.7668 124.139 47.771 123.674V123.464C47.7668 122.999 47.6948 122.557 47.5552 122.138C47.4155 121.719 47.2166 121.351 46.9585 121.033C46.6919 120.72 46.3682 120.47 45.9873 120.284C45.6107 120.098 45.1833 120.005 44.7051 120.005C44.2227 120.005 43.7931 120.098 43.4165 120.284C43.0399 120.47 42.7204 120.722 42.458 121.04C42.1956 121.353 41.9946 121.719 41.855 122.138C41.7153 122.557 41.6455 122.999 41.6455 123.464ZM42.4009 123.674V123.464C42.4009 123.105 42.4517 122.756 42.5532 122.417C42.6548 122.078 42.8029 121.78 42.9976 121.522C43.1922 121.26 43.4313 121.05 43.7148 120.894C43.9984 120.737 44.3285 120.659 44.7051 120.659C45.0775 120.659 45.4054 120.737 45.689 120.894C45.9767 121.05 46.2201 121.26 46.4189 121.522C46.6094 121.78 46.7554 122.078 46.8569 122.417C46.9585 122.756 47.0114 123.105 47.0156 123.464V123.674C47.0114 124.038 46.9585 124.389 46.8569 124.728C46.7596 125.062 46.6157 125.36 46.4253 125.623C46.2264 125.885 45.9852 126.094 45.7017 126.251C45.4181 126.403 45.0902 126.479 44.7178 126.479C44.3411 126.479 44.009 126.403 43.7212 126.251C43.4334 126.094 43.1922 125.885 42.9976 125.623C42.8029 125.364 42.6548 125.066 42.5532 124.728C42.4517 124.389 42.4009 124.038 42.4009 123.674ZM50.5322 127H51.1479L52.3477 122.315L52.5571 121.236L52.7539 122.315L53.9663 127H54.582L56.1055 120.132H55.4072L54.4678 124.766L54.2456 125.978L53.9854 124.766L52.8237 120.132H52.2905L51.1289 124.766L50.875 125.934L50.6719 124.766L49.7134 120.132H49.0151L50.5322 127ZM60.5806 127.127C61.1519 127.127 61.6533 127.015 62.085 126.791C62.5166 126.566 62.8615 126.272 63.1196 125.908L62.6436 125.546C62.3981 125.851 62.104 126.084 61.7612 126.245C61.4185 126.405 61.0355 126.484 60.6123 126.479C60.2441 126.479 59.9077 126.408 59.603 126.264C59.3026 126.116 59.0465 125.919 58.835 125.673C58.6191 125.432 58.452 125.155 58.3335 124.842C58.215 124.529 58.1473 124.19 58.1304 123.826V123.617H63.272V123.153C63.2677 122.717 63.2043 122.309 63.0815 121.928C62.9588 121.543 62.7769 121.207 62.5356 120.919C62.2944 120.635 61.9982 120.413 61.647 120.252C61.2957 120.087 60.8937 120.005 60.4409 120.005C60.0093 120.005 59.6073 120.096 59.2349 120.278C58.8625 120.456 58.5409 120.699 58.27 121.008C57.9907 121.321 57.7707 121.691 57.6099 122.119C57.4533 122.542 57.375 122.997 57.375 123.483V123.756C57.375 124.218 57.4533 124.653 57.6099 125.064C57.7664 125.47 57.9865 125.828 58.27 126.137C58.5493 126.441 58.8857 126.683 59.2793 126.86C59.6729 127.038 60.1066 127.127 60.5806 127.127ZM60.4409 120.659C60.7668 120.659 61.0566 120.722 61.3105 120.849C61.5645 120.972 61.7803 121.137 61.958 121.344C62.1315 121.552 62.2669 121.793 62.3643 122.068C62.4658 122.343 62.5166 122.62 62.5166 122.899V122.969H58.1621C58.2087 122.639 58.2954 122.332 58.4224 122.049C58.5493 121.765 58.7101 121.52 58.9048 121.312C59.0994 121.109 59.3258 120.951 59.584 120.836C59.8421 120.718 60.1278 120.659 60.4409 120.659ZM70.0005 120.005C69.3784 120.001 68.8368 120.132 68.3755 120.398C67.9142 120.661 67.5503 121.027 67.2837 121.497V121.192L67.2393 120.132H66.5156V127H67.2964L67.29 122.607C67.3747 122.29 67.4953 122.017 67.6519 121.789C67.8127 121.556 68.001 121.363 68.2168 121.211C68.4411 121.054 68.6929 120.94 68.9722 120.868C69.2557 120.792 69.5583 120.754 69.8799 120.754C70.0661 120.754 70.248 120.764 70.4258 120.786C70.6035 120.807 70.7791 120.836 70.9526 120.875L71.0542 120.138C70.923 120.096 70.7601 120.064 70.5654 120.043C70.375 120.018 70.1867 120.005 70.0005 120.005ZM81.0835 127H83.9907C84.3716 126.992 84.7355 126.928 85.0825 126.81C85.4338 126.691 85.7427 126.52 86.0093 126.295C86.2716 126.075 86.4811 125.807 86.6377 125.489C86.7943 125.172 86.8704 124.808 86.8662 124.397C86.8662 124.114 86.8197 123.852 86.7266 123.61C86.6335 123.369 86.5065 123.151 86.3457 122.957C86.1891 122.775 85.9966 122.616 85.7681 122.48C85.5438 122.341 85.3047 122.241 85.0508 122.182V122.157C85.2793 122.064 85.4803 121.96 85.6538 121.846C85.8315 121.731 85.9881 121.592 86.1235 121.427C86.2547 121.266 86.3563 121.082 86.4282 120.875C86.5044 120.663 86.5425 120.428 86.5425 120.17C86.5467 119.751 86.4663 119.391 86.3013 119.091C86.1362 118.786 85.9162 118.536 85.6411 118.342C85.366 118.147 85.0508 118.003 84.6953 117.91C84.3398 117.813 83.9759 117.762 83.6035 117.758H81.0835V127ZM81.8389 122.557H84.0669C84.3377 122.565 84.5959 122.612 84.8413 122.696C85.0868 122.781 85.3047 122.899 85.4951 123.052C85.6813 123.213 85.8294 123.407 85.9395 123.636C86.0495 123.86 86.1045 124.118 86.1045 124.41C86.1045 124.706 86.0474 124.973 85.9331 125.21C85.8231 125.447 85.6707 125.646 85.4761 125.807C85.2856 125.972 85.0635 126.101 84.8096 126.194C84.5557 126.283 84.2869 126.329 84.0034 126.333H81.8389V122.557ZM81.8389 121.896V118.431H83.6226C83.8934 118.435 84.1579 118.471 84.416 118.539C84.6784 118.602 84.9111 118.701 85.1143 118.837C85.3174 118.977 85.4782 119.154 85.5967 119.37C85.7194 119.586 85.7808 119.848 85.7808 120.157C85.7808 120.453 85.7215 120.709 85.603 120.925C85.4888 121.137 85.3343 121.315 85.1396 121.458C84.945 121.602 84.7228 121.71 84.4731 121.782C84.2235 121.854 83.9653 121.892 83.6987 121.896H81.8389ZM91.1001 126.454C91.1001 126.628 91.1572 126.776 91.2715 126.898C91.3857 127.017 91.5423 127.076 91.7412 127.076C91.9401 127.076 92.0988 127.017 92.2173 126.898C92.3358 126.78 92.395 126.632 92.395 126.454C92.395 126.276 92.3358 126.126 92.2173 126.003C92.0988 125.876 91.9401 125.813 91.7412 125.813C91.5423 125.813 91.3857 125.876 91.2715 126.003C91.1572 126.126 91.1001 126.276 91.1001 126.454ZM96.686 117.758V118.443H98.9331V126.321H96.686V127H102.037V126.321H99.7202V118.443H102.037V117.758H96.686ZM117.284 123.191V122.538H112.581V123.191H117.284ZM132.976 124.728C132.976 125.028 132.912 125.288 132.785 125.508C132.658 125.724 132.491 125.902 132.284 126.042C132.081 126.185 131.848 126.291 131.585 126.359C131.323 126.427 131.056 126.46 130.786 126.46C130.46 126.46 130.155 126.418 129.872 126.333C129.592 126.245 129.345 126.113 129.129 125.94C128.909 125.766 128.729 125.555 128.589 125.305C128.454 125.051 128.367 124.759 128.329 124.429H127.561C127.578 124.823 127.665 125.178 127.821 125.496C127.978 125.813 128.192 126.086 128.462 126.314C128.763 126.581 129.116 126.784 129.522 126.924C129.933 127.059 130.354 127.127 130.786 127.127C131.15 127.127 131.509 127.078 131.865 126.981C132.22 126.879 132.538 126.727 132.817 126.524C133.096 126.325 133.323 126.075 133.496 125.775C133.674 125.474 133.763 125.121 133.763 124.715C133.763 124.309 133.676 123.955 133.502 123.655C133.333 123.35 133.113 123.092 132.842 122.88C132.559 122.665 132.246 122.485 131.903 122.341C131.564 122.193 131.228 122.068 130.894 121.966C130.648 121.89 130.39 121.803 130.119 121.706C129.848 121.604 129.603 121.48 129.383 121.332C129.159 121.183 128.974 121.004 128.831 120.792C128.687 120.576 128.615 120.314 128.615 120.005C128.615 119.717 128.676 119.467 128.799 119.256C128.926 119.044 129.091 118.867 129.294 118.723C129.493 118.583 129.719 118.479 129.973 118.412C130.227 118.34 130.483 118.304 130.741 118.304C131.05 118.304 131.332 118.352 131.585 118.45C131.844 118.547 132.066 118.685 132.252 118.862C132.442 119.04 132.595 119.254 132.709 119.503C132.823 119.749 132.897 120.022 132.931 120.322H133.699C133.687 119.916 133.6 119.548 133.439 119.218C133.278 118.883 133.062 118.6 132.792 118.367C132.525 118.134 132.214 117.955 131.858 117.828C131.507 117.696 131.135 117.631 130.741 117.631C130.39 117.631 130.041 117.684 129.694 117.79C129.347 117.891 129.036 118.041 128.761 118.24C128.486 118.443 128.261 118.695 128.088 118.996C127.919 119.292 127.834 119.632 127.834 120.018C127.838 120.437 127.931 120.79 128.113 121.078C128.295 121.365 128.53 121.613 128.818 121.82C129.08 122.011 129.374 122.174 129.7 122.309C130.026 122.444 130.343 122.561 130.652 122.658C130.91 122.739 131.177 122.832 131.452 122.938C131.727 123.043 131.979 123.172 132.208 123.325C132.432 123.481 132.616 123.674 132.76 123.902C132.908 124.127 132.98 124.402 132.976 124.728ZM141.653 122.931V121.833C141.649 121.507 141.617 121.177 141.558 120.843C141.503 120.504 141.42 120.178 141.31 119.865C141.192 119.556 141.046 119.266 140.872 118.996C140.699 118.721 140.493 118.481 140.256 118.278C140.015 118.079 139.74 117.923 139.431 117.809C139.126 117.69 138.788 117.631 138.416 117.631C138.039 117.631 137.696 117.69 137.387 117.809C137.083 117.923 136.812 118.079 136.575 118.278C136.333 118.486 136.126 118.725 135.953 118.996C135.779 119.266 135.635 119.558 135.521 119.872C135.407 120.181 135.322 120.504 135.267 120.843C135.212 121.177 135.182 121.507 135.178 121.833V122.931C135.182 123.261 135.212 123.593 135.267 123.928C135.322 124.258 135.409 124.579 135.527 124.893C135.642 125.201 135.785 125.493 135.959 125.769C136.137 126.039 136.346 126.274 136.587 126.473C136.824 126.676 137.095 126.837 137.4 126.956C137.705 127.07 138.045 127.127 138.422 127.127C138.595 127.127 138.76 127.112 138.917 127.083C139.074 127.057 139.224 127.021 139.368 126.975L141.113 128.619L141.634 128.124L140.053 126.625C140.328 126.435 140.565 126.202 140.764 125.927C140.963 125.648 141.128 125.343 141.259 125.013C141.39 124.687 141.488 124.347 141.551 123.991C141.615 123.636 141.649 123.282 141.653 122.931ZM140.904 121.82V122.931C140.9 123.189 140.878 123.456 140.84 123.731C140.806 124.002 140.749 124.268 140.669 124.531C140.589 124.789 140.485 125.034 140.358 125.267C140.231 125.5 140.076 125.701 139.895 125.87C139.708 126.048 139.495 126.188 139.253 126.289C139.012 126.391 138.735 126.441 138.422 126.441C138.113 126.441 137.836 126.391 137.59 126.289C137.349 126.188 137.138 126.048 136.956 125.87C136.774 125.697 136.617 125.496 136.486 125.267C136.359 125.034 136.255 124.787 136.175 124.524C136.09 124.266 136.029 124.002 135.991 123.731C135.953 123.456 135.931 123.189 135.927 122.931V121.82C135.931 121.562 135.953 121.298 135.991 121.027C136.029 120.756 136.09 120.489 136.175 120.227C136.255 119.969 136.359 119.726 136.486 119.497C136.613 119.264 136.769 119.061 136.956 118.888C137.138 118.714 137.347 118.577 137.584 118.475C137.825 118.374 138.102 118.323 138.416 118.323C138.724 118.323 139 118.374 139.241 118.475C139.486 118.577 139.7 118.712 139.882 118.881C140.064 119.059 140.218 119.264 140.345 119.497C140.476 119.726 140.584 119.967 140.669 120.221C140.745 120.483 140.802 120.752 140.84 121.027C140.878 121.298 140.9 121.562 140.904 121.82ZM144.465 126.333V117.758H143.703V127H149.168V126.333H144.465ZM164.13 123.191V122.538H159.426V123.191H164.13ZM179.644 122.569V121.903H175.568V118.431H180.24V117.758H174.813V127H180.266V126.333H175.568V122.569H179.644ZM188.575 118.431V117.758H181.941V118.431H184.893L184.887 127H185.629V118.431H188.575ZM191.311 126.333V117.758H190.549V127H196.014V126.333H191.311ZM210.976 123.191V122.538H206.272V123.191H210.976ZM227.181 117.758H226.451L226.438 124.023C226.43 124.336 226.377 124.641 226.28 124.937C226.187 125.229 226.049 125.487 225.867 125.711C225.685 125.94 225.461 126.122 225.194 126.257C224.932 126.393 224.629 126.46 224.287 126.46C223.944 126.46 223.639 126.393 223.373 126.257C223.106 126.122 222.882 125.94 222.7 125.711C222.518 125.487 222.378 125.229 222.281 124.937C222.183 124.645 222.133 124.34 222.128 124.023L222.109 117.758H221.392L221.386 124.023C221.39 124.442 221.46 124.84 221.595 125.216C221.735 125.593 221.93 125.921 222.179 126.2C222.429 126.488 222.731 126.714 223.087 126.879C223.442 127.044 223.842 127.127 224.287 127.127C224.727 127.127 225.122 127.044 225.474 126.879C225.829 126.71 226.134 126.484 226.388 126.2C226.642 125.917 226.838 125.589 226.978 125.216C227.118 124.84 227.188 124.442 227.188 124.023L227.181 117.758ZM229.416 117.758V118.443H231.663V126.321H229.416V127H234.767V126.321H232.45V118.443H234.767V117.758H229.416ZM238.48 127.793L242.339 117.758H241.628L237.769 127.793H238.48ZM250.604 117.758H249.874L249.861 124.023C249.853 124.336 249.8 124.641 249.703 124.937C249.61 125.229 249.472 125.487 249.29 125.711C249.108 125.94 248.884 126.122 248.617 126.257C248.355 126.393 248.052 126.46 247.709 126.46C247.367 126.46 247.062 126.393 246.795 126.257C246.529 126.122 246.305 125.94 246.123 125.711C245.941 125.487 245.801 125.229 245.704 124.937C245.606 124.645 245.556 124.34 245.551 124.023L245.532 117.758H244.815L244.809 124.023C244.813 124.442 244.883 124.84 245.018 125.216C245.158 125.593 245.352 125.921 245.602 126.2C245.852 126.488 246.154 126.714 246.51 126.879C246.865 127.044 247.265 127.127 247.709 127.127C248.15 127.127 248.545 127.044 248.896 126.879C249.252 126.71 249.557 126.484 249.811 126.2C250.064 125.917 250.261 125.589 250.401 125.216C250.541 124.84 250.61 124.442 250.61 124.023L250.604 117.758ZM255.606 121.7L253.276 117.758H252.388L255.174 122.309L252.299 127H253.188L255.619 122.925L258.05 127H258.932L256.057 122.309L258.843 117.758H257.948L255.606 121.7ZM262.868 126.454C262.868 126.628 262.925 126.776 263.039 126.898C263.153 127.017 263.31 127.076 263.509 127.076C263.708 127.076 263.866 127.017 263.985 126.898C264.103 126.78 264.163 126.632 264.163 126.454C264.163 126.276 264.103 126.126 263.985 126.003C263.866 125.876 263.708 125.813 263.509 125.813C263.31 125.813 263.153 125.876 263.039 126.003C262.925 126.126 262.868 126.276 262.868 126.454ZM270.675 126.454C270.675 126.628 270.732 126.776 270.847 126.898C270.961 127.017 271.118 127.076 271.316 127.076C271.515 127.076 271.674 127.017 271.792 126.898C271.911 126.78 271.97 126.632 271.97 126.454C271.97 126.276 271.911 126.126 271.792 126.003C271.674 125.876 271.515 125.813 271.316 125.813C271.118 125.813 270.961 125.876 270.847 126.003C270.732 126.126 270.675 126.276 270.675 126.454ZM278.483 126.454C278.483 126.628 278.54 126.776 278.654 126.898C278.769 127.017 278.925 127.076 279.124 127.076C279.323 127.076 279.482 127.017 279.6 126.898C279.719 126.78 279.778 126.632 279.778 126.454C279.778 126.276 279.719 126.126 279.6 126.003C279.482 125.876 279.323 125.813 279.124 125.813C278.925 125.813 278.769 125.876 278.654 126.003C278.54 126.126 278.483 126.276 278.483 126.454Z" fill="#F7D747"/>
</svg>
