<svg width="520" height="56" viewBox="0 0 520 56" fill="none" xmlns="http://www.w3.org/2000/svg">
<rect x="1.5" y="1.5" width="517" height="53" rx="18.5" fill="#141321" stroke="#D93A7C" stroke-width="3"/>
<path d="M90.5771 30.1221H92.748C93.3926 30.1221 93.9844 30.0283 94.5234 29.8408C95.0684 29.6533 95.5371 29.3867 95.9297 29.041C96.3223 28.7012 96.627 28.2939 96.8438 27.8193C97.0605 27.3389 97.1689 26.8027 97.1689 26.2109C97.1689 25.5957 97.0605 25.042 96.8438 24.5498C96.627 24.0576 96.3223 23.6387 95.9297 23.293C95.5371 22.9473 95.0684 22.6807 94.5234 22.4932C93.9844 22.3057 93.3926 22.209 92.748 22.2031H88.4678V35H90.5771V30.1221ZM90.5771 28.3994V23.9258H92.748C93.1055 23.9316 93.4248 23.9902 93.7061 24.1016C93.9932 24.2129 94.2363 24.3711 94.4355 24.5762C94.6348 24.7812 94.7842 25.0244 94.8838 25.3057C94.9893 25.5811 95.042 25.8887 95.042 26.2285C95.042 26.5391 94.9893 26.8262 94.8838 27.0898C94.7842 27.3535 94.6348 27.582 94.4355 27.7754C94.2363 27.9688 93.9932 28.1211 93.7061 28.2324C93.4248 28.3379 93.1055 28.3936 92.748 28.3994H90.5771ZM98.7861 30.1572V30.3418C98.7861 31.0391 98.8857 31.6807 99.085 32.2666C99.2842 32.8525 99.5742 33.3623 99.9551 33.7959C100.33 34.2295 100.793 34.5693 101.344 34.8154C101.895 35.0615 102.519 35.1846 103.216 35.1846C103.907 35.1846 104.525 35.0615 105.07 34.8154C105.621 34.5693 106.084 34.2295 106.459 33.7959C106.834 33.3623 107.121 32.8525 107.32 32.2666C107.52 31.6807 107.619 31.0391 107.619 30.3418V30.1572C107.619 29.4658 107.52 28.8271 107.32 28.2412C107.121 27.6494 106.834 27.1367 106.459 26.7031C106.078 26.2695 105.612 25.9297 105.062 25.6836C104.517 25.4375 103.896 25.3145 103.198 25.3145C102.501 25.3145 101.88 25.4375 101.335 25.6836C100.79 25.9297 100.33 26.2695 99.9551 26.7031C99.5742 27.1367 99.2842 27.6494 99.085 28.2412C98.8857 28.8271 98.7861 29.4658 98.7861 30.1572ZM100.887 30.3418V30.1572C100.887 29.7412 100.931 29.3428 101.019 28.9619C101.112 28.5811 101.256 28.2471 101.449 27.96C101.637 27.6729 101.874 27.4443 102.161 27.2744C102.454 27.1045 102.8 27.0195 103.198 27.0195C103.603 27.0195 103.948 27.1045 104.235 27.2744C104.528 27.4443 104.771 27.6729 104.965 27.96C105.146 28.2471 105.284 28.5811 105.378 28.9619C105.472 29.3428 105.519 29.7412 105.519 30.1572V30.3418C105.519 30.7695 105.472 31.1738 105.378 31.5547C105.29 31.9355 105.152 32.2695 104.965 32.5566C104.777 32.8438 104.537 33.0723 104.244 33.2422C103.951 33.4062 103.608 33.4883 103.216 33.4883C102.812 33.4883 102.463 33.4062 102.17 33.2422C101.877 33.0723 101.637 32.8438 101.449 32.5566C101.256 32.2695 101.112 31.9355 101.019 31.5547C100.931 31.1738 100.887 30.7695 100.887 30.3418ZM110.774 35H112.559L113.763 29.6035L113.974 28.4258L114.193 29.6035L115.424 35H117.208L119.045 25.4902H117.138L116.285 31.291L116.118 32.4512L115.916 31.2998L114.677 25.4902H113.297L112.058 31.3174L111.864 32.416L111.715 31.3174L110.836 25.4902H108.938L110.774 35ZM125.232 35.1758C126.158 35.1758 126.946 34.9941 127.597 34.6309C128.253 34.2676 128.739 33.8574 129.056 33.4004L127.931 32.3105C127.638 32.6855 127.266 32.9756 126.814 33.1807C126.363 33.3799 125.877 33.4795 125.355 33.4795C124.975 33.4795 124.623 33.415 124.301 33.2861C123.984 33.1572 123.709 32.9756 123.475 32.7412C123.24 32.5186 123.056 32.2666 122.921 31.9854C122.786 31.7041 122.687 31.3555 122.622 30.9395V30.8955H129.214V29.9902C129.214 29.3105 129.123 28.6836 128.941 28.1094C128.76 27.5352 128.49 27.04 128.133 26.624C127.775 26.2139 127.333 25.8945 126.806 25.666C126.278 25.4316 125.672 25.3145 124.986 25.3145C124.371 25.3145 123.791 25.4316 123.246 25.666C122.707 25.8945 122.232 26.2227 121.822 26.6504C121.412 27.0781 121.09 27.5938 120.855 28.1973C120.621 28.8008 120.504 29.4746 120.504 30.2188V30.5791C120.504 31.2295 120.615 31.8359 120.838 32.3984C121.066 32.9551 121.389 33.4385 121.805 33.8486C122.221 34.2646 122.719 34.5898 123.299 34.8242C123.885 35.0586 124.529 35.1758 125.232 35.1758ZM124.978 27.0195C125.329 27.0195 125.637 27.0811 125.9 27.2041C126.17 27.3213 126.393 27.4795 126.568 27.6787C126.75 27.8838 126.891 28.124 126.99 28.3994C127.09 28.6689 127.14 28.9414 127.14 29.2168V29.3574H122.666C122.73 28.9941 122.83 28.6689 122.965 28.3818C123.1 28.0947 123.267 27.8486 123.466 27.6436C123.665 27.4443 123.891 27.292 124.143 27.1865C124.4 27.0752 124.679 27.0195 124.978 27.0195ZM138.179 25.3145C137.522 25.3145 136.922 25.4668 136.377 25.7715C135.838 26.0762 135.375 26.4951 134.988 27.0283L134.979 26.8086L134.892 25.4902H132.923V35H135.023V29.1289C135.135 28.8477 135.272 28.5986 135.437 28.3818C135.601 28.165 135.8 27.9863 136.034 27.8457C136.251 27.6992 136.5 27.5908 136.781 27.5205C137.062 27.4502 137.379 27.415 137.73 27.415C138.041 27.415 138.352 27.4326 138.662 27.4678C138.979 27.5029 139.298 27.5557 139.62 27.626L139.919 25.5518C139.737 25.4873 139.485 25.4316 139.163 25.3848C138.847 25.3379 138.519 25.3145 138.179 25.3145ZM153.155 35H157.585C158.218 35 158.804 34.9209 159.343 34.7627C159.888 34.5986 160.356 34.3584 160.749 34.042C161.142 33.7314 161.449 33.3447 161.672 32.8818C161.895 32.4189 162.003 31.8828 161.997 31.2734C161.997 30.9277 161.947 30.5996 161.848 30.2891C161.754 29.9727 161.613 29.6855 161.426 29.4277C161.244 29.1875 161.019 28.9736 160.749 28.7861C160.479 28.5928 160.154 28.4463 159.773 28.3467V28.3291C160.031 28.2236 160.257 28.1064 160.45 27.9775C160.649 27.8428 160.828 27.6875 160.986 27.5117C161.209 27.2715 161.379 26.9961 161.496 26.6855C161.619 26.3691 161.684 26.0293 161.689 25.666C161.689 25.0684 161.575 24.5527 161.347 24.1191C161.124 23.6797 160.813 23.3193 160.415 23.0381C160.017 22.7568 159.545 22.5488 159 22.4141C158.455 22.2734 157.872 22.2031 157.251 22.2031H153.155V35ZM155.282 29.2168H157.708C158.054 29.2227 158.361 29.2754 158.631 29.375C158.9 29.4688 159.129 29.6035 159.316 29.7793C159.504 29.9551 159.645 30.1689 159.738 30.4209C159.832 30.667 159.879 30.9512 159.879 31.2734C159.879 31.5781 159.82 31.8564 159.703 32.1084C159.592 32.3545 159.431 32.5625 159.22 32.7324C159.026 32.8965 158.792 33.0254 158.517 33.1191C158.241 33.2129 157.937 33.2598 157.603 33.2598H155.282V29.2168ZM155.282 27.6084V23.9521H157.277C157.641 23.958 157.972 24.002 158.271 24.084C158.569 24.1602 158.818 24.2861 159.018 24.4619C159.193 24.6025 159.328 24.7842 159.422 25.0068C159.521 25.2236 159.571 25.4814 159.571 25.7803C159.571 26.0615 159.519 26.3105 159.413 26.5273C159.308 26.7441 159.164 26.9287 158.982 27.0811C158.783 27.251 158.537 27.3799 158.244 27.4678C157.957 27.5557 157.641 27.6025 157.295 27.6084H155.282ZM166.655 33.7344C166.655 34.1387 166.787 34.4814 167.051 34.7627C167.32 35.0381 167.695 35.1758 168.176 35.1758C168.65 35.1758 169.022 35.0381 169.292 34.7627C169.567 34.4873 169.705 34.1445 169.705 33.7344C169.705 33.3242 169.57 32.9785 169.301 32.6973C169.031 32.4102 168.656 32.2666 168.176 32.2666C167.684 32.2666 167.306 32.4102 167.042 32.6973C166.784 32.9844 166.655 33.3301 166.655 33.7344ZM175.11 22.2031V23.9521H177.782V33.2598H175.11V35H182.651V33.2598H179.918V23.9521H182.651V22.2031H175.11ZM204.422 30.2275V28.5225H197.347V30.2275H204.422ZM224.707 31.7041C224.707 31.9854 224.646 32.2344 224.522 32.4512C224.405 32.668 224.247 32.8496 224.048 32.9961C223.843 33.1484 223.6 33.2627 223.318 33.3389C223.043 33.415 222.744 33.4531 222.422 33.4531C222.041 33.4531 221.689 33.4062 221.367 33.3125C221.051 33.2188 220.775 33.0752 220.541 32.8818C220.301 32.6943 220.11 32.457 219.97 32.1699C219.835 31.877 219.753 31.5342 219.724 31.1416H217.614C217.62 31.7568 217.743 32.3018 217.983 32.7764C218.229 33.251 218.561 33.6641 218.977 34.0156C219.428 34.3906 219.958 34.6777 220.567 34.877C221.177 35.0703 221.795 35.167 222.422 35.167C223.014 35.167 223.576 35.0938 224.109 34.9473C224.643 34.7949 225.111 34.5693 225.516 34.2705C225.914 33.9834 226.23 33.623 226.465 33.1895C226.705 32.7559 226.825 32.2549 226.825 31.6865C226.825 31.0713 226.688 30.5293 226.412 30.0605C226.143 29.5859 225.782 29.1787 225.331 28.8389C224.968 28.5693 224.569 28.3408 224.136 28.1533C223.708 27.96 223.269 27.7988 222.817 27.6699C222.46 27.5645 222.117 27.4502 221.789 27.3271C221.467 27.2041 221.18 27.0605 220.928 26.8965C220.682 26.7324 220.485 26.542 220.339 26.3252C220.192 26.1025 220.116 25.8447 220.11 25.5518C220.11 25.2764 220.166 25.0273 220.277 24.8047C220.389 24.582 220.544 24.3916 220.743 24.2334C220.942 24.0811 221.177 23.9639 221.446 23.8818C221.722 23.7939 222.021 23.75 222.343 23.75C222.712 23.75 223.037 23.8057 223.318 23.917C223.605 24.0225 223.849 24.1689 224.048 24.3564C224.241 24.5498 224.391 24.7812 224.496 25.0508C224.607 25.3145 224.678 25.6074 224.707 25.9297H226.799C226.799 25.3496 226.682 24.8223 226.447 24.3477C226.219 23.8672 225.905 23.4541 225.507 23.1084C225.108 22.7686 224.64 22.5049 224.101 22.3174C223.567 22.124 222.99 22.0273 222.369 22.0273C221.783 22.0273 221.224 22.1094 220.69 22.2734C220.163 22.4316 219.7 22.6631 219.302 22.9678C218.903 23.2783 218.587 23.6533 218.353 24.0928C218.118 24.5264 218.001 25.0156 218.001 25.5605C218.001 26.0645 218.101 26.5186 218.3 26.9229C218.505 27.3213 218.786 27.6787 219.144 27.9951C219.501 28.3057 219.932 28.5869 220.436 28.8389C220.945 29.085 221.502 29.293 222.105 29.4629C222.498 29.5742 222.853 29.7002 223.169 29.8408C223.491 29.9756 223.77 30.1279 224.004 30.2979C224.227 30.4795 224.399 30.6846 224.522 30.9131C224.646 31.1416 224.707 31.4053 224.707 31.7041ZM237.618 29.6123V27.8545C237.612 27.3975 237.574 26.9492 237.504 26.5098C237.439 26.0645 237.337 25.6426 237.196 25.2441C237.026 24.7578 236.801 24.3125 236.52 23.9082C236.244 23.5039 235.919 23.1582 235.544 22.8711C235.192 22.6074 234.797 22.4023 234.357 22.2559C233.924 22.1035 233.446 22.0273 232.925 22.0273C232.403 22.0273 231.926 22.1035 231.492 22.2559C231.064 22.4023 230.678 22.6074 230.332 22.8711C229.969 23.1465 229.655 23.4775 229.392 23.8643C229.134 24.251 228.926 24.6758 228.768 25.1387C228.621 25.5488 228.51 25.9854 228.434 26.4482C228.357 26.9053 228.319 27.374 228.319 27.8545V29.6123C228.319 30.0518 228.357 30.4883 228.434 30.9219C228.51 31.3555 228.624 31.7686 228.776 32.1611C228.94 32.5889 229.151 32.9902 229.409 33.3652C229.667 33.7344 229.969 34.0537 230.314 34.3232C230.66 34.5869 231.05 34.7949 231.483 34.9473C231.917 35.0996 232.397 35.1758 232.925 35.1758C233.147 35.1758 233.361 35.1611 233.566 35.1318C233.771 35.1025 233.974 35.0615 234.173 35.0088L236.643 37.2148L238.04 35.9492L235.887 34.0684C236.162 33.8223 236.402 33.541 236.607 33.2246C236.812 32.9082 236.985 32.5742 237.126 32.2227C237.284 31.8242 237.404 31.4023 237.486 30.957C237.568 30.5117 237.612 30.0635 237.618 29.6123ZM235.482 27.8369V29.6123C235.482 29.8818 235.465 30.1572 235.43 30.4385C235.4 30.7197 235.354 30.9951 235.289 31.2646C235.201 31.5752 235.087 31.8682 234.946 32.1436C234.806 32.4131 234.63 32.6445 234.419 32.8379C234.231 33.0078 234.015 33.1455 233.769 33.251C233.522 33.3506 233.241 33.4004 232.925 33.4004C232.614 33.4004 232.339 33.3506 232.099 33.251C231.858 33.1514 231.65 33.0137 231.475 32.8379C231.264 32.6445 231.088 32.4102 230.947 32.1348C230.812 31.8535 230.707 31.5488 230.631 31.2207C230.566 30.9629 230.52 30.6963 230.49 30.4209C230.461 30.1455 230.446 29.876 230.446 29.6123V27.8369C230.446 27.5498 230.458 27.2627 230.481 26.9756C230.511 26.6885 230.555 26.4102 230.613 26.1406C230.684 25.7832 230.786 25.4551 230.921 25.1562C231.062 24.8516 231.24 24.5938 231.457 24.3828C231.639 24.207 231.85 24.0693 232.09 23.9697C232.33 23.8701 232.608 23.8203 232.925 23.8203C233.247 23.8203 233.534 23.873 233.786 23.9785C234.038 24.0781 234.255 24.2158 234.437 24.3916C234.63 24.5791 234.794 24.8018 234.929 25.0596C235.069 25.3174 235.178 25.5986 235.254 25.9033C235.336 26.1963 235.395 26.5098 235.43 26.8438C235.465 27.1719 235.482 27.5029 235.482 27.8369ZM241.96 33.2598V22.2031H239.842V35H248.068V33.2598H241.96ZM269.285 30.2275V28.5225H262.21V30.2275H269.285ZM290.423 29.2607V27.5557H285.132V23.9521H291.267V22.2031H283.014V35H291.311V33.2598H285.132V29.2607H290.423ZM302.789 23.9521V22.2031H292.822V23.9521H296.742V35H298.843V23.9521H302.789ZM306.823 33.2598V22.2031H304.705V35H312.932V33.2598H306.823ZM334.148 30.2275V28.5225H327.073V30.2275H334.148ZM356.086 22.2031H354.003L353.985 30.7637C353.974 31.1621 353.921 31.5283 353.827 31.8623C353.733 32.1904 353.596 32.4746 353.414 32.7148C353.232 32.9492 353.007 33.1309 352.737 33.2598C352.474 33.3828 352.169 33.4443 351.823 33.4443C351.483 33.4443 351.185 33.3828 350.927 33.2598C350.675 33.1309 350.461 32.9551 350.285 32.7324C350.104 32.498 349.966 32.2139 349.872 31.8799C349.778 31.54 349.729 31.168 349.723 30.7637L349.705 22.2031H347.622L347.604 30.7637C347.61 31.4258 347.713 32.0293 347.912 32.5742C348.117 33.1191 348.404 33.585 348.773 33.9717C349.137 34.3584 349.576 34.6572 350.092 34.8682C350.607 35.0732 351.185 35.1758 351.823 35.1758C352.474 35.1758 353.06 35.0703 353.581 34.8594C354.108 34.6484 354.56 34.3496 354.935 33.9629C355.304 33.5762 355.588 33.1133 355.787 32.5742C355.992 32.0293 356.095 31.4258 356.095 30.7637L356.086 22.2031ZM358.89 22.2031V23.9521H361.562V33.2598H358.89V35H366.431V33.2598H363.697V23.9521H366.431V22.2031H358.89ZM372.056 36.0986L377.074 22.2031H375.149L370.122 36.0986H372.056ZM388.518 22.2031H386.435L386.417 30.7637C386.405 31.1621 386.353 31.5283 386.259 31.8623C386.165 32.1904 386.027 32.4746 385.846 32.7148C385.664 32.9492 385.438 33.1309 385.169 33.2598C384.905 33.3828 384.601 33.4443 384.255 33.4443C383.915 33.4443 383.616 33.3828 383.358 33.2598C383.106 33.1309 382.893 32.9551 382.717 32.7324C382.535 32.498 382.397 32.2139 382.304 31.8799C382.21 31.54 382.16 31.168 382.154 30.7637L382.137 22.2031H380.054L380.036 30.7637C380.042 31.4258 380.145 32.0293 380.344 32.5742C380.549 33.1191 380.836 33.585 381.205 33.9717C381.568 34.3584 382.008 34.6572 382.523 34.8682C383.039 35.0732 383.616 35.1758 384.255 35.1758C384.905 35.1758 385.491 35.0703 386.013 34.8594C386.54 34.6484 386.991 34.3496 387.366 33.9629C387.735 33.5762 388.02 33.1133 388.219 32.5742C388.424 32.0293 388.526 31.4258 388.526 30.7637L388.518 22.2031ZM395.18 26.9756L392.736 22.2031H390.267L393.914 28.5488L390.17 35H392.666L395.215 30.1484L397.772 35H400.233L396.498 28.5488L400.146 22.2031H397.667L395.18 26.9756ZM404.487 33.7344C404.487 34.1387 404.619 34.4814 404.883 34.7627C405.152 35.0381 405.527 35.1758 406.008 35.1758C406.482 35.1758 406.854 35.0381 407.124 34.7627C407.399 34.4873 407.537 34.1445 407.537 33.7344C407.537 33.3242 407.402 32.9785 407.133 32.6973C406.863 32.4102 406.488 32.2666 406.008 32.2666C405.516 32.2666 405.138 32.4102 404.874 32.6973C404.616 32.9844 404.487 33.3301 404.487 33.7344ZM415.298 33.7344C415.298 34.1387 415.43 34.4814 415.693 34.7627C415.963 35.0381 416.338 35.1758 416.818 35.1758C417.293 35.1758 417.665 35.0381 417.935 34.7627C418.21 34.4873 418.348 34.1445 418.348 33.7344C418.348 33.3242 418.213 32.9785 417.943 32.6973C417.674 32.4102 417.299 32.2666 416.818 32.2666C416.326 32.2666 415.948 32.4102 415.685 32.6973C415.427 32.9844 415.298 33.3301 415.298 33.7344ZM426.108 33.7344C426.108 34.1387 426.24 34.4814 426.504 34.7627C426.773 35.0381 427.148 35.1758 427.629 35.1758C428.104 35.1758 428.476 35.0381 428.745 34.7627C429.021 34.4873 429.158 34.1445 429.158 33.7344C429.158 33.3242 429.023 32.9785 428.754 32.6973C428.484 32.4102 428.109 32.2666 427.629 32.2666C427.137 32.2666 426.759 32.4102 426.495 32.6973C426.237 32.9844 426.108 33.3301 426.108 33.7344Z" fill="#F7D747"/>
</svg>
