<svg width="316" height="174" viewBox="0 0 316 174" fill="none" xmlns="http://www.w3.org/2000/svg">
<rect x="1.5" y="1.5" width="313" height="171" rx="18.5" fill="#141321" stroke="#D93A7C" stroke-width="3"/>
<path d="M48.3394 67.2891L49.377 71H52.9902L47.2773 53.2266H44.1646L38.3418 71H41.9551L43.0049 67.2891H48.3394ZM43.8472 64.3716L45.7148 57.8286L47.5337 64.3716H43.8472ZM54.7358 71H58.1416V61.6128C58.2555 61.4338 58.3817 61.271 58.52 61.1245C58.6584 60.978 58.813 60.8519 58.9839 60.7461C59.1955 60.5996 59.4355 60.4897 59.7041 60.4165C59.9808 60.3433 60.2819 60.3066 60.6074 60.3066C60.998 60.3066 61.348 60.3473 61.6572 60.4287C61.9665 60.502 62.231 60.6362 62.4507 60.8315C62.6704 61.0269 62.8372 61.2954 62.9512 61.6372C63.0732 61.9709 63.1343 62.3981 63.1343 62.9189V71H66.5278V62.8701C66.5278 61.9098 66.4139 61.096 66.186 60.4287C65.9663 59.7533 65.6571 59.1999 65.2583 58.7686C64.8514 58.3454 64.3713 58.0361 63.8179 57.8408C63.2645 57.6455 62.6541 57.5479 61.9868 57.5479C61.466 57.5479 60.9736 57.6211 60.5098 57.7676C60.0459 57.9141 59.6187 58.1257 59.228 58.4023C59.0002 58.5651 58.7845 58.7482 58.5811 58.9517C58.3776 59.1551 58.1904 59.3789 58.0195 59.623L57.812 57.792H54.7358V71ZM75.9761 54.5571H72.5825V57.792H69.5674V60.2944H72.5825V66.3003C72.5825 67.1711 72.6965 67.9198 72.9243 68.5464C73.1522 69.1649 73.4777 69.6735 73.9009 70.0723C74.3159 70.4792 74.8164 70.7803 75.4023 70.9756C75.9964 71.1628 76.6556 71.2563 77.3799 71.2563C77.7542 71.2563 78.1326 71.236 78.5151 71.1953C78.9058 71.1628 79.2801 71.1139 79.6382 71.0488C79.9963 70.9837 80.334 70.9023 80.6514 70.8047C80.9688 70.6989 81.2454 70.5768 81.4814 70.4385L81.1519 68.1069C80.9972 68.1476 80.8101 68.1883 80.5903 68.229C80.3787 68.2697 80.1509 68.3063 79.9067 68.3389C79.6545 68.3796 79.39 68.4121 79.1133 68.4365C78.8447 68.4609 78.5802 68.4731 78.3198 68.4731C77.9618 68.4731 77.6362 68.4325 77.3433 68.3511C77.0584 68.2697 76.8143 68.1313 76.6108 67.936C76.4074 67.7489 76.2487 67.4966 76.1348 67.1792C76.029 66.8537 75.9761 66.4508 75.9761 65.9707V60.2944H80.9077V57.792H75.9761V54.5571ZM84.3013 64.2739V64.5303C84.3013 65.4987 84.4396 66.3939 84.7163 67.2158C84.993 68.0296 85.3999 68.7376 85.937 69.3398C86.466 69.9421 87.117 70.4141 87.8901 70.7559C88.6714 71.0895 89.5584 71.2563 90.5513 71.2563C91.536 71.2563 92.4149 71.0895 93.188 70.7559C93.9611 70.4141 94.6121 69.9421 95.1411 69.3398C95.6701 68.7376 96.0729 68.0296 96.3496 67.2158C96.6263 66.3939 96.7646 65.4987 96.7646 64.5303V64.2739C96.7646 63.3136 96.6263 62.4266 96.3496 61.6128C96.0729 60.7909 95.6701 60.0788 95.1411 59.4766C94.604 58.8743 93.9489 58.4023 93.1758 58.0605C92.4027 57.7188 91.5197 57.5479 90.5269 57.5479C89.534 57.5479 88.651 57.7188 87.8779 58.0605C87.113 58.4023 86.466 58.8743 85.937 59.4766C85.3999 60.0788 84.993 60.7909 84.7163 61.6128C84.4396 62.4266 84.3013 63.3136 84.3013 64.2739ZM87.6948 64.5303V64.2739C87.6948 63.7368 87.7477 63.2282 87.8535 62.748C87.9593 62.2679 88.1261 61.8447 88.354 61.4785C88.5819 61.1123 88.8748 60.8234 89.2329 60.6118C89.591 60.4002 90.0223 60.2944 90.5269 60.2944C91.0396 60.2944 91.4749 60.4002 91.833 60.6118C92.1911 60.8234 92.484 61.1123 92.7119 61.4785C92.9316 61.8447 93.0944 62.2679 93.2002 62.748C93.306 63.2282 93.3589 63.7368 93.3589 64.2739V64.5303C93.3589 65.0837 93.306 65.6045 93.2002 66.0928C93.0944 66.5729 92.9316 66.992 92.7119 67.3501C92.484 67.7163 92.1911 68.0052 91.833 68.2168C91.4749 68.4284 91.0477 68.5342 90.5513 68.5342C90.0386 68.5342 89.5991 68.4284 89.2329 68.2168C88.8748 68.0052 88.5819 67.7163 88.354 67.3501C88.1261 66.992 87.9593 66.5729 87.8535 66.0928C87.7477 65.6045 87.6948 65.0837 87.6948 64.5303ZM95.1899 55.1309L91.6011 52.1646H89.6357L86.0957 55.1064V55.4727H88.7446L90.6123 53.9224L92.4922 55.4727H95.1899V55.1309ZM99.7798 71H103.186V61.6128C103.299 61.4338 103.426 61.271 103.564 61.1245C103.702 60.978 103.857 60.8519 104.028 60.7461C104.239 60.5996 104.479 60.4897 104.748 60.4165C105.025 60.3433 105.326 60.3066 105.651 60.3066C106.042 60.3066 106.392 60.3473 106.701 60.4287C107.01 60.502 107.275 60.6362 107.495 60.8315C107.714 61.0269 107.881 61.2954 107.995 61.6372C108.117 61.9709 108.178 62.3981 108.178 62.9189V71H111.572V62.8701C111.572 61.9098 111.458 61.096 111.23 60.4287C111.01 59.7533 110.701 59.1999 110.302 58.7686C109.895 58.3454 109.415 58.0361 108.862 57.8408C108.308 57.6455 107.698 57.5479 107.031 57.5479C106.51 57.5479 106.018 57.6211 105.554 57.7676C105.09 57.9141 104.663 58.1257 104.272 58.4023C104.044 58.5651 103.828 58.7482 103.625 58.9517C103.422 59.1551 103.234 59.3789 103.063 59.623L102.856 57.792H99.7798V71ZM115.698 57.792V60.563H119.458V68.2412H115.698V71H126.464V68.2412H122.888V57.792H115.698ZM119.213 54.4106C119.213 54.6711 119.258 54.9152 119.348 55.1431C119.445 55.3628 119.58 55.55 119.75 55.7046C119.921 55.8674 120.125 55.9935 120.361 56.083C120.605 56.1725 120.874 56.2173 121.167 56.2173C121.769 56.2173 122.245 56.0505 122.595 55.7168C122.953 55.375 123.132 54.9396 123.132 54.4106C123.132 53.8817 122.953 53.4504 122.595 53.1167C122.245 52.7749 121.769 52.604 121.167 52.604C120.874 52.604 120.605 52.6488 120.361 52.7383C120.125 52.8278 119.921 52.9499 119.75 53.1045C119.58 53.2673 119.445 53.4626 119.348 53.6904C119.258 53.9102 119.213 54.1502 119.213 54.4106ZM129.345 64.2739V64.5303C129.345 65.4987 129.484 66.3939 129.76 67.2158C130.037 68.0296 130.444 68.7376 130.981 69.3398C131.51 69.9421 132.161 70.4141 132.934 70.7559C133.715 71.0895 134.602 71.2563 135.595 71.2563C136.58 71.2563 137.459 71.0895 138.232 70.7559C139.005 70.4141 139.656 69.9421 140.185 69.3398C140.714 68.7376 141.117 68.0296 141.394 67.2158C141.67 66.3939 141.809 65.4987 141.809 64.5303V64.2739C141.809 63.3136 141.67 62.4266 141.394 61.6128C141.117 60.7909 140.714 60.0788 140.185 59.4766C139.648 58.8743 138.993 58.4023 138.22 58.0605C137.447 57.7188 136.564 57.5479 135.571 57.5479C134.578 57.5479 133.695 57.7188 132.922 58.0605C132.157 58.4023 131.51 58.8743 130.981 59.4766C130.444 60.0788 130.037 60.7909 129.76 61.6128C129.484 62.4266 129.345 63.3136 129.345 64.2739ZM132.739 64.5303V64.2739C132.739 63.7368 132.792 63.2282 132.897 62.748C133.003 62.2679 133.17 61.8447 133.398 61.4785C133.626 61.1123 133.919 60.8234 134.277 60.6118C134.635 60.4002 135.066 60.2944 135.571 60.2944C136.083 60.2944 136.519 60.4002 136.877 60.6118C137.235 60.8234 137.528 61.1123 137.756 61.4785C137.976 61.8447 138.138 62.2679 138.244 62.748C138.35 63.2282 138.403 63.7368 138.403 64.2739V64.5303C138.403 65.0837 138.35 65.6045 138.244 66.0928C138.138 66.5729 137.976 66.992 137.756 67.3501C137.528 67.7163 137.235 68.0052 136.877 68.2168C136.519 68.4284 136.092 68.5342 135.595 68.5342C135.083 68.5342 134.643 68.4284 134.277 68.2168C133.919 68.0052 133.626 67.7163 133.398 67.3501C133.17 66.992 133.003 66.5729 132.897 66.0928C132.792 65.6045 132.739 65.0837 132.739 64.5303ZM165.747 64.3594L169.091 71H172.766V70.8413L168.945 63.5049C169.433 63.2852 169.873 63.0247 170.263 62.7236C170.662 62.4225 171.004 62.0685 171.289 61.6616C171.565 61.2629 171.777 60.8112 171.923 60.3066C172.078 59.7939 172.155 59.2202 172.155 58.5854C172.155 57.7065 172.001 56.9334 171.691 56.2661C171.39 55.5988 170.959 55.0413 170.397 54.5938C169.828 54.1462 169.144 53.8084 168.347 53.5806C167.549 53.3446 166.658 53.2266 165.673 53.2266H159.716V71H163.146V64.3594H165.747ZM163.146 61.5762V56.0098H165.673C166.145 56.0098 166.564 56.0667 166.931 56.1807C167.297 56.2946 167.606 56.4574 167.858 56.6689C168.143 56.9049 168.355 57.2061 168.493 57.5723C168.64 57.9303 168.713 58.3454 168.713 58.8174C168.713 59.208 168.656 59.562 168.542 59.8794C168.436 60.1968 168.278 60.4694 168.066 60.6973C167.814 60.9821 167.484 61.2018 167.077 61.3564C166.678 61.5029 166.215 61.5762 165.686 61.5762H163.146ZM181.262 71.2441C182.539 71.2441 183.646 70.9959 184.582 70.4995C185.518 70.0031 186.201 69.4497 186.633 68.8394L184.936 67.0083C184.545 67.5129 184.037 67.8913 183.41 68.1436C182.784 68.3958 182.137 68.522 181.469 68.522C180.997 68.522 180.562 68.4487 180.163 68.3022C179.764 68.1558 179.41 67.9482 179.101 67.6797C178.8 67.4193 178.56 67.1304 178.381 66.813C178.202 66.4875 178.055 66.0602 177.941 65.5312V65.4946H186.901V64.0542C186.901 63.0858 186.767 62.2028 186.499 61.4053C186.23 60.5996 185.839 59.9119 185.327 59.3423C184.806 58.7726 184.171 58.3332 183.422 58.0239C182.682 57.7065 181.835 57.5479 180.883 57.5479C179.964 57.5479 179.113 57.7147 178.332 58.0483C177.551 58.382 176.875 58.8499 176.306 59.4521C175.736 60.0544 175.292 60.7746 174.975 61.6128C174.658 62.4429 174.499 63.3625 174.499 64.3716V64.8599C174.499 65.7469 174.658 66.5811 174.975 67.3623C175.301 68.1354 175.76 68.8068 176.354 69.3765C176.949 69.9543 177.661 70.41 178.491 70.7437C179.321 71.0773 180.244 71.2441 181.262 71.2441ZM180.859 60.2944C181.29 60.2944 181.669 60.3636 181.994 60.502C182.328 60.6322 182.609 60.8112 182.836 61.0391C183.064 61.2751 183.243 61.5518 183.374 61.8691C183.504 62.1865 183.569 62.5243 183.569 62.8823V63.1509H178.002C178.084 62.7196 178.206 62.3289 178.369 61.979C178.531 61.6291 178.735 61.328 178.979 61.0757C179.215 60.8234 179.492 60.6322 179.809 60.502C180.126 60.3636 180.476 60.2944 180.859 60.2944ZM201.77 64.5303V64.2739C201.77 63.4764 201.696 62.7277 201.55 62.0278C201.411 61.328 201.196 60.6973 200.903 60.1357C200.716 59.7858 200.5 59.4644 200.256 59.1714C200.012 58.8703 199.739 58.6139 199.438 58.4023C199.064 58.1257 198.636 57.9141 198.156 57.7676C197.684 57.6211 197.163 57.5479 196.594 57.5479C196.179 57.5479 195.792 57.5926 195.434 57.6821C195.084 57.7635 194.759 57.8896 194.458 58.0605C194.246 58.1745 194.047 58.3128 193.859 58.4756C193.672 58.6302 193.497 58.8011 193.334 58.9883V52.25H189.941V71H192.993L193.151 69.5962C193.29 69.7752 193.436 69.9421 193.591 70.0967C193.745 70.2432 193.912 70.3774 194.091 70.4995C194.425 70.7437 194.799 70.9268 195.214 71.0488C195.638 71.179 196.105 71.2441 196.618 71.2441C197.18 71.2441 197.692 71.1709 198.156 71.0244C198.628 70.8861 199.051 70.6826 199.426 70.4141C199.841 70.1292 200.199 69.7712 200.5 69.3398C200.809 68.9085 201.057 68.4284 201.245 67.8994C201.416 67.4193 201.546 66.8984 201.635 66.3369C201.725 65.7673 201.77 65.165 201.77 64.5303ZM198.376 64.2739V64.5303C198.376 64.8721 198.36 65.2017 198.327 65.519C198.303 65.8364 198.258 66.1294 198.193 66.3979C198.111 66.7642 197.989 67.0938 197.827 67.3867C197.672 67.6715 197.469 67.9035 197.216 68.0825C197.037 68.2127 196.826 68.3145 196.582 68.3877C196.337 68.4609 196.065 68.4976 195.764 68.4976C195.414 68.4976 195.1 68.4569 194.824 68.3755C194.555 68.2941 194.319 68.1761 194.116 68.0215C193.945 67.8994 193.794 67.757 193.664 67.5942C193.542 67.4233 193.432 67.2362 193.334 67.0327V61.7715C193.408 61.6169 193.489 61.4744 193.579 61.3442C193.668 61.2059 193.766 61.0838 193.872 60.978C194.091 60.7583 194.356 60.5915 194.665 60.4775C194.974 60.3636 195.332 60.3066 195.739 60.3066C196.04 60.3066 196.309 60.3433 196.545 60.4165C196.781 60.4816 196.993 60.5833 197.18 60.7217C197.465 60.9414 197.676 61.1855 197.814 61.4541C197.961 61.7145 198.079 62.0116 198.168 62.3452C198.242 62.63 198.295 62.9352 198.327 63.2607C198.36 63.5863 198.376 63.924 198.376 64.2739ZM204.418 64.2739V64.5303C204.418 65.4987 204.557 66.3939 204.833 67.2158C205.11 68.0296 205.517 68.7376 206.054 69.3398C206.583 69.9421 207.234 70.4141 208.007 70.7559C208.789 71.0895 209.676 71.2563 210.668 71.2563C211.653 71.2563 212.532 71.0895 213.305 70.7559C214.078 70.4141 214.729 69.9421 215.258 69.3398C215.787 68.7376 216.19 68.0296 216.467 67.2158C216.743 66.3939 216.882 65.4987 216.882 64.5303V64.2739C216.882 63.3136 216.743 62.4266 216.467 61.6128C216.19 60.7909 215.787 60.0788 215.258 59.4766C214.721 58.8743 214.066 58.4023 213.293 58.0605C212.52 57.7188 211.637 57.5479 210.644 57.5479C209.651 57.5479 208.768 57.7188 207.995 58.0605C207.23 58.4023 206.583 58.8743 206.054 59.4766C205.517 60.0788 205.11 60.7909 204.833 61.6128C204.557 62.4266 204.418 63.3136 204.418 64.2739ZM207.812 64.5303V64.2739C207.812 63.7368 207.865 63.2282 207.971 62.748C208.076 62.2679 208.243 61.8447 208.471 61.4785C208.699 61.1123 208.992 60.8234 209.35 60.6118C209.708 60.4002 210.139 60.2944 210.644 60.2944C211.157 60.2944 211.592 60.4002 211.95 60.6118C212.308 60.8234 212.601 61.1123 212.829 61.4785C213.049 61.8447 213.212 62.2679 213.317 62.748C213.423 63.2282 213.476 63.7368 213.476 64.2739V64.5303C213.476 65.0837 213.423 65.6045 213.317 66.0928C213.212 66.5729 213.049 66.992 212.829 67.3501C212.601 67.7163 212.308 68.0052 211.95 68.2168C211.592 68.4284 211.165 68.5342 210.668 68.5342C210.156 68.5342 209.716 68.4284 209.35 68.2168C208.992 68.0052 208.699 67.7163 208.471 67.3501C208.243 66.992 208.076 66.5729 207.971 66.0928C207.865 65.6045 207.812 65.0837 207.812 64.5303ZM228.515 71H231.591V57.792H228.186V67.0571C228.08 67.2687 227.954 67.46 227.807 67.6309C227.661 67.8018 227.494 67.9482 227.307 68.0703C227.087 68.2087 226.831 68.3145 226.538 68.3877C226.253 68.4609 225.931 68.4976 225.573 68.4976C225.174 68.4976 224.837 68.4487 224.56 68.3511C224.283 68.2534 224.06 68.0907 223.889 67.8628C223.718 67.6431 223.592 67.3501 223.51 66.9839C223.437 66.6177 223.4 66.166 223.4 65.6289V57.792H220.007V65.6045C220.007 66.6055 220.117 67.464 220.336 68.1802C220.564 68.8882 220.882 69.4701 221.289 69.9258C221.695 70.3896 222.184 70.7274 222.753 70.939C223.323 71.1506 223.95 71.2563 224.633 71.2563C225.382 71.2563 226.07 71.0692 226.696 70.6948C227.331 70.3205 227.872 69.8037 228.32 69.1445L228.515 71ZM240.759 68.5342C240.214 68.5342 239.762 68.4243 239.404 68.2046C239.054 67.9849 238.777 67.6919 238.574 67.3257C238.362 66.9676 238.216 66.5526 238.134 66.0806C238.053 65.6004 238.012 65.104 238.012 64.5913V64.2251C238.012 63.7205 238.053 63.2323 238.134 62.7603C238.224 62.2882 238.374 61.8691 238.586 61.5029C238.789 61.1367 239.066 60.8438 239.416 60.624C239.766 60.4043 240.209 60.2944 240.747 60.2944C241.113 60.2944 241.451 60.3595 241.76 60.4897C242.069 60.6118 242.333 60.7786 242.553 60.9902C242.773 61.2018 242.94 61.4541 243.054 61.7471C243.168 62.04 243.216 62.3493 243.2 62.6748H246.398C246.415 61.8936 246.285 61.1896 246.008 60.563C245.731 59.9282 245.345 59.387 244.848 58.9395C244.344 58.5 243.745 58.1582 243.054 57.9141C242.362 57.6699 241.609 57.5479 240.795 57.5479C239.778 57.5479 238.883 57.7228 238.11 58.0728C237.345 58.4227 236.702 58.8988 236.181 59.501C235.66 60.1032 235.27 60.8112 235.009 61.625C234.749 62.4307 234.619 63.2974 234.619 64.2251V64.5913C234.619 65.519 234.749 66.3898 235.009 67.2036C235.278 68.0093 235.673 68.7132 236.193 69.3154C236.706 69.9176 237.349 70.3937 238.122 70.7437C238.895 71.0854 239.794 71.2563 240.82 71.2563C241.577 71.2563 242.293 71.1383 242.968 70.9023C243.652 70.6582 244.25 70.3245 244.763 69.9014C245.275 69.4782 245.678 68.9736 245.971 68.3877C246.272 67.8018 246.415 67.167 246.398 66.4834H243.2C243.216 66.7926 243.16 67.0734 243.029 67.3257C242.907 67.578 242.732 67.7936 242.504 67.9727C242.277 68.1517 242.012 68.29 241.711 68.3877C241.41 68.4854 241.092 68.5342 240.759 68.5342ZM242.065 70.8779H239.538L239.16 72.5991C239.477 72.6235 239.75 72.652 239.978 72.6846C240.205 72.7253 240.389 72.7863 240.527 72.8677C240.665 72.9409 240.767 73.0345 240.832 73.1484C240.897 73.2624 240.93 73.4007 240.93 73.5635C240.93 73.7507 240.889 73.9093 240.808 74.0396C240.734 74.1698 240.633 74.2756 240.502 74.3569C240.372 74.4302 240.218 74.4831 240.039 74.5156C239.868 74.5563 239.681 74.5767 239.477 74.5767L239.562 76.5298C240.254 76.5298 240.861 76.4606 241.381 76.3223C241.902 76.1839 242.342 75.9886 242.7 75.7363C243.05 75.4922 243.314 75.1951 243.493 74.8452C243.672 74.4953 243.762 74.1047 243.762 73.6733C243.762 73.3234 243.709 73.0223 243.603 72.77C243.497 72.5259 243.359 72.3184 243.188 72.1475C243.017 71.9847 242.822 71.8545 242.602 71.7568C242.382 71.6673 242.159 71.6022 241.931 71.5615L242.065 70.8779ZM258.178 71H261.621V70.7925C261.45 70.4588 261.319 70.0601 261.23 69.5962C261.14 69.1323 261.096 68.5464 261.096 67.8384V62.1743C261.096 61.4093 260.953 60.738 260.668 60.1602C260.384 59.5742 259.989 59.09 259.484 58.7075C258.98 58.325 258.382 58.0361 257.69 57.8408C257.006 57.6455 256.266 57.5479 255.468 57.5479C254.581 57.5479 253.792 57.6618 253.1 57.8896C252.417 58.1094 251.839 58.4105 251.367 58.793C250.887 59.1755 250.52 59.619 250.268 60.1235C250.024 60.6281 249.902 61.1611 249.902 61.7227H253.295C253.295 61.4867 253.328 61.271 253.393 61.0757C253.466 60.8804 253.576 60.7135 253.723 60.5752C253.885 60.4206 254.097 60.3026 254.357 60.2212C254.618 60.1317 254.927 60.0869 255.285 60.0869C255.692 60.0869 256.046 60.1398 256.347 60.2456C256.656 60.3433 256.913 60.4857 257.116 60.6729C257.312 60.8519 257.458 61.0675 257.556 61.3198C257.653 61.564 257.702 61.8407 257.702 62.1499V62.9312H255.81C254.833 62.9312 253.967 63.0207 253.21 63.1997C252.461 63.3706 251.831 63.6229 251.318 63.9565C250.748 64.3228 250.321 64.7907 250.036 65.3604C249.751 65.9219 249.609 66.5688 249.609 67.3013C249.609 67.8709 249.723 68.3999 249.951 68.8882C250.179 69.3683 250.496 69.7834 250.903 70.1333C251.31 70.4832 251.794 70.7559 252.355 70.9512C252.925 71.1465 253.548 71.2441 254.223 71.2441C254.638 71.2441 255.025 71.2035 255.383 71.1221C255.741 71.0488 256.07 70.943 256.372 70.8047C256.665 70.6745 256.933 70.5199 257.177 70.3408C257.421 70.1618 257.637 69.9705 257.824 69.7671C257.865 70.0031 257.914 70.2269 257.971 70.4385C258.028 70.6501 258.097 70.8372 258.178 71ZM254.943 68.6196C254.626 68.6196 254.345 68.583 254.101 68.5098C253.865 68.4284 253.666 68.3226 253.503 68.1924C253.34 68.054 253.214 67.8872 253.125 67.6919C253.043 67.4884 253.002 67.2687 253.002 67.0327C253.002 66.7316 253.059 66.4549 253.173 66.2026C253.287 65.9422 253.462 65.7184 253.698 65.5312C253.934 65.3522 254.239 65.2139 254.614 65.1162C254.988 65.0104 255.44 64.9575 255.969 64.9575H257.702V67.228C257.604 67.3989 257.47 67.5698 257.299 67.7407C257.128 67.9035 256.925 68.05 256.689 68.1802C256.453 68.3104 256.188 68.4162 255.896 68.4976C255.603 68.5789 255.285 68.6196 254.943 68.6196ZM273.461 67.3745C273.461 67.578 273.409 67.7651 273.303 67.936C273.205 68.1069 273.055 68.2575 272.851 68.3877C272.639 68.5179 272.367 68.6237 272.033 68.7051C271.708 68.7783 271.325 68.8149 270.886 68.8149C270.52 68.8149 270.161 68.7783 269.812 68.7051C269.47 68.6318 269.165 68.5138 268.896 68.3511C268.627 68.1965 268.408 67.993 268.237 67.7407C268.066 67.4803 267.968 67.1711 267.944 66.813H264.709C264.709 67.3501 264.839 67.8872 265.1 68.4243C265.368 68.9533 265.759 69.4253 266.271 69.8403C266.784 70.2635 267.419 70.6053 268.176 70.8657C268.941 71.1261 269.82 71.2563 270.812 71.2563C271.716 71.2563 272.534 71.1587 273.266 70.9634C273.999 70.7599 274.625 70.4792 275.146 70.1211C275.659 69.763 276.053 69.3398 276.33 68.8516C276.615 68.3551 276.757 67.814 276.757 67.228C276.757 66.5933 276.615 66.048 276.33 65.5923C276.053 65.1284 275.667 64.7337 275.17 64.4082C274.674 64.0908 274.084 63.8304 273.4 63.627C272.717 63.4235 271.976 63.2567 271.179 63.1265C270.625 63.0451 270.17 62.9515 269.812 62.8457C269.453 62.7318 269.173 62.6056 268.969 62.4673C268.758 62.3371 268.611 62.1906 268.53 62.0278C268.448 61.8569 268.408 61.6738 268.408 61.4785C268.408 61.2832 268.452 61.1001 268.542 60.9292C268.64 60.7502 268.778 60.5955 268.957 60.4653C269.152 60.3188 269.405 60.2049 269.714 60.1235C270.023 60.0422 270.385 60.0015 270.8 60.0015C271.289 60.0015 271.704 60.0625 272.045 60.1846C272.395 60.3066 272.672 60.4694 272.875 60.6729C273.022 60.8275 273.132 61.0024 273.205 61.1978C273.278 61.3849 273.315 61.5884 273.315 61.8081H276.708C276.708 61.1978 276.574 60.6322 276.306 60.1113C276.037 59.5905 275.651 59.1388 275.146 58.7563C274.633 58.382 274.011 58.089 273.278 57.8774C272.546 57.6577 271.72 57.5479 270.8 57.5479C269.921 57.5479 269.132 57.6577 268.432 57.8774C267.732 58.0972 267.138 58.3942 266.65 58.7686C266.162 59.1429 265.787 59.5783 265.527 60.0747C265.266 60.5711 265.136 61.092 265.136 61.6372C265.136 62.1987 265.262 62.6951 265.515 63.1265C265.775 63.5578 266.133 63.9362 266.589 64.2617C267.045 64.5954 267.59 64.8802 268.225 65.1162C268.868 65.3441 269.576 65.5353 270.349 65.6899C270.959 65.8039 271.464 65.9178 271.862 66.0317C272.261 66.1457 272.583 66.2677 272.827 66.3979C273.063 66.5363 273.225 66.6828 273.315 66.8374C273.413 66.992 273.461 67.1711 273.461 67.3745Z" fill="#F7D747"/>
<path d="M45.292 100H49.7217C50.3545 100 50.9404 99.9209 51.4795 99.7627C52.0244 99.5986 52.4932 99.3584 52.8857 99.042C53.2783 98.7314 53.5859 98.3447 53.8086 97.8818C54.0312 97.4189 54.1396 96.8828 54.1338 96.2734C54.1338 95.9277 54.084 95.5996 53.9844 95.2891C53.8906 94.9727 53.75 94.6855 53.5625 94.4277C53.3809 94.1875 53.1553 93.9736 52.8857 93.7861C52.6162 93.5928 52.291 93.4463 51.9102 93.3467V93.3291C52.168 93.2236 52.3936 93.1064 52.5869 92.9775C52.7861 92.8428 52.9648 92.6875 53.123 92.5117C53.3457 92.2715 53.5156 91.9961 53.6328 91.6855C53.7559 91.3691 53.8203 91.0293 53.8262 90.666C53.8262 90.0684 53.7119 89.5527 53.4834 89.1191C53.2607 88.6797 52.9502 88.3193 52.5518 88.0381C52.1533 87.7568 51.6816 87.5488 51.1367 87.4141C50.5918 87.2734 50.0088 87.2031 49.3877 87.2031H45.292V100ZM47.4189 94.2168H49.8447C50.1904 94.2227 50.498 94.2754 50.7676 94.375C51.0371 94.4688 51.2656 94.6035 51.4531 94.7793C51.6406 94.9551 51.7812 95.1689 51.875 95.4209C51.9688 95.667 52.0156 95.9512 52.0156 96.2734C52.0156 96.5781 51.957 96.8564 51.8398 97.1084C51.7285 97.3545 51.5674 97.5625 51.3564 97.7324C51.1631 97.8965 50.9287 98.0254 50.6533 98.1191C50.3779 98.2129 50.0732 98.2598 49.7393 98.2598H47.4189V94.2168ZM47.4189 92.6084V88.9521H49.4141C49.7773 88.958 50.1084 89.002 50.4072 89.084C50.7061 89.1602 50.9551 89.2861 51.1543 89.4619C51.3301 89.6025 51.4648 89.7842 51.5586 90.0068C51.6582 90.2236 51.708 90.4814 51.708 90.7803C51.708 91.0615 51.6553 91.3105 51.5498 91.5273C51.4443 91.7441 51.3008 91.9287 51.1191 92.0811C50.9199 92.251 50.6738 92.3799 50.3809 92.4678C50.0938 92.5557 49.7773 92.6025 49.4316 92.6084H47.4189ZM62.4043 100H64.3115V90.4902H62.2021V97.2227C62.1201 97.3984 62.0205 97.5596 61.9033 97.7061C61.7861 97.8467 61.6514 97.9697 61.499 98.0752C61.3174 98.1924 61.1064 98.2861 60.8662 98.3564C60.626 98.4209 60.3535 98.4531 60.0488 98.4531C59.7559 98.4531 59.501 98.415 59.2842 98.3389C59.0674 98.2627 58.8887 98.1338 58.748 97.9521C58.6074 97.7764 58.5049 97.542 58.4404 97.249C58.376 96.9502 58.3438 96.5811 58.3438 96.1416V90.4902H56.2432V96.124C56.2432 96.8389 56.3223 97.4541 56.4805 97.9697C56.6387 98.4795 56.8613 98.8984 57.1484 99.2266C57.4414 99.5547 57.79 99.7979 58.1943 99.9561C58.6045 100.108 59.0557 100.185 59.5479 100.185C60.1221 100.185 60.6406 100.053 61.1035 99.7891C61.5664 99.5195 61.959 99.1475 62.2812 98.6729L62.4043 100ZM73.1973 97.4248C73.1973 97.5771 73.1621 97.7178 73.0918 97.8467C73.0273 97.9697 72.9277 98.084 72.793 98.1895C72.6289 98.3184 72.4092 98.4209 72.1338 98.4971C71.8643 98.5732 71.5479 98.6113 71.1846 98.6113C70.915 98.6113 70.6484 98.585 70.3848 98.5322C70.1211 98.4736 69.8867 98.3799 69.6816 98.251C69.4707 98.1279 69.2949 97.9668 69.1543 97.7676C69.0195 97.5625 68.9434 97.3135 68.9258 97.0205H66.8867C66.8867 97.4131 66.9805 97.7998 67.168 98.1807C67.3555 98.5615 67.6309 98.8984 67.9941 99.1914C68.3516 99.4902 68.7939 99.7305 69.3213 99.9121C69.8545 100.094 70.4639 100.185 71.1494 100.185C71.7646 100.185 72.3242 100.114 72.8281 99.9736C73.332 99.833 73.7656 99.6367 74.1289 99.3848C74.4863 99.1328 74.7617 98.8311 74.9551 98.4795C75.1543 98.1279 75.2539 97.7412 75.2539 97.3193C75.2539 96.8857 75.1602 96.5107 74.9727 96.1943C74.7852 95.8779 74.5215 95.6025 74.1816 95.3682C73.8418 95.1455 73.4316 94.958 72.9512 94.8057C72.4707 94.6533 71.9404 94.5244 71.3604 94.4189C70.9443 94.3486 70.5986 94.2695 70.3232 94.1816C70.0537 94.0938 69.8428 93.9971 69.6904 93.8916C69.5264 93.792 69.4121 93.6777 69.3477 93.5488C69.2832 93.4141 69.251 93.2646 69.251 93.1006C69.251 92.9424 69.2891 92.793 69.3652 92.6523C69.4414 92.5059 69.5557 92.3799 69.708 92.2744C69.8604 92.1572 70.0537 92.0664 70.2881 92.002C70.5283 91.9316 70.8066 91.8965 71.123 91.8965C71.4688 91.8965 71.7705 91.9434 72.0283 92.0371C72.2861 92.125 72.4971 92.2451 72.6611 92.3975C72.8018 92.5264 72.9072 92.6729 72.9775 92.8369C73.0537 92.9951 73.0918 93.1621 73.0918 93.3379H75.1924C75.1924 92.9102 75.0986 92.5117 74.9111 92.1426C74.7236 91.7734 74.457 91.4541 74.1113 91.1846C73.7598 90.915 73.332 90.7041 72.8281 90.5518C72.3242 90.3936 71.7559 90.3145 71.123 90.3145C70.5312 90.3145 69.9922 90.3906 69.5059 90.543C69.0254 90.6953 68.6152 90.9033 68.2754 91.167C67.9297 91.4307 67.6631 91.7383 67.4756 92.0898C67.2939 92.4355 67.2031 92.8018 67.2031 93.1885C67.2031 93.5928 67.2939 93.9473 67.4756 94.252C67.6572 94.5566 67.9092 94.8203 68.2314 95.043C68.5596 95.2773 68.9492 95.4766 69.4004 95.6406C69.8574 95.8047 70.3613 95.9424 70.9121 96.0537C71.3516 96.1357 71.7178 96.2236 72.0107 96.3174C72.3037 96.4111 72.541 96.5107 72.7227 96.6162C72.8926 96.7334 73.0127 96.8564 73.083 96.9854C73.1592 97.1143 73.1973 97.2607 73.1973 97.4248ZM78.2773 90.4902V92.2393H81.2041V98.2598H78.2773V100H86.1172V98.2598H83.3223V90.4902H78.2773ZM81.0107 88.0293C81.0107 88.252 81.0635 88.4482 81.1689 88.6182C81.2803 88.7822 81.4414 88.8965 81.6523 88.9609C81.8574 89.0254 82.0449 89.04 82.2148 89.0049C82.3848 88.9697 82.5312 88.8965 82.6543 88.7852C82.9004 88.7207 83.0879 88.5947 83.2168 88.4072C83.3457 88.2139 83.3896 87.9883 83.3486 87.7305C83.3193 87.4785 83.2051 87.2734 83.0059 87.1152C82.8125 86.9512 82.5576 86.8691 82.2412 86.8691C82.0537 86.8691 81.8838 86.8984 81.7314 86.957C81.585 87.0098 81.459 87.0859 81.3535 87.1855C81.2422 87.291 81.1572 87.417 81.0986 87.5635C81.04 87.7041 81.0107 87.8594 81.0107 88.0293ZM88.6045 100H90.7051V93.2148C90.7988 93.0566 90.9072 92.9102 91.0303 92.7754C91.1533 92.6406 91.2852 92.5264 91.4258 92.4326C91.6074 92.3096 91.8096 92.2158 92.0322 92.1514C92.2549 92.0811 92.4951 92.0459 92.7529 92.0459C93.0635 92.0459 93.3389 92.0811 93.5791 92.1514C93.8193 92.2158 94.0244 92.3271 94.1943 92.4854C94.3643 92.6436 94.4932 92.8545 94.5811 93.1182C94.6689 93.3818 94.7129 93.71 94.7129 94.1025V100H96.8135V94.0674C96.8135 93.3994 96.7344 92.8311 96.5762 92.3623C96.418 91.8877 96.1953 91.498 95.9082 91.1934C95.6211 90.8887 95.2754 90.666 94.8711 90.5254C94.4668 90.3848 94.0215 90.3145 93.5352 90.3145C93.166 90.3145 92.8145 90.3672 92.4805 90.4727C92.1465 90.5781 91.8389 90.7275 91.5576 90.9209C91.3818 91.0439 91.2148 91.1846 91.0566 91.3428C90.9043 91.4951 90.7637 91.6621 90.6348 91.8438L90.5029 90.4902H88.6045V100ZM99.415 100H101.516V93.2148C101.609 93.0566 101.718 92.9102 101.841 92.7754C101.964 92.6406 102.096 92.5264 102.236 92.4326C102.418 92.3096 102.62 92.2158 102.843 92.1514C103.065 92.0811 103.306 92.0459 103.563 92.0459C103.874 92.0459 104.149 92.0811 104.39 92.1514C104.63 92.2158 104.835 92.3271 105.005 92.4854C105.175 92.6436 105.304 92.8545 105.392 93.1182C105.479 93.3818 105.523 93.71 105.523 94.1025V100H107.624V94.0674C107.624 93.3994 107.545 92.8311 107.387 92.3623C107.229 91.8877 107.006 91.498 106.719 91.1934C106.432 90.8887 106.086 90.666 105.682 90.5254C105.277 90.3848 104.832 90.3145 104.346 90.3145C103.977 90.3145 103.625 90.3672 103.291 90.4727C102.957 90.5781 102.649 90.7275 102.368 90.9209C102.192 91.0439 102.025 91.1846 101.867 91.3428C101.715 91.4951 101.574 91.6621 101.445 91.8438L101.313 90.4902H99.415V100ZM114.664 100.176C115.59 100.176 116.378 99.9941 117.028 99.6309C117.685 99.2676 118.171 98.8574 118.487 98.4004L117.362 97.3105C117.069 97.6855 116.697 97.9756 116.246 98.1807C115.795 98.3799 115.309 98.4795 114.787 98.4795C114.406 98.4795 114.055 98.415 113.732 98.2861C113.416 98.1572 113.141 97.9756 112.906 97.7412C112.672 97.5186 112.487 97.2666 112.353 96.9854C112.218 96.7041 112.118 96.3555 112.054 95.9395V95.8955H118.646V94.9902C118.646 94.3105 118.555 93.6836 118.373 93.1094C118.191 92.5352 117.922 92.04 117.564 91.624C117.207 91.2139 116.765 90.8945 116.237 90.666C115.71 90.4316 115.104 90.3145 114.418 90.3145C113.803 90.3145 113.223 90.4316 112.678 90.666C112.139 90.8945 111.664 91.2227 111.254 91.6504C110.844 92.0781 110.521 92.5938 110.287 93.1973C110.053 93.8008 109.936 94.4746 109.936 95.2188V95.5791C109.936 96.2295 110.047 96.8359 110.27 97.3984C110.498 97.9551 110.82 98.4385 111.236 98.8486C111.652 99.2646 112.15 99.5898 112.73 99.8242C113.316 100.059 113.961 100.176 114.664 100.176ZM114.409 92.0195C114.761 92.0195 115.068 92.0811 115.332 92.2041C115.602 92.3213 115.824 92.4795 116 92.6787C116.182 92.8838 116.322 93.124 116.422 93.3994C116.521 93.6689 116.571 93.9414 116.571 94.2168V94.3574H112.098C112.162 93.9941 112.262 93.6689 112.396 93.3818C112.531 93.0947 112.698 92.8486 112.897 92.6436C113.097 92.4443 113.322 92.292 113.574 92.1865C113.832 92.0752 114.11 92.0195 114.409 92.0195ZM127.25 97.4248C127.25 97.5771 127.215 97.7178 127.145 97.8467C127.08 97.9697 126.98 98.084 126.846 98.1895C126.682 98.3184 126.462 98.4209 126.187 98.4971C125.917 98.5732 125.601 98.6113 125.237 98.6113C124.968 98.6113 124.701 98.585 124.438 98.5322C124.174 98.4736 123.939 98.3799 123.734 98.251C123.523 98.1279 123.348 97.9668 123.207 97.7676C123.072 97.5625 122.996 97.3135 122.979 97.0205H120.939C120.939 97.4131 121.033 97.7998 121.221 98.1807C121.408 98.5615 121.684 98.8984 122.047 99.1914C122.404 99.4902 122.847 99.7305 123.374 99.9121C123.907 100.094 124.517 100.185 125.202 100.185C125.817 100.185 126.377 100.114 126.881 99.9736C127.385 99.833 127.818 99.6367 128.182 99.3848C128.539 99.1328 128.814 98.8311 129.008 98.4795C129.207 98.1279 129.307 97.7412 129.307 97.3193C129.307 96.8857 129.213 96.5107 129.025 96.1943C128.838 95.8779 128.574 95.6025 128.234 95.3682C127.895 95.1455 127.484 94.958 127.004 94.8057C126.523 94.6533 125.993 94.5244 125.413 94.4189C124.997 94.3486 124.651 94.2695 124.376 94.1816C124.106 94.0938 123.896 93.9971 123.743 93.8916C123.579 93.792 123.465 93.6777 123.4 93.5488C123.336 93.4141 123.304 93.2646 123.304 93.1006C123.304 92.9424 123.342 92.793 123.418 92.6523C123.494 92.5059 123.608 92.3799 123.761 92.2744C123.913 92.1572 124.106 92.0664 124.341 92.002C124.581 91.9316 124.859 91.8965 125.176 91.8965C125.521 91.8965 125.823 91.9434 126.081 92.0371C126.339 92.125 126.55 92.2451 126.714 92.3975C126.854 92.5264 126.96 92.6729 127.03 92.8369C127.106 92.9951 127.145 93.1621 127.145 93.3379H129.245C129.245 92.9102 129.151 92.5117 128.964 92.1426C128.776 91.7734 128.51 91.4541 128.164 91.1846C127.812 90.915 127.385 90.7041 126.881 90.5518C126.377 90.3936 125.809 90.3145 125.176 90.3145C124.584 90.3145 124.045 90.3906 123.559 90.543C123.078 90.6953 122.668 90.9033 122.328 91.167C121.982 91.4307 121.716 91.7383 121.528 92.0898C121.347 92.4355 121.256 92.8018 121.256 93.1885C121.256 93.5928 121.347 93.9473 121.528 94.252C121.71 94.5566 121.962 94.8203 122.284 95.043C122.612 95.2773 123.002 95.4766 123.453 95.6406C123.91 95.8047 124.414 95.9424 124.965 96.0537C125.404 96.1357 125.771 96.2236 126.063 96.3174C126.356 96.4111 126.594 96.5107 126.775 96.6162C126.945 96.7334 127.065 96.8564 127.136 96.9854C127.212 97.1143 127.25 97.2607 127.25 97.4248ZM142.921 87.2031V88.9521H145.593V98.2598H142.921V100H150.462V98.2598H147.729V88.9521H150.462V87.2031H142.921ZM153.468 100H155.568V93.2148C155.662 93.0566 155.771 92.9102 155.894 92.7754C156.017 92.6406 156.148 92.5264 156.289 92.4326C156.471 92.3096 156.673 92.2158 156.896 92.1514C157.118 92.0811 157.358 92.0459 157.616 92.0459C157.927 92.0459 158.202 92.0811 158.442 92.1514C158.683 92.2158 158.888 92.3271 159.058 92.4854C159.228 92.6436 159.356 92.8545 159.444 93.1182C159.532 93.3818 159.576 93.71 159.576 94.1025V100H161.677V94.0674C161.677 93.3994 161.598 92.8311 161.439 92.3623C161.281 91.8877 161.059 91.498 160.771 91.1934C160.484 90.8887 160.139 90.666 159.734 90.5254C159.33 90.3848 158.885 90.3145 158.398 90.3145C158.029 90.3145 157.678 90.3672 157.344 90.4727C157.01 90.5781 156.702 90.7275 156.421 90.9209C156.245 91.0439 156.078 91.1846 155.92 91.3428C155.768 91.4951 155.627 91.6621 155.498 91.8438L155.366 90.4902H153.468V100ZM168.497 88.1699H166.388V90.4902H164.085V92.0635H166.388V96.7393C166.388 97.3486 166.467 97.8701 166.625 98.3037C166.789 98.7373 167.015 99.0918 167.302 99.3672C167.589 99.6484 167.932 99.8564 168.33 99.9912C168.734 100.12 169.177 100.185 169.657 100.185C169.921 100.185 170.185 100.17 170.448 100.141C170.718 100.117 170.976 100.082 171.222 100.035C171.468 99.9883 171.696 99.9326 171.907 99.8682C172.124 99.7979 172.309 99.7158 172.461 99.6221L172.232 98.1719C172.127 98.1953 171.995 98.2246 171.837 98.2598C171.685 98.2891 171.521 98.3154 171.345 98.3389C171.163 98.3682 170.976 98.3916 170.782 98.4092C170.589 98.4268 170.401 98.4355 170.22 98.4355C169.968 98.4355 169.736 98.4062 169.525 98.3477C169.314 98.2891 169.133 98.1895 168.98 98.0488C168.828 97.9141 168.708 97.7295 168.62 97.4951C168.538 97.2549 168.497 96.959 168.497 96.6074V92.0635H172.074V90.4902H168.497V88.1699ZM179.527 100.176C180.453 100.176 181.241 99.9941 181.892 99.6309C182.548 99.2676 183.034 98.8574 183.351 98.4004L182.226 97.3105C181.933 97.6855 181.561 97.9756 181.109 98.1807C180.658 98.3799 180.172 98.4795 179.65 98.4795C179.27 98.4795 178.918 98.415 178.596 98.2861C178.279 98.1572 178.004 97.9756 177.77 97.7412C177.535 97.5186 177.351 97.2666 177.216 96.9854C177.081 96.7041 176.981 96.3555 176.917 95.9395V95.8955H183.509V94.9902C183.509 94.3105 183.418 93.6836 183.236 93.1094C183.055 92.5352 182.785 92.04 182.428 91.624C182.07 91.2139 181.628 90.8945 181.101 90.666C180.573 90.4316 179.967 90.3145 179.281 90.3145C178.666 90.3145 178.086 90.4316 177.541 90.666C177.002 90.8945 176.527 91.2227 176.117 91.6504C175.707 92.0781 175.385 92.5938 175.15 93.1973C174.916 93.8008 174.799 94.4746 174.799 95.2188V95.5791C174.799 96.2295 174.91 96.8359 175.133 97.3984C175.361 97.9551 175.684 98.4385 176.1 98.8486C176.516 99.2646 177.014 99.5898 177.594 99.8242C178.18 100.059 178.824 100.176 179.527 100.176ZM179.272 92.0195C179.624 92.0195 179.932 92.0811 180.195 92.2041C180.465 92.3213 180.688 92.4795 180.863 92.6787C181.045 92.8838 181.186 93.124 181.285 93.3994C181.385 93.6689 181.435 93.9414 181.435 94.2168V94.3574H176.961C177.025 93.9941 177.125 93.6689 177.26 93.3818C177.395 93.0947 177.562 92.8486 177.761 92.6436C177.96 92.4443 178.186 92.292 178.438 92.1865C178.695 92.0752 178.974 92.0195 179.272 92.0195ZM186.304 86.5V88.249H189.31V98.2598H186.304V100H194.311V98.2598H191.428V86.5H186.304ZM197.114 86.5V88.249H200.12V98.2598H197.114V100H205.121V98.2598H202.238V86.5H197.114ZM208.004 90.4902V92.2393H210.931V98.2598H208.004V100H215.844V98.2598H213.049V90.4902H208.004ZM210.737 88.0293C210.737 88.252 210.79 88.4482 210.896 88.6182C211.007 88.7822 211.168 88.8965 211.379 88.9609C211.584 89.0254 211.771 89.04 211.941 89.0049C212.111 88.9697 212.258 88.8965 212.381 88.7852C212.627 88.7207 212.814 88.5947 212.943 88.4072C213.072 88.2139 213.116 87.9883 213.075 87.7305C213.046 87.4785 212.932 87.2734 212.732 87.1152C212.539 86.9512 212.284 86.8691 211.968 86.8691C211.78 86.8691 211.61 86.8984 211.458 86.957C211.312 87.0098 211.186 87.0859 211.08 87.1855C210.969 87.291 210.884 87.417 210.825 87.5635C210.767 87.7041 210.737 87.8594 210.737 88.0293ZM218.059 95.1748V95.3594C218.059 96.0449 218.146 96.6836 218.322 97.2754C218.504 97.8613 218.759 98.3682 219.087 98.7959C219.421 99.2295 219.822 99.5693 220.291 99.8154C220.76 100.056 221.287 100.176 221.873 100.176C222.195 100.176 222.494 100.141 222.77 100.07C223.045 100.006 223.297 99.9092 223.525 99.7803C223.678 99.6982 223.818 99.6016 223.947 99.4902C224.082 99.3789 224.211 99.2588 224.334 99.1299V99.7891C224.334 100.146 224.281 100.466 224.176 100.747C224.076 101.028 223.933 101.266 223.745 101.459C223.54 101.658 223.291 101.811 222.998 101.916C222.711 102.021 222.38 102.074 222.005 102.074C221.788 102.074 221.574 102.051 221.363 102.004C221.152 101.963 220.944 101.896 220.739 101.802C220.534 101.708 220.332 101.585 220.133 101.433C219.939 101.286 219.758 101.11 219.588 100.905L218.595 102.18C218.806 102.461 219.058 102.701 219.351 102.9C219.644 103.1 219.951 103.261 220.273 103.384C220.596 103.507 220.918 103.598 221.24 103.656C221.562 103.715 221.858 103.744 222.128 103.744C222.767 103.744 223.35 103.653 223.877 103.472C224.41 103.296 224.867 103.038 225.248 102.698C225.623 102.353 225.913 101.931 226.118 101.433C226.329 100.94 226.435 100.375 226.435 99.7363V90.4902H224.527L224.439 91.4482C224.322 91.3076 224.196 91.1787 224.062 91.0615C223.927 90.9385 223.783 90.833 223.631 90.7451C223.396 90.6045 223.136 90.499 222.849 90.4287C222.562 90.3525 222.242 90.3145 221.891 90.3145C221.299 90.3145 220.766 90.4346 220.291 90.6748C219.822 90.9092 219.421 91.2402 219.087 91.668C218.753 92.0957 218.498 92.6084 218.322 93.2061C218.146 93.7979 218.059 94.4541 218.059 95.1748ZM220.168 95.3594V95.1748C220.168 94.7471 220.212 94.3457 220.3 93.9707C220.388 93.5898 220.525 93.2559 220.713 92.9688C220.895 92.6816 221.126 92.4561 221.407 92.292C221.688 92.1279 222.025 92.0459 222.418 92.0459C222.641 92.0459 222.846 92.0723 223.033 92.125C223.221 92.1719 223.391 92.2363 223.543 92.3184C223.713 92.418 223.862 92.5381 223.991 92.6787C224.126 92.8193 224.24 92.9775 224.334 93.1533V97.3193C224.24 97.4893 224.132 97.6445 224.009 97.7852C223.886 97.9258 223.745 98.0459 223.587 98.1455C223.429 98.2393 223.25 98.3125 223.051 98.3652C222.857 98.418 222.641 98.4443 222.4 98.4443C222.014 98.4443 221.68 98.3652 221.398 98.207C221.117 98.043 220.886 97.8174 220.704 97.5303C220.517 97.2549 220.379 96.9297 220.291 96.5547C220.209 96.1797 220.168 95.7812 220.168 95.3594ZM233.58 100.176C234.506 100.176 235.294 99.9941 235.944 99.6309C236.601 99.2676 237.087 98.8574 237.403 98.4004L236.278 97.3105C235.985 97.6855 235.613 97.9756 235.162 98.1807C234.711 98.3799 234.225 98.4795 233.703 98.4795C233.322 98.4795 232.971 98.415 232.648 98.2861C232.332 98.1572 232.057 97.9756 231.822 97.7412C231.588 97.5186 231.403 97.2666 231.269 96.9854C231.134 96.7041 231.034 96.3555 230.97 95.9395V95.8955H237.562V94.9902C237.562 94.3105 237.471 93.6836 237.289 93.1094C237.107 92.5352 236.838 92.04 236.48 91.624C236.123 91.2139 235.681 90.8945 235.153 90.666C234.626 90.4316 234.02 90.3145 233.334 90.3145C232.719 90.3145 232.139 90.4316 231.594 90.666C231.055 90.8945 230.58 91.2227 230.17 91.6504C229.76 92.0781 229.438 92.5938 229.203 93.1973C228.969 93.8008 228.852 94.4746 228.852 95.2188V95.5791C228.852 96.2295 228.963 96.8359 229.186 97.3984C229.414 97.9551 229.736 98.4385 230.152 98.8486C230.568 99.2646 231.066 99.5898 231.646 99.8242C232.232 100.059 232.877 100.176 233.58 100.176ZM233.325 92.0195C233.677 92.0195 233.984 92.0811 234.248 92.2041C234.518 92.3213 234.74 92.4795 234.916 92.6787C235.098 92.8838 235.238 93.124 235.338 93.3994C235.438 93.6689 235.487 93.9414 235.487 94.2168V94.3574H231.014C231.078 93.9941 231.178 93.6689 231.312 93.3818C231.447 93.0947 231.614 92.8486 231.813 92.6436C232.013 92.4443 232.238 92.292 232.49 92.1865C232.748 92.0752 233.026 92.0195 233.325 92.0195ZM239.952 100H242.053V93.2148C242.146 93.0566 242.255 92.9102 242.378 92.7754C242.501 92.6406 242.633 92.5264 242.773 92.4326C242.955 92.3096 243.157 92.2158 243.38 92.1514C243.603 92.0811 243.843 92.0459 244.101 92.0459C244.411 92.0459 244.687 92.0811 244.927 92.1514C245.167 92.2158 245.372 92.3271 245.542 92.4854C245.712 92.6436 245.841 92.8545 245.929 93.1182C246.017 93.3818 246.061 93.71 246.061 94.1025V100H248.161V94.0674C248.161 93.3994 248.082 92.8311 247.924 92.3623C247.766 91.8877 247.543 91.498 247.256 91.1934C246.969 90.8887 246.623 90.666 246.219 90.5254C245.814 90.3848 245.369 90.3145 244.883 90.3145C244.514 90.3145 244.162 90.3672 243.828 90.4727C243.494 90.5781 243.187 90.7275 242.905 90.9209C242.729 91.0439 242.562 91.1846 242.404 91.3428C242.252 91.4951 242.111 91.6621 241.982 91.8438L241.851 90.4902H239.952V100ZM254.902 98.4883C254.463 98.4883 254.097 98.4004 253.804 98.2246C253.511 98.0488 253.279 97.8145 253.109 97.5215C252.934 97.2402 252.808 96.915 252.731 96.5459C252.661 96.1709 252.626 95.79 252.626 95.4033V95.0957C252.626 94.7148 252.661 94.3398 252.731 93.9707C252.808 93.6016 252.937 93.2734 253.118 92.9863C253.288 92.6992 253.517 92.4678 253.804 92.292C254.097 92.1104 254.463 92.0195 254.902 92.0195C255.189 92.0195 255.456 92.0693 255.702 92.1689C255.954 92.2686 256.171 92.4033 256.353 92.5732C256.528 92.7432 256.663 92.9424 256.757 93.1709C256.856 93.3994 256.906 93.6426 256.906 93.9004H258.884C258.89 93.373 258.793 92.8896 258.594 92.4502C258.4 92.0107 258.128 91.6328 257.776 91.3164C257.425 91 257.003 90.7539 256.511 90.5781C256.024 90.4023 255.494 90.3145 254.92 90.3145C254.193 90.3145 253.555 90.4434 253.004 90.7012C252.459 90.9531 252.002 91.2959 251.633 91.7295C251.264 92.1631 250.985 92.6699 250.798 93.25C250.616 93.8301 250.525 94.4453 250.525 95.0957V95.4033C250.525 96.0596 250.619 96.6777 250.807 97.2578C250.994 97.832 251.272 98.3359 251.642 98.7695C252.005 99.2031 252.459 99.5488 253.004 99.8066C253.555 100.059 254.196 100.185 254.929 100.185C255.456 100.185 255.957 100.1 256.432 99.9297C256.912 99.7539 257.337 99.5137 257.706 99.209C258.069 98.916 258.356 98.5674 258.567 98.1631C258.784 97.7529 258.89 97.3164 258.884 96.8535H256.906C256.906 97.0938 256.851 97.3135 256.739 97.5127C256.634 97.7119 256.49 97.8848 256.309 98.0312C256.121 98.1777 255.904 98.292 255.658 98.374C255.418 98.4502 255.166 98.4883 254.902 98.4883ZM266.012 100.176C266.938 100.176 267.726 99.9941 268.376 99.6309C269.032 99.2676 269.519 98.8574 269.835 98.4004L268.71 97.3105C268.417 97.6855 268.045 97.9756 267.594 98.1807C267.143 98.3799 266.656 98.4795 266.135 98.4795C265.754 98.4795 265.402 98.415 265.08 98.2861C264.764 98.1572 264.488 97.9756 264.254 97.7412C264.02 97.5186 263.835 97.2666 263.7 96.9854C263.565 96.7041 263.466 96.3555 263.401 95.9395V95.8955H269.993V94.9902C269.993 94.3105 269.902 93.6836 269.721 93.1094C269.539 92.5352 269.27 92.04 268.912 91.624C268.555 91.2139 268.112 90.8945 267.585 90.666C267.058 90.4316 266.451 90.3145 265.766 90.3145C265.15 90.3145 264.57 90.4316 264.025 90.666C263.486 90.8945 263.012 91.2227 262.602 91.6504C262.191 92.0781 261.869 92.5938 261.635 93.1973C261.4 93.8008 261.283 94.4746 261.283 95.2188V95.5791C261.283 96.2295 261.395 96.8359 261.617 97.3984C261.846 97.9551 262.168 98.4385 262.584 98.8486C263 99.2646 263.498 99.5898 264.078 99.8242C264.664 100.059 265.309 100.176 266.012 100.176ZM265.757 92.0195C266.108 92.0195 266.416 92.0811 266.68 92.2041C266.949 92.3213 267.172 92.4795 267.348 92.6787C267.529 92.8838 267.67 93.124 267.77 93.3994C267.869 93.6689 267.919 93.9414 267.919 94.2168V94.3574H263.445C263.51 93.9941 263.609 93.6689 263.744 93.3818C263.879 93.0947 264.046 92.8486 264.245 92.6436C264.444 92.4443 264.67 92.292 264.922 92.1865C265.18 92.0752 265.458 92.0195 265.757 92.0195Z" fill="#F7D747"/>
<path d="M63.6406 115.07H65.2959C65.6051 115.067 65.8949 115.018 66.165 114.924C66.4385 114.829 66.6761 114.693 66.8779 114.514C67.083 114.338 67.2441 114.123 67.3613 113.869C67.4785 113.612 67.5371 113.321 67.5371 112.995C67.5371 112.666 67.4785 112.373 67.3613 112.116C67.2441 111.859 67.0846 111.641 66.8828 111.462C66.681 111.283 66.4434 111.145 66.1699 111.047C65.8965 110.949 65.6051 110.897 65.2959 110.891H63.0596V118H63.6406V115.07ZM63.6406 114.572V111.394H65.2959C65.5303 111.397 65.7484 111.438 65.9502 111.516C66.1553 111.59 66.3327 111.698 66.4824 111.838C66.6289 111.978 66.7445 112.147 66.8291 112.346C66.9137 112.541 66.9561 112.761 66.9561 113.005C66.9561 113.249 66.9121 113.467 66.8242 113.659C66.7396 113.848 66.6224 114.009 66.4727 114.143C66.3229 114.279 66.1471 114.385 65.9453 114.46C65.7435 114.532 65.527 114.569 65.2959 114.572H63.6406ZM68.6504 115.28V115.441C68.6504 115.799 68.7041 116.14 68.8115 116.462C68.9189 116.784 69.0752 117.066 69.2803 117.307C69.4788 117.551 69.7246 117.744 70.0176 117.888C70.3105 118.028 70.6426 118.098 71.0137 118.098C71.3815 118.098 71.7103 118.026 72 117.883C72.2897 117.74 72.5355 117.548 72.7373 117.307C72.9391 117.062 73.0921 116.781 73.1963 116.462C73.3037 116.14 73.359 115.799 73.3623 115.441V115.28C73.359 114.922 73.3037 114.582 73.1963 114.26C73.0889 113.938 72.9359 113.654 72.7373 113.41C72.5322 113.169 72.2832 112.977 71.9902 112.834C71.7005 112.691 71.3717 112.619 71.0039 112.619C70.6328 112.619 70.3024 112.691 70.0127 112.834C69.723 112.977 69.4772 113.171 69.2754 113.415C69.0736 113.656 68.9189 113.938 68.8115 114.26C68.7041 114.582 68.6504 114.922 68.6504 115.28ZM69.2314 115.441V115.28C69.2314 115.004 69.2705 114.735 69.3486 114.475C69.4268 114.214 69.5407 113.985 69.6904 113.786C69.8402 113.584 70.0241 113.423 70.2422 113.303C70.4603 113.182 70.7142 113.122 71.0039 113.122C71.2904 113.122 71.5426 113.182 71.7607 113.303C71.9821 113.423 72.1693 113.584 72.3223 113.786C72.4688 113.985 72.5811 114.214 72.6592 114.475C72.7373 114.735 72.778 115.004 72.7812 115.28V115.441C72.778 115.721 72.7373 115.992 72.6592 116.252C72.5843 116.509 72.4736 116.739 72.3271 116.94C72.1742 117.142 71.9886 117.303 71.7705 117.424C71.5524 117.541 71.3001 117.6 71.0137 117.6C70.724 117.6 70.4684 117.541 70.2471 117.424C70.0257 117.303 69.8402 117.142 69.6904 116.94C69.5407 116.742 69.4268 116.512 69.3486 116.252C69.2705 115.992 69.2314 115.721 69.2314 115.441ZM75.4863 118H75.96L76.8828 114.396L77.0439 113.566L77.1953 114.396L78.1279 118H78.6016L79.7734 112.717H79.2363L78.5137 116.281L78.3428 117.214L78.1426 116.281L77.249 112.717H76.8389L75.9453 116.281L75.75 117.18L75.5938 116.281L74.8564 112.717H74.3193L75.4863 118ZM83.2158 118.098C83.6553 118.098 84.041 118.011 84.373 117.839C84.7051 117.666 84.9704 117.44 85.1689 117.16L84.8027 116.882C84.6139 117.116 84.3877 117.295 84.124 117.419C83.8604 117.543 83.5658 117.603 83.2402 117.6C82.957 117.6 82.6982 117.544 82.4639 117.434C82.2327 117.32 82.0358 117.168 81.873 116.979C81.707 116.794 81.5785 116.581 81.4873 116.34C81.3962 116.099 81.3441 115.839 81.3311 115.559V115.397H85.2861V115.041C85.2829 114.706 85.234 114.392 85.1396 114.099C85.0452 113.802 84.9053 113.544 84.7197 113.322C84.5342 113.104 84.3063 112.933 84.0361 112.81C83.766 112.683 83.4567 112.619 83.1084 112.619C82.7764 112.619 82.4671 112.689 82.1807 112.829C81.8942 112.966 81.6468 113.153 81.4385 113.391C81.2236 113.632 81.0544 113.916 80.9307 114.245C80.8102 114.571 80.75 114.921 80.75 115.295V115.505C80.75 115.86 80.8102 116.195 80.9307 116.511C81.0511 116.823 81.2204 117.098 81.4385 117.336C81.6533 117.57 81.9121 117.756 82.2148 117.893C82.5176 118.029 82.8512 118.098 83.2158 118.098ZM83.1084 113.122C83.359 113.122 83.582 113.171 83.7773 113.269C83.9727 113.363 84.1387 113.49 84.2754 113.649C84.4089 113.809 84.513 113.994 84.5879 114.206C84.666 114.418 84.7051 114.631 84.7051 114.846V114.899H81.3555C81.3913 114.646 81.458 114.41 81.5557 114.191C81.6533 113.973 81.777 113.785 81.9268 113.625C82.0765 113.469 82.2507 113.347 82.4492 113.259C82.6478 113.168 82.8675 113.122 83.1084 113.122ZM90.4619 112.619C89.9834 112.616 89.5667 112.717 89.2119 112.922C88.8571 113.124 88.5771 113.405 88.3721 113.767V113.532L88.3379 112.717H87.7812V118H88.3818L88.377 114.621C88.4421 114.377 88.5348 114.167 88.6553 113.991C88.779 113.812 88.9238 113.664 89.0898 113.547C89.2624 113.426 89.4561 113.339 89.6709 113.283C89.889 113.225 90.1217 113.195 90.3691 113.195C90.5124 113.195 90.6523 113.203 90.7891 113.22C90.9258 113.236 91.0609 113.259 91.1943 113.288L91.2725 112.722C91.1715 112.689 91.0462 112.665 90.8965 112.648C90.75 112.629 90.6051 112.619 90.4619 112.619ZM98.9873 118H101.224C101.517 117.993 101.797 117.945 102.063 117.854C102.334 117.762 102.571 117.631 102.776 117.458C102.978 117.289 103.139 117.082 103.26 116.838C103.38 116.594 103.439 116.314 103.436 115.998C103.436 115.78 103.4 115.578 103.328 115.393C103.257 115.207 103.159 115.039 103.035 114.89C102.915 114.75 102.767 114.628 102.591 114.523C102.418 114.416 102.234 114.34 102.039 114.294V114.274C102.215 114.203 102.369 114.123 102.503 114.035C102.64 113.947 102.76 113.84 102.864 113.713C102.965 113.589 103.043 113.448 103.099 113.288C103.157 113.125 103.187 112.945 103.187 112.746C103.19 112.424 103.128 112.147 103.001 111.916C102.874 111.682 102.705 111.49 102.493 111.34C102.282 111.19 102.039 111.079 101.766 111.008C101.492 110.933 101.212 110.894 100.926 110.891H98.9873V118ZM99.5684 114.582H101.282C101.491 114.589 101.689 114.624 101.878 114.689C102.067 114.755 102.234 114.846 102.381 114.963C102.524 115.087 102.638 115.236 102.723 115.412C102.807 115.585 102.85 115.783 102.85 116.008C102.85 116.236 102.806 116.441 102.718 116.623C102.633 116.805 102.516 116.958 102.366 117.082C102.22 117.209 102.049 117.308 101.854 117.38C101.658 117.448 101.451 117.484 101.233 117.487H99.5684V114.582ZM99.5684 114.074V111.408H100.94C101.149 111.411 101.352 111.439 101.551 111.491C101.753 111.54 101.932 111.617 102.088 111.721C102.244 111.828 102.368 111.965 102.459 112.131C102.553 112.297 102.601 112.499 102.601 112.736C102.601 112.964 102.555 113.161 102.464 113.327C102.376 113.49 102.257 113.627 102.107 113.737C101.958 113.848 101.787 113.931 101.595 113.986C101.403 114.042 101.204 114.071 100.999 114.074H99.5684ZM106.692 117.58C106.692 117.714 106.736 117.827 106.824 117.922C106.912 118.013 107.033 118.059 107.186 118.059C107.339 118.059 107.461 118.013 107.552 117.922C107.643 117.831 107.688 117.717 107.688 117.58C107.688 117.443 107.643 117.328 107.552 117.233C107.461 117.136 107.339 117.087 107.186 117.087C107.033 117.087 106.912 117.136 106.824 117.233C106.736 117.328 106.692 117.443 106.692 117.58ZM110.989 110.891V111.418H112.718V117.478H110.989V118H115.105V117.478H113.323V111.418H115.105V110.891H110.989ZM126.834 115.07V114.567H123.216V115.07H126.834ZM138.904 116.252C138.904 116.483 138.855 116.683 138.758 116.853C138.66 117.019 138.532 117.155 138.372 117.263C138.216 117.373 138.037 117.455 137.835 117.507C137.633 117.559 137.428 117.585 137.22 117.585C136.969 117.585 136.735 117.552 136.517 117.487C136.302 117.419 136.111 117.318 135.945 117.185C135.776 117.051 135.638 116.888 135.53 116.696C135.426 116.501 135.359 116.276 135.33 116.022H134.739C134.752 116.325 134.819 116.599 134.939 116.843C135.06 117.087 135.224 117.297 135.433 117.473C135.664 117.678 135.936 117.834 136.248 117.941C136.564 118.046 136.888 118.098 137.22 118.098C137.5 118.098 137.776 118.06 138.05 117.985C138.323 117.907 138.567 117.79 138.782 117.634C138.997 117.481 139.171 117.289 139.305 117.058C139.441 116.826 139.51 116.555 139.51 116.242C139.51 115.93 139.443 115.658 139.31 115.427C139.179 115.192 139.01 114.994 138.802 114.831C138.584 114.665 138.343 114.527 138.079 114.416C137.819 114.302 137.56 114.206 137.303 114.128C137.114 114.069 136.915 114.003 136.707 113.928C136.499 113.85 136.31 113.754 136.141 113.64C135.968 113.526 135.826 113.387 135.716 113.225C135.605 113.059 135.55 112.857 135.55 112.619C135.55 112.398 135.597 112.206 135.691 112.043C135.789 111.88 135.916 111.743 136.072 111.633C136.225 111.525 136.399 111.446 136.595 111.394C136.79 111.338 136.987 111.311 137.186 111.311C137.423 111.311 137.64 111.348 137.835 111.423C138.034 111.498 138.204 111.604 138.348 111.74C138.494 111.877 138.611 112.041 138.699 112.233C138.787 112.422 138.844 112.632 138.87 112.863H139.461C139.451 112.551 139.384 112.268 139.261 112.014C139.137 111.757 138.971 111.538 138.763 111.359C138.558 111.18 138.318 111.042 138.045 110.944C137.775 110.843 137.488 110.793 137.186 110.793C136.915 110.793 136.647 110.834 136.38 110.915C136.113 110.993 135.874 111.109 135.662 111.262C135.451 111.418 135.278 111.612 135.145 111.843C135.014 112.071 134.949 112.333 134.949 112.629C134.952 112.951 135.024 113.223 135.164 113.444C135.304 113.666 135.485 113.856 135.706 114.016C135.908 114.162 136.134 114.287 136.385 114.392C136.635 114.496 136.88 114.585 137.117 114.66C137.316 114.722 137.521 114.794 137.732 114.875C137.944 114.956 138.138 115.056 138.313 115.173C138.486 115.293 138.628 115.441 138.738 115.617C138.852 115.79 138.908 116.001 138.904 116.252ZM145.579 114.87V114.025C145.576 113.775 145.551 113.521 145.506 113.264C145.464 113.003 145.4 112.753 145.315 112.512C145.224 112.274 145.112 112.051 144.979 111.843C144.845 111.631 144.687 111.447 144.505 111.291C144.319 111.138 144.108 111.018 143.87 110.93C143.636 110.839 143.375 110.793 143.089 110.793C142.799 110.793 142.535 110.839 142.298 110.93C142.063 111.018 141.855 111.138 141.673 111.291C141.487 111.451 141.328 111.634 141.194 111.843C141.061 112.051 140.95 112.276 140.862 112.517C140.774 112.754 140.709 113.003 140.667 113.264C140.625 113.521 140.602 113.775 140.599 114.025V114.87C140.602 115.124 140.625 115.38 140.667 115.637C140.709 115.891 140.776 116.138 140.867 116.379C140.955 116.617 141.066 116.841 141.199 117.053C141.336 117.261 141.497 117.442 141.683 117.595C141.865 117.751 142.073 117.875 142.308 117.966C142.542 118.054 142.804 118.098 143.094 118.098C143.227 118.098 143.354 118.086 143.475 118.063C143.595 118.044 143.711 118.016 143.821 117.98L145.164 119.245L145.564 118.864L144.349 117.712C144.56 117.565 144.743 117.386 144.896 117.175C145.049 116.96 145.175 116.726 145.276 116.472C145.377 116.221 145.452 115.959 145.501 115.686C145.55 115.412 145.576 115.14 145.579 114.87ZM145.003 114.016V114.87C145 115.069 144.983 115.274 144.954 115.485C144.928 115.694 144.884 115.899 144.822 116.101C144.76 116.299 144.681 116.488 144.583 116.667C144.485 116.846 144.367 117.001 144.227 117.131C144.083 117.268 143.919 117.375 143.733 117.453C143.548 117.531 143.335 117.57 143.094 117.57C142.856 117.57 142.643 117.531 142.454 117.453C142.269 117.375 142.106 117.268 141.966 117.131C141.826 116.997 141.705 116.843 141.604 116.667C141.507 116.488 141.427 116.298 141.365 116.096C141.3 115.897 141.253 115.694 141.224 115.485C141.194 115.274 141.178 115.069 141.175 114.87V114.016C141.178 113.817 141.194 113.614 141.224 113.405C141.253 113.197 141.3 112.992 141.365 112.79C141.427 112.591 141.507 112.404 141.604 112.229C141.702 112.049 141.823 111.893 141.966 111.76C142.106 111.626 142.267 111.521 142.449 111.442C142.635 111.364 142.848 111.325 143.089 111.325C143.326 111.325 143.538 111.364 143.724 111.442C143.912 111.521 144.077 111.625 144.217 111.755C144.357 111.892 144.476 112.049 144.573 112.229C144.674 112.404 144.757 112.59 144.822 112.785C144.881 112.987 144.925 113.194 144.954 113.405C144.983 113.614 145 113.817 145.003 114.016ZM147.742 117.487V110.891H147.156V118H151.36V117.487H147.742ZM162.869 115.07V114.567H159.251V115.07H162.869ZM174.803 114.592V114.079H171.668V111.408H175.262V110.891H171.087V118H175.281V117.487H171.668V114.592H174.803ZM181.673 111.408V110.891H176.57V111.408H178.841L178.836 118H179.407V111.408H181.673ZM183.777 117.487V110.891H183.191V118H187.396V117.487H183.777ZM198.904 115.07V114.567H195.286V115.07H198.904ZM211.37 110.891H210.809L210.799 115.71C210.792 115.951 210.752 116.185 210.677 116.413C210.605 116.638 210.499 116.836 210.359 117.009C210.219 117.185 210.047 117.325 209.842 117.429C209.64 117.533 209.407 117.585 209.144 117.585C208.88 117.585 208.646 117.533 208.44 117.429C208.235 117.325 208.063 117.185 207.923 117.009C207.783 116.836 207.675 116.638 207.601 116.413C207.526 116.188 207.487 115.954 207.483 115.71L207.469 110.891H206.917L206.912 115.71C206.915 116.032 206.969 116.338 207.073 116.628C207.181 116.918 207.33 117.17 207.522 117.385C207.715 117.606 207.947 117.78 208.221 117.907C208.494 118.034 208.802 118.098 209.144 118.098C209.482 118.098 209.786 118.034 210.057 117.907C210.33 117.777 210.564 117.603 210.76 117.385C210.955 117.167 211.106 116.914 211.214 116.628C211.321 116.338 211.375 116.032 211.375 115.71L211.37 110.891ZM213.089 110.891V111.418H214.817V117.478H213.089V118H217.205V117.478H215.423V111.418H217.205V110.891H213.089ZM220.062 118.61L223.03 110.891H222.483L219.515 118.61H220.062ZM229.388 110.891H228.826L228.816 115.71C228.81 115.951 228.769 116.185 228.694 116.413C228.623 116.638 228.517 116.836 228.377 117.009C228.237 117.185 228.064 117.325 227.859 117.429C227.658 117.533 227.425 117.585 227.161 117.585C226.897 117.585 226.663 117.533 226.458 117.429C226.253 117.325 226.08 117.185 225.94 117.009C225.8 116.836 225.693 116.638 225.618 116.413C225.543 116.188 225.504 115.954 225.501 115.71L225.486 110.891H224.935L224.93 115.71C224.933 116.032 224.987 116.338 225.091 116.628C225.198 116.918 225.348 117.17 225.54 117.385C225.732 117.606 225.965 117.78 226.238 117.907C226.512 118.034 226.819 118.098 227.161 118.098C227.5 118.098 227.804 118.034 228.074 117.907C228.348 117.777 228.582 117.603 228.777 117.385C228.973 117.167 229.124 116.914 229.231 116.628C229.339 116.338 229.393 116.032 229.393 115.71L229.388 110.891ZM233.235 113.923L231.443 110.891H230.76L232.903 114.392L230.691 118H231.375L233.245 114.865L235.115 118H235.794L233.582 114.392L235.726 110.891H235.037L233.235 113.923ZM238.821 117.58C238.821 117.714 238.865 117.827 238.953 117.922C239.041 118.013 239.161 118.059 239.314 118.059C239.467 118.059 239.59 118.013 239.681 117.922C239.772 117.831 239.817 117.717 239.817 117.58C239.817 117.443 239.772 117.328 239.681 117.233C239.59 117.136 239.467 117.087 239.314 117.087C239.161 117.087 239.041 117.136 238.953 117.233C238.865 117.328 238.821 117.443 238.821 117.58ZM244.827 117.58C244.827 117.714 244.871 117.827 244.959 117.922C245.047 118.013 245.167 118.059 245.32 118.059C245.473 118.059 245.595 118.013 245.687 117.922C245.778 117.831 245.823 117.717 245.823 117.58C245.823 117.443 245.778 117.328 245.687 117.233C245.595 117.136 245.473 117.087 245.32 117.087C245.167 117.087 245.047 117.136 244.959 117.233C244.871 117.328 244.827 117.443 244.827 117.58ZM250.833 117.58C250.833 117.714 250.877 117.827 250.965 117.922C251.053 118.013 251.173 118.059 251.326 118.059C251.479 118.059 251.601 118.013 251.692 117.922C251.784 117.831 251.829 117.717 251.829 117.58C251.829 117.443 251.784 117.328 251.692 117.233C251.601 117.136 251.479 117.087 251.326 117.087C251.173 117.087 251.053 117.136 250.965 117.233C250.877 117.328 250.833 117.443 250.833 117.58Z" fill="#F7D747"/>
</svg>
