<svg width="520" height="245" viewBox="0 0 520 245" fill="none" xmlns="http://www.w3.org/2000/svg">
<g clip-path="url(#clip0_1125_222)">
<path d="M500 1.5H20C9.78273 1.5 1.5 9.78273 1.5 20V225C1.5 235.217 9.78273 243.5 20 243.5H500C510.217 243.5 518.5 235.217 518.5 225V20C518.5 9.78273 510.217 1.5 500 1.5Z" fill="white" stroke="#632CC5" stroke-width="3"/>
<path d="M83.543 112.062L85.2031 118H90.9844L81.8438 89.5625H76.8633L67.5469 118H73.3281L75.0078 112.062H83.543ZM76.3555 107.395L79.3438 96.9258L82.2539 107.395H76.3555ZM93.7773 118H99.2266V102.98C99.4089 102.694 99.6107 102.434 99.832 102.199C100.053 101.965 100.301 101.763 100.574 101.594C100.913 101.359 101.297 101.184 101.727 101.066C102.169 100.949 102.651 100.891 103.172 100.891C103.797 100.891 104.357 100.956 104.852 101.086C105.346 101.203 105.77 101.418 106.121 101.73C106.473 102.043 106.74 102.473 106.922 103.02C107.117 103.553 107.215 104.237 107.215 105.07V118H112.645V104.992C112.645 103.456 112.462 102.154 112.098 101.086C111.746 100.005 111.251 99.1198 110.613 98.4297C109.962 97.7526 109.194 97.2578 108.309 96.9453C107.423 96.6328 106.447 96.4766 105.379 96.4766C104.546 96.4766 103.758 96.5938 103.016 96.8281C102.273 97.0625 101.59 97.401 100.965 97.8438C100.6 98.1042 100.255 98.3971 99.9297 98.7227C99.6042 99.0482 99.3047 99.4062 99.0312 99.7969L98.6992 96.8672H93.7773V118ZM127.762 91.6914H122.332V96.8672H117.508V100.871H122.332V110.48C122.332 111.874 122.514 113.072 122.879 114.074C123.243 115.064 123.764 115.878 124.441 116.516C125.105 117.167 125.906 117.648 126.844 117.961C127.794 118.26 128.849 118.41 130.008 118.41C130.607 118.41 131.212 118.378 131.824 118.312C132.449 118.26 133.048 118.182 133.621 118.078C134.194 117.974 134.734 117.844 135.242 117.688C135.75 117.518 136.193 117.323 136.57 117.102L136.043 113.371C135.796 113.436 135.496 113.501 135.145 113.566C134.806 113.632 134.441 113.69 134.051 113.742C133.647 113.807 133.224 113.859 132.781 113.898C132.352 113.938 131.928 113.957 131.512 113.957C130.939 113.957 130.418 113.892 129.949 113.762C129.493 113.632 129.103 113.41 128.777 113.098C128.452 112.798 128.198 112.395 128.016 111.887C127.846 111.366 127.762 110.721 127.762 109.953V100.871H135.652V96.8672H127.762V91.6914ZM141.082 107.238V107.648C141.082 109.198 141.303 110.63 141.746 111.945C142.189 113.247 142.84 114.38 143.699 115.344C144.546 116.307 145.587 117.062 146.824 117.609C148.074 118.143 149.493 118.41 151.082 118.41C152.658 118.41 154.064 118.143 155.301 117.609C156.538 117.062 157.579 116.307 158.426 115.344C159.272 114.38 159.917 113.247 160.359 111.945C160.802 110.63 161.023 109.198 161.023 107.648V107.238C161.023 105.702 160.802 104.283 160.359 102.98C159.917 101.665 159.272 100.526 158.426 99.5625C157.566 98.599 156.518 97.8438 155.281 97.2969C154.044 96.75 152.632 96.4766 151.043 96.4766C149.454 96.4766 148.042 96.75 146.805 97.2969C145.581 97.8438 144.546 98.599 143.699 99.5625C142.84 100.526 142.189 101.665 141.746 102.98C141.303 104.283 141.082 105.702 141.082 107.238ZM146.512 107.648V107.238C146.512 106.379 146.596 105.565 146.766 104.797C146.935 104.029 147.202 103.352 147.566 102.766C147.931 102.18 148.4 101.717 148.973 101.379C149.546 101.04 150.236 100.871 151.043 100.871C151.863 100.871 152.56 101.04 153.133 101.379C153.706 101.717 154.174 102.18 154.539 102.766C154.891 103.352 155.151 104.029 155.32 104.797C155.49 105.565 155.574 106.379 155.574 107.238V107.648C155.574 108.534 155.49 109.367 155.32 110.148C155.151 110.917 154.891 111.587 154.539 112.16C154.174 112.746 153.706 113.208 153.133 113.547C152.56 113.885 151.876 114.055 151.082 114.055C150.262 114.055 149.559 113.885 148.973 113.547C148.4 113.208 147.931 112.746 147.566 112.16C147.202 111.587 146.935 110.917 146.766 110.148C146.596 109.367 146.512 108.534 146.512 107.648ZM158.504 92.6094L152.762 87.8633H149.617L143.953 92.5703V93.1562H148.191L151.18 90.6758L154.188 93.1562H158.504V92.6094ZM165.848 118H171.297V102.98C171.479 102.694 171.681 102.434 171.902 102.199C172.124 101.965 172.371 101.763 172.645 101.594C172.983 101.359 173.367 101.184 173.797 101.066C174.24 100.949 174.721 100.891 175.242 100.891C175.867 100.891 176.427 100.956 176.922 101.086C177.417 101.203 177.84 101.418 178.191 101.73C178.543 102.043 178.81 102.473 178.992 103.02C179.188 103.553 179.285 104.237 179.285 105.07V118H184.715V104.992C184.715 103.456 184.533 102.154 184.168 101.086C183.816 100.005 183.322 99.1198 182.684 98.4297C182.033 97.7526 181.264 97.2578 180.379 96.9453C179.493 96.6328 178.517 96.4766 177.449 96.4766C176.616 96.4766 175.828 96.5938 175.086 96.8281C174.344 97.0625 173.66 97.401 173.035 97.8438C172.671 98.1042 172.326 98.3971 172 98.7227C171.674 99.0482 171.375 99.4062 171.102 99.7969L170.77 96.8672H165.848V118ZM191.316 96.8672V101.301H197.332V113.586H191.316V118H208.543V113.586H202.82V96.8672H191.316ZM196.941 91.457C196.941 91.8737 197.013 92.2643 197.156 92.6289C197.312 92.9805 197.527 93.2799 197.801 93.5273C198.074 93.7878 198.4 93.9896 198.777 94.1328C199.168 94.276 199.598 94.3477 200.066 94.3477C201.03 94.3477 201.792 94.0807 202.352 93.5469C202.924 93 203.211 92.3034 203.211 91.457C203.211 90.6107 202.924 89.9206 202.352 89.3867C201.792 88.8398 201.03 88.5664 200.066 88.5664C199.598 88.5664 199.168 88.638 198.777 88.7812C198.4 88.9245 198.074 89.1198 197.801 89.3672C197.527 89.6276 197.312 89.9401 197.156 90.3047C197.013 90.6562 196.941 91.0404 196.941 91.457ZM213.152 107.238V107.648C213.152 109.198 213.374 110.63 213.816 111.945C214.259 113.247 214.91 114.38 215.77 115.344C216.616 116.307 217.658 117.062 218.895 117.609C220.145 118.143 221.564 118.41 223.152 118.41C224.728 118.41 226.134 118.143 227.371 117.609C228.608 117.062 229.65 116.307 230.496 115.344C231.342 114.38 231.987 113.247 232.43 111.945C232.872 110.63 233.094 109.198 233.094 107.648V107.238C233.094 105.702 232.872 104.283 232.43 102.98C231.987 101.665 231.342 100.526 230.496 99.5625C229.637 98.599 228.589 97.8438 227.352 97.2969C226.115 96.75 224.702 96.4766 223.113 96.4766C221.525 96.4766 220.112 96.75 218.875 97.2969C217.651 97.8438 216.616 98.599 215.77 99.5625C214.91 100.526 214.259 101.665 213.816 102.98C213.374 104.283 213.152 105.702 213.152 107.238ZM218.582 107.648V107.238C218.582 106.379 218.667 105.565 218.836 104.797C219.005 104.029 219.272 103.352 219.637 102.766C220.001 102.18 220.47 101.717 221.043 101.379C221.616 101.04 222.306 100.871 223.113 100.871C223.934 100.871 224.63 101.04 225.203 101.379C225.776 101.717 226.245 102.18 226.609 102.766C226.961 103.352 227.221 104.029 227.391 104.797C227.56 105.565 227.645 106.379 227.645 107.238V107.648C227.645 108.534 227.56 109.367 227.391 110.148C227.221 110.917 226.961 111.587 226.609 112.16C226.245 112.746 225.776 113.208 225.203 113.547C224.63 113.885 223.947 114.055 223.152 114.055C222.332 114.055 221.629 113.885 221.043 113.547C220.47 113.208 220.001 112.746 219.637 112.16C219.272 111.587 219.005 110.917 218.836 110.148C218.667 109.367 218.582 108.534 218.582 107.648ZM271.395 107.375L276.746 118H282.625V117.746L276.512 106.008C277.293 105.656 277.996 105.24 278.621 104.758C279.259 104.276 279.806 103.71 280.262 103.059C280.704 102.421 281.043 101.698 281.277 100.891C281.525 100.07 281.648 99.1523 281.648 98.1367C281.648 96.7305 281.401 95.4935 280.906 94.4258C280.424 93.3581 279.734 92.4661 278.836 91.75C277.924 91.0339 276.831 90.4935 275.555 90.1289C274.279 89.7513 272.853 89.5625 271.277 89.5625H261.746V118H267.234V107.375H271.395ZM267.234 102.922V94.0156H271.277C272.033 94.0156 272.703 94.1068 273.289 94.2891C273.875 94.4714 274.37 94.7318 274.773 95.0703C275.229 95.4479 275.568 95.9297 275.789 96.5156C276.023 97.0885 276.141 97.7526 276.141 98.5078C276.141 99.1328 276.049 99.6992 275.867 100.207C275.698 100.715 275.444 101.151 275.105 101.516C274.702 101.971 274.174 102.323 273.523 102.57C272.885 102.805 272.143 102.922 271.297 102.922H267.234ZM296.219 118.391C298.263 118.391 300.034 117.993 301.531 117.199C303.029 116.405 304.122 115.52 304.812 114.543L302.098 111.613C301.473 112.421 300.659 113.026 299.656 113.43C298.654 113.833 297.618 114.035 296.551 114.035C295.796 114.035 295.099 113.918 294.461 113.684C293.823 113.449 293.257 113.117 292.762 112.688C292.28 112.271 291.896 111.809 291.609 111.301C291.323 110.78 291.089 110.096 290.906 109.25V109.191H305.242V106.887C305.242 105.337 305.027 103.924 304.598 102.648C304.168 101.359 303.543 100.259 302.723 99.3477C301.889 98.4362 300.874 97.7331 299.676 97.2383C298.491 96.7305 297.137 96.4766 295.613 96.4766C294.142 96.4766 292.781 96.7435 291.531 97.2773C290.281 97.8112 289.201 98.5599 288.289 99.5234C287.378 100.487 286.668 101.639 286.16 102.98C285.652 104.309 285.398 105.78 285.398 107.395V108.176C285.398 109.595 285.652 110.93 286.16 112.18C286.681 113.417 287.417 114.491 288.367 115.402C289.318 116.327 290.457 117.056 291.785 117.59C293.113 118.124 294.591 118.391 296.219 118.391ZM295.574 100.871C296.264 100.871 296.87 100.982 297.391 101.203C297.924 101.411 298.374 101.698 298.738 102.062C299.103 102.44 299.389 102.883 299.598 103.391C299.806 103.898 299.91 104.439 299.91 105.012V105.441H291.004C291.134 104.751 291.329 104.126 291.59 103.566C291.85 103.007 292.176 102.525 292.566 102.121C292.944 101.717 293.387 101.411 293.895 101.203C294.402 100.982 294.962 100.871 295.574 100.871ZM329.031 107.648V107.238C329.031 105.962 328.914 104.764 328.68 103.645C328.458 102.525 328.113 101.516 327.645 100.617C327.345 100.057 327 99.543 326.609 99.0742C326.219 98.5924 325.783 98.1823 325.301 97.8438C324.702 97.401 324.018 97.0625 323.25 96.8281C322.495 96.5938 321.661 96.4766 320.75 96.4766C320.086 96.4766 319.467 96.5482 318.895 96.6914C318.335 96.8216 317.814 97.0234 317.332 97.2969C316.993 97.4792 316.674 97.7005 316.375 97.9609C316.076 98.2083 315.796 98.4818 315.535 98.7812V88H310.105V118H314.988L315.242 115.754C315.464 116.04 315.698 116.307 315.945 116.555C316.193 116.789 316.46 117.004 316.746 117.199C317.28 117.59 317.879 117.883 318.543 118.078C319.22 118.286 319.969 118.391 320.789 118.391C321.688 118.391 322.508 118.273 323.25 118.039C324.005 117.818 324.682 117.492 325.281 117.062C325.945 116.607 326.518 116.034 327 115.344C327.495 114.654 327.892 113.885 328.191 113.039C328.465 112.271 328.673 111.438 328.816 110.539C328.96 109.628 329.031 108.664 329.031 107.648ZM323.602 107.238V107.648C323.602 108.195 323.576 108.723 323.523 109.23C323.484 109.738 323.413 110.207 323.309 110.637C323.178 111.223 322.983 111.75 322.723 112.219C322.475 112.674 322.15 113.046 321.746 113.332C321.46 113.54 321.121 113.703 320.73 113.82C320.34 113.938 319.904 113.996 319.422 113.996C318.862 113.996 318.361 113.931 317.918 113.801C317.488 113.671 317.111 113.482 316.785 113.234C316.512 113.039 316.271 112.811 316.062 112.551C315.867 112.277 315.691 111.978 315.535 111.652V103.234C315.652 102.987 315.783 102.759 315.926 102.551C316.069 102.329 316.225 102.134 316.395 101.965C316.746 101.613 317.169 101.346 317.664 101.164C318.159 100.982 318.732 100.891 319.383 100.891C319.865 100.891 320.294 100.949 320.672 101.066C321.049 101.171 321.388 101.333 321.688 101.555C322.143 101.906 322.482 102.297 322.703 102.727C322.938 103.143 323.126 103.618 323.27 104.152C323.387 104.608 323.471 105.096 323.523 105.617C323.576 106.138 323.602 106.678 323.602 107.238ZM333.27 107.238V107.648C333.27 109.198 333.491 110.63 333.934 111.945C334.376 113.247 335.027 114.38 335.887 115.344C336.733 116.307 337.775 117.062 339.012 117.609C340.262 118.143 341.681 118.41 343.27 118.41C344.845 118.41 346.251 118.143 347.488 117.609C348.725 117.062 349.767 116.307 350.613 115.344C351.46 114.38 352.104 113.247 352.547 111.945C352.99 110.63 353.211 109.198 353.211 107.648V107.238C353.211 105.702 352.99 104.283 352.547 102.98C352.104 101.665 351.46 100.526 350.613 99.5625C349.754 98.599 348.706 97.8438 347.469 97.2969C346.232 96.75 344.819 96.4766 343.23 96.4766C341.642 96.4766 340.229 96.75 338.992 97.2969C337.768 97.8438 336.733 98.599 335.887 99.5625C335.027 100.526 334.376 101.665 333.934 102.98C333.491 104.283 333.27 105.702 333.27 107.238ZM338.699 107.648V107.238C338.699 106.379 338.784 105.565 338.953 104.797C339.122 104.029 339.389 103.352 339.754 102.766C340.118 102.18 340.587 101.717 341.16 101.379C341.733 101.04 342.423 100.871 343.23 100.871C344.051 100.871 344.747 101.04 345.32 101.379C345.893 101.717 346.362 102.18 346.727 102.766C347.078 103.352 347.339 104.029 347.508 104.797C347.677 105.565 347.762 106.379 347.762 107.238V107.648C347.762 108.534 347.677 109.367 347.508 110.148C347.339 110.917 347.078 111.587 346.727 112.16C346.362 112.746 345.893 113.208 345.32 113.547C344.747 113.885 344.064 114.055 343.27 114.055C342.449 114.055 341.746 113.885 341.16 113.547C340.587 113.208 340.118 112.746 339.754 112.16C339.389 111.587 339.122 110.917 338.953 110.148C338.784 109.367 338.699 108.534 338.699 107.648ZM371.824 118H376.746V96.8672H371.297V111.691C371.128 112.03 370.926 112.336 370.691 112.609C370.457 112.883 370.19 113.117 369.891 113.312C369.539 113.534 369.129 113.703 368.66 113.82C368.204 113.938 367.69 113.996 367.117 113.996C366.479 113.996 365.939 113.918 365.496 113.762C365.053 113.605 364.695 113.345 364.422 112.98C364.148 112.629 363.947 112.16 363.816 111.574C363.699 110.988 363.641 110.266 363.641 109.406V96.8672H358.211V109.367C358.211 110.969 358.387 112.342 358.738 113.488C359.103 114.621 359.611 115.552 360.262 116.281C360.913 117.023 361.694 117.564 362.605 117.902C363.517 118.241 364.52 118.41 365.613 118.41C366.811 118.41 367.911 118.111 368.914 117.512C369.93 116.913 370.796 116.086 371.512 115.031L371.824 118ZM391.414 114.055C390.542 114.055 389.819 113.879 389.246 113.527C388.686 113.176 388.243 112.707 387.918 112.121C387.579 111.548 387.345 110.884 387.215 110.129C387.085 109.361 387.02 108.566 387.02 107.746V107.16C387.02 106.353 387.085 105.572 387.215 104.816C387.358 104.061 387.599 103.391 387.938 102.805C388.263 102.219 388.706 101.75 389.266 101.398C389.826 101.047 390.535 100.871 391.395 100.871C391.98 100.871 392.521 100.975 393.016 101.184C393.51 101.379 393.934 101.646 394.285 101.984C394.637 102.323 394.904 102.727 395.086 103.195C395.268 103.664 395.346 104.159 395.32 104.68H400.438C400.464 103.43 400.255 102.303 399.812 101.301C399.37 100.285 398.751 99.4193 397.957 98.7031C397.15 98 396.193 97.4531 395.086 97.0625C393.979 96.6719 392.775 96.4766 391.473 96.4766C389.845 96.4766 388.413 96.7565 387.176 97.3164C385.952 97.8763 384.923 98.638 384.09 99.6016C383.257 100.565 382.632 101.698 382.215 103C381.798 104.289 381.59 105.676 381.59 107.16V107.746C381.59 109.23 381.798 110.624 382.215 111.926C382.645 113.215 383.276 114.341 384.109 115.305C384.93 116.268 385.958 117.03 387.195 117.59C388.432 118.137 389.871 118.41 391.512 118.41C392.723 118.41 393.868 118.221 394.949 117.844C396.043 117.453 397 116.919 397.82 116.242C398.641 115.565 399.285 114.758 399.754 113.82C400.236 112.883 400.464 111.867 400.438 110.773H395.32C395.346 111.268 395.255 111.717 395.047 112.121C394.852 112.525 394.572 112.87 394.207 113.156C393.842 113.443 393.419 113.664 392.938 113.82C392.456 113.977 391.948 114.055 391.414 114.055ZM393.504 117.805H389.461L388.855 120.559C389.363 120.598 389.799 120.643 390.164 120.695C390.529 120.76 390.822 120.858 391.043 120.988C391.264 121.105 391.427 121.255 391.531 121.438C391.635 121.62 391.688 121.841 391.688 122.102C391.688 122.401 391.622 122.655 391.492 122.863C391.375 123.072 391.212 123.241 391.004 123.371C390.796 123.488 390.548 123.573 390.262 123.625C389.988 123.69 389.689 123.723 389.363 123.723L389.5 126.848C390.607 126.848 391.577 126.737 392.41 126.516C393.243 126.294 393.947 125.982 394.52 125.578C395.079 125.188 395.503 124.712 395.789 124.152C396.076 123.592 396.219 122.967 396.219 122.277C396.219 121.717 396.134 121.236 395.965 120.832C395.796 120.441 395.574 120.109 395.301 119.836C395.027 119.576 394.715 119.367 394.363 119.211C394.012 119.068 393.654 118.964 393.289 118.898L393.504 117.805ZM419.285 118H424.793V117.668C424.52 117.134 424.311 116.496 424.168 115.754C424.025 115.012 423.953 114.074 423.953 112.941V103.879C423.953 102.655 423.725 101.581 423.27 100.656C422.814 99.7188 422.182 98.944 421.375 98.332C420.568 97.7201 419.611 97.2578 418.504 96.9453C417.41 96.6328 416.225 96.4766 414.949 96.4766C413.53 96.4766 412.267 96.6589 411.16 97.0234C410.066 97.375 409.142 97.8568 408.387 98.4688C407.618 99.0807 407.033 99.7904 406.629 100.598C406.238 101.405 406.043 102.258 406.043 103.156H411.473C411.473 102.779 411.525 102.434 411.629 102.121C411.746 101.809 411.922 101.542 412.156 101.32C412.417 101.073 412.755 100.884 413.172 100.754C413.589 100.611 414.083 100.539 414.656 100.539C415.307 100.539 415.874 100.624 416.355 100.793C416.85 100.949 417.26 101.177 417.586 101.477C417.898 101.763 418.133 102.108 418.289 102.512C418.445 102.902 418.523 103.345 418.523 103.84V105.09H415.496C413.934 105.09 412.547 105.233 411.336 105.52C410.138 105.793 409.129 106.197 408.309 106.73C407.397 107.316 406.714 108.065 406.258 108.977C405.802 109.875 405.574 110.91 405.574 112.082C405.574 112.993 405.757 113.84 406.121 114.621C406.486 115.389 406.993 116.053 407.645 116.613C408.296 117.173 409.07 117.609 409.969 117.922C410.88 118.234 411.876 118.391 412.957 118.391C413.621 118.391 414.24 118.326 414.812 118.195C415.385 118.078 415.913 117.909 416.395 117.688C416.863 117.479 417.293 117.232 417.684 116.945C418.074 116.659 418.419 116.353 418.719 116.027C418.784 116.405 418.862 116.763 418.953 117.102C419.044 117.44 419.155 117.74 419.285 118ZM414.109 114.191C413.602 114.191 413.152 114.133 412.762 114.016C412.384 113.885 412.065 113.716 411.805 113.508C411.544 113.286 411.342 113.02 411.199 112.707C411.069 112.382 411.004 112.03 411.004 111.652C411.004 111.171 411.095 110.728 411.277 110.324C411.46 109.908 411.74 109.549 412.117 109.25C412.495 108.964 412.983 108.742 413.582 108.586C414.181 108.417 414.904 108.332 415.75 108.332H418.523V111.965C418.367 112.238 418.152 112.512 417.879 112.785C417.605 113.046 417.28 113.28 416.902 113.488C416.525 113.697 416.102 113.866 415.633 113.996C415.164 114.126 414.656 114.191 414.109 114.191ZM443.738 112.199C443.738 112.525 443.654 112.824 443.484 113.098C443.328 113.371 443.087 113.612 442.762 113.82C442.423 114.029 441.987 114.198 441.453 114.328C440.932 114.445 440.32 114.504 439.617 114.504C439.031 114.504 438.458 114.445 437.898 114.328C437.352 114.211 436.863 114.022 436.434 113.762C436.004 113.514 435.652 113.189 435.379 112.785C435.105 112.368 434.949 111.874 434.91 111.301H429.734C429.734 112.16 429.943 113.02 430.359 113.879C430.789 114.725 431.414 115.48 432.234 116.145C433.055 116.822 434.07 117.368 435.281 117.785C436.505 118.202 437.911 118.41 439.5 118.41C440.945 118.41 442.254 118.254 443.426 117.941C444.598 117.616 445.6 117.167 446.434 116.594C447.254 116.021 447.885 115.344 448.328 114.562C448.784 113.768 449.012 112.902 449.012 111.965C449.012 110.949 448.784 110.077 448.328 109.348C447.885 108.605 447.267 107.974 446.473 107.453C445.678 106.945 444.734 106.529 443.641 106.203C442.547 105.878 441.362 105.611 440.086 105.402C439.201 105.272 438.471 105.122 437.898 104.953C437.326 104.771 436.876 104.569 436.551 104.348C436.212 104.139 435.978 103.905 435.848 103.645C435.717 103.371 435.652 103.078 435.652 102.766C435.652 102.453 435.724 102.16 435.867 101.887C436.023 101.6 436.245 101.353 436.531 101.145C436.844 100.91 437.247 100.728 437.742 100.598C438.237 100.467 438.816 100.402 439.48 100.402C440.262 100.402 440.926 100.5 441.473 100.695C442.033 100.891 442.475 101.151 442.801 101.477C443.035 101.724 443.211 102.004 443.328 102.316C443.445 102.616 443.504 102.941 443.504 103.293H448.934C448.934 102.316 448.719 101.411 448.289 100.578C447.859 99.7448 447.241 99.0221 446.434 98.4102C445.613 97.8112 444.617 97.3424 443.445 97.0039C442.273 96.6523 440.952 96.4766 439.48 96.4766C438.074 96.4766 436.811 96.6523 435.691 97.0039C434.572 97.3555 433.621 97.8307 432.84 98.4297C432.059 99.0286 431.46 99.7253 431.043 100.52C430.626 101.314 430.418 102.147 430.418 103.02C430.418 103.918 430.62 104.712 431.023 105.402C431.44 106.092 432.013 106.698 432.742 107.219C433.471 107.753 434.344 108.208 435.359 108.586C436.388 108.951 437.521 109.257 438.758 109.504C439.734 109.686 440.542 109.868 441.18 110.051C441.818 110.233 442.332 110.428 442.723 110.637C443.1 110.858 443.361 111.092 443.504 111.34C443.66 111.587 443.738 111.874 443.738 112.199Z" fill="#632CC5"/>
<path d="M72.5195 162H79.3457C80.2539 161.99 81.1328 161.849 81.9824 161.575C82.8418 161.302 83.5986 160.906 84.2529 160.389C84.9072 159.881 85.4297 159.246 85.8203 158.484C86.2109 157.723 86.4014 156.844 86.3916 155.848C86.3916 155.213 86.2939 154.622 86.0986 154.075C85.9131 153.528 85.6494 153.035 85.3076 152.596C84.9854 152.195 84.5752 151.829 84.0771 151.497C83.5791 151.165 83.0615 150.936 82.5244 150.809V150.765C83.042 150.54 83.4814 150.301 83.8428 150.047C84.2139 149.793 84.5508 149.48 84.8535 149.109C85.1465 148.748 85.376 148.338 85.542 147.879C85.7178 147.42 85.8105 146.912 85.8203 146.355C85.8301 145.359 85.6396 144.505 85.249 143.792C84.8584 143.079 84.3359 142.493 83.6816 142.034C83.0273 141.575 82.2803 141.238 81.4404 141.023C80.6006 140.799 79.7412 140.682 78.8623 140.672H72.5195V162ZM75.2441 152.024H79.5654C80.1416 152.044 80.6787 152.142 81.1768 152.317C81.6748 152.493 82.1094 152.742 82.4805 153.064C82.8516 153.396 83.1396 153.797 83.3447 154.266C83.5596 154.734 83.6621 155.271 83.6523 155.877C83.6523 156.473 83.5352 157.005 83.3008 157.474C83.0762 157.942 82.7686 158.338 82.3779 158.66C81.9873 158.982 81.5381 159.236 81.0303 159.422C80.5225 159.598 79.9854 159.69 79.4189 159.7H75.2441V152.024ZM75.2441 149.769V142.986H78.9502C79.4775 142.996 79.9902 143.064 80.4883 143.191C80.9961 143.318 81.4453 143.514 81.8359 143.777C82.2168 144.051 82.5195 144.397 82.7441 144.817C82.9785 145.237 83.0957 145.745 83.0957 146.341C83.0957 146.897 82.9785 147.386 82.7441 147.806C82.5098 148.226 82.2021 148.577 81.8213 148.86C81.4404 149.153 81.0059 149.378 80.5176 149.534C80.0293 149.681 79.5312 149.759 79.0234 149.769H75.2441ZM101.011 162H103.472V146.15H100.747V157.518C100.601 157.859 100.415 158.177 100.19 158.47C99.9756 158.753 99.7217 158.997 99.4287 159.202C99.0771 159.456 98.6621 159.656 98.1836 159.803C97.7051 159.939 97.1631 160.008 96.5576 160.008C96.04 160.008 95.5811 159.939 95.1807 159.803C94.79 159.666 94.458 159.427 94.1846 159.085C93.9111 158.753 93.7061 158.304 93.5693 157.737C93.4326 157.171 93.3643 156.458 93.3643 155.599V146.15H90.6543V155.569C90.6543 156.751 90.7812 157.767 91.0352 158.616C91.2988 159.456 91.6699 160.149 92.1484 160.696C92.627 161.243 93.2031 161.648 93.877 161.912C94.5508 162.166 95.3027 162.293 96.1328 162.293C97.168 162.293 98.0811 162.078 98.8721 161.648C99.6631 161.209 100.322 160.599 100.85 159.817L101.011 162ZM119.116 157.796C119.116 158.05 119.067 158.289 118.97 158.514C118.872 158.738 118.73 158.943 118.545 159.129C118.242 159.432 117.822 159.671 117.285 159.847C116.748 160.013 116.118 160.096 115.396 160.096C114.937 160.096 114.473 160.047 114.004 159.949C113.535 159.852 113.11 159.686 112.729 159.451C112.339 159.217 112.012 158.909 111.748 158.528C111.494 158.147 111.348 157.679 111.309 157.122H108.599C108.599 157.796 108.75 158.445 109.053 159.07C109.365 159.695 109.814 160.242 110.4 160.711C110.977 161.189 111.685 161.575 112.524 161.868C113.364 162.151 114.321 162.293 115.396 162.293C116.333 162.293 117.197 162.181 117.988 161.956C118.779 161.731 119.458 161.414 120.024 161.004C120.591 160.594 121.03 160.101 121.343 159.524C121.665 158.948 121.826 158.309 121.826 157.605C121.826 156.951 121.685 156.375 121.401 155.877C121.128 155.379 120.728 154.939 120.2 154.559C119.673 154.188 119.023 153.87 118.252 153.606C117.48 153.333 116.606 153.094 115.63 152.889C114.888 152.742 114.272 152.591 113.784 152.435C113.306 152.278 112.925 152.103 112.642 151.907C112.349 151.712 112.144 151.492 112.026 151.248C111.909 151.004 111.851 150.726 111.851 150.413C111.851 150.11 111.924 149.817 112.07 149.534C112.217 149.251 112.437 149.002 112.729 148.787C113.013 148.572 113.369 148.401 113.799 148.274C114.238 148.147 114.746 148.084 115.322 148.084C115.879 148.084 116.377 148.162 116.816 148.318C117.266 148.475 117.646 148.68 117.959 148.934C118.271 149.188 118.516 149.48 118.691 149.812C118.867 150.135 118.955 150.467 118.955 150.809H121.665C121.665 150.115 121.514 149.471 121.211 148.875C120.918 148.27 120.498 147.742 119.951 147.293C119.404 146.844 118.74 146.492 117.959 146.238C117.178 145.984 116.299 145.857 115.322 145.857C114.414 145.857 113.579 145.979 112.817 146.224C112.065 146.468 111.416 146.8 110.869 147.22C110.322 147.64 109.897 148.133 109.595 148.699C109.292 149.256 109.141 149.856 109.141 150.501C109.141 151.155 109.287 151.731 109.58 152.229C109.873 152.718 110.288 153.143 110.825 153.504C111.353 153.875 111.987 154.192 112.729 154.456C113.481 154.72 114.312 154.944 115.22 155.13C115.962 155.276 116.582 155.442 117.08 155.628C117.578 155.804 117.979 155.999 118.281 156.214C118.584 156.429 118.799 156.668 118.926 156.932C119.053 157.186 119.116 157.474 119.116 157.796ZM127.026 146.15V148.509H132.417V159.656H127.026V162H140.298V159.656H135.127V146.15H127.026ZM132.065 141.99C132.065 142.43 132.197 142.796 132.461 143.089C132.734 143.382 133.145 143.528 133.691 143.528C134.229 143.528 134.634 143.382 134.907 143.089C135.181 142.796 135.317 142.43 135.317 141.99C135.317 141.746 135.278 141.521 135.2 141.316C135.122 141.111 135.005 140.94 134.849 140.804C134.722 140.677 134.561 140.579 134.365 140.511C134.17 140.433 133.945 140.394 133.691 140.394C133.438 140.394 133.208 140.433 133.003 140.511C132.808 140.579 132.646 140.677 132.52 140.804C132.363 140.95 132.246 141.126 132.168 141.331C132.1 141.536 132.065 141.756 132.065 141.99ZM144.619 162H147.329V150.633C147.515 150.291 147.729 149.979 147.974 149.695C148.228 149.412 148.501 149.163 148.794 148.948C149.155 148.704 149.551 148.514 149.98 148.377C150.41 148.23 150.874 148.157 151.372 148.157C151.948 148.157 152.456 148.226 152.896 148.362C153.345 148.499 153.726 148.719 154.038 149.021C154.341 149.324 154.57 149.72 154.727 150.208C154.883 150.696 154.961 151.292 154.961 151.995V162H157.671V151.937C157.671 150.882 157.539 149.974 157.275 149.212C157.021 148.44 156.655 147.806 156.177 147.308C155.698 146.81 155.117 146.443 154.434 146.209C153.76 145.975 153.008 145.857 152.178 145.857C151.562 145.867 150.977 145.96 150.42 146.136C149.873 146.302 149.365 146.541 148.896 146.854C148.584 147.059 148.286 147.303 148.003 147.586C147.729 147.859 147.476 148.162 147.241 148.494L147.051 146.15H144.619V162ZM162.637 162H165.347V150.633C165.532 150.291 165.747 149.979 165.991 149.695C166.245 149.412 166.519 149.163 166.812 148.948C167.173 148.704 167.568 148.514 167.998 148.377C168.428 148.23 168.892 148.157 169.39 148.157C169.966 148.157 170.474 148.226 170.913 148.362C171.362 148.499 171.743 148.719 172.056 149.021C172.358 149.324 172.588 149.72 172.744 150.208C172.9 150.696 172.979 151.292 172.979 151.995V162H175.688V151.937C175.688 150.882 175.557 149.974 175.293 149.212C175.039 148.44 174.673 147.806 174.194 147.308C173.716 146.81 173.135 146.443 172.451 146.209C171.777 145.975 171.025 145.857 170.195 145.857C169.58 145.867 168.994 145.96 168.438 146.136C167.891 146.302 167.383 146.541 166.914 146.854C166.602 147.059 166.304 147.303 166.021 147.586C165.747 147.859 165.493 148.162 165.259 148.494L165.068 146.15H162.637V162ZM187.656 162.293C189.199 162.293 190.493 161.985 191.538 161.37C192.593 160.745 193.384 160.032 193.911 159.231L192.256 157.942C191.758 158.587 191.133 159.104 190.381 159.495C189.629 159.886 188.77 160.081 187.803 160.081C187.07 160.081 186.401 159.944 185.796 159.671C185.19 159.397 184.673 159.021 184.243 158.543C183.823 158.094 183.491 157.576 183.247 156.99C183.013 156.404 182.861 155.726 182.793 154.954V154.852H194.116V153.636C194.116 152.532 193.975 151.507 193.691 150.56C193.418 149.612 192.998 148.787 192.432 148.084C191.865 147.391 191.152 146.849 190.293 146.458C189.443 146.058 188.447 145.857 187.305 145.857C186.396 145.857 185.508 146.043 184.639 146.414C183.779 146.785 183.013 147.317 182.339 148.011C181.655 148.714 181.108 149.573 180.698 150.589C180.288 151.595 180.083 152.737 180.083 154.017V154.632C180.083 155.735 180.269 156.756 180.64 157.693C181.011 158.631 181.528 159.441 182.192 160.125C182.856 160.809 183.652 161.341 184.58 161.722C185.518 162.103 186.543 162.293 187.656 162.293ZM187.305 148.084C187.998 148.084 188.594 148.211 189.092 148.465C189.6 148.719 190.02 149.051 190.352 149.461C190.684 149.871 190.942 150.359 191.128 150.926C191.313 151.482 191.406 152.005 191.406 152.493V152.625H182.881C182.988 151.893 183.174 151.248 183.438 150.691C183.711 150.125 184.043 149.646 184.434 149.256C184.824 148.875 185.264 148.587 185.752 148.392C186.24 148.187 186.758 148.084 187.305 148.084ZM209.204 157.796C209.204 158.05 209.155 158.289 209.058 158.514C208.96 158.738 208.818 158.943 208.633 159.129C208.33 159.432 207.91 159.671 207.373 159.847C206.836 160.013 206.206 160.096 205.483 160.096C205.024 160.096 204.561 160.047 204.092 159.949C203.623 159.852 203.198 159.686 202.817 159.451C202.427 159.217 202.1 158.909 201.836 158.528C201.582 158.147 201.436 157.679 201.396 157.122H198.687C198.687 157.796 198.838 158.445 199.141 159.07C199.453 159.695 199.902 160.242 200.488 160.711C201.064 161.189 201.772 161.575 202.612 161.868C203.452 162.151 204.409 162.293 205.483 162.293C206.421 162.293 207.285 162.181 208.076 161.956C208.867 161.731 209.546 161.414 210.112 161.004C210.679 160.594 211.118 160.101 211.431 159.524C211.753 158.948 211.914 158.309 211.914 157.605C211.914 156.951 211.772 156.375 211.489 155.877C211.216 155.379 210.815 154.939 210.288 154.559C209.761 154.188 209.111 153.87 208.34 153.606C207.568 153.333 206.694 153.094 205.718 152.889C204.976 152.742 204.36 152.591 203.872 152.435C203.394 152.278 203.013 152.103 202.729 151.907C202.437 151.712 202.231 151.492 202.114 151.248C201.997 151.004 201.938 150.726 201.938 150.413C201.938 150.11 202.012 149.817 202.158 149.534C202.305 149.251 202.524 149.002 202.817 148.787C203.101 148.572 203.457 148.401 203.887 148.274C204.326 148.147 204.834 148.084 205.41 148.084C205.967 148.084 206.465 148.162 206.904 148.318C207.354 148.475 207.734 148.68 208.047 148.934C208.359 149.188 208.604 149.48 208.779 149.812C208.955 150.135 209.043 150.467 209.043 150.809H211.753C211.753 150.115 211.602 149.471 211.299 148.875C211.006 148.27 210.586 147.742 210.039 147.293C209.492 146.844 208.828 146.492 208.047 146.238C207.266 145.984 206.387 145.857 205.41 145.857C204.502 145.857 203.667 145.979 202.905 146.224C202.153 146.468 201.504 146.8 200.957 147.22C200.41 147.64 199.985 148.133 199.683 148.699C199.38 149.256 199.229 149.856 199.229 150.501C199.229 151.155 199.375 151.731 199.668 152.229C199.961 152.718 200.376 153.143 200.913 153.504C201.44 153.875 202.075 154.192 202.817 154.456C203.569 154.72 204.399 154.944 205.308 155.13C206.05 155.276 206.67 155.442 207.168 155.628C207.666 155.804 208.066 155.999 208.369 156.214C208.672 156.429 208.887 156.668 209.014 156.932C209.141 157.186 209.204 157.474 209.204 157.796ZM234.707 140.672V143.03H239.702V159.656H234.707V162H247.598V159.656H242.485V143.03H247.598V140.672H234.707ZM252.725 162H255.435V150.633C255.62 150.291 255.835 149.979 256.079 149.695C256.333 149.412 256.606 149.163 256.899 148.948C257.261 148.704 257.656 148.514 258.086 148.377C258.516 148.23 258.979 148.157 259.478 148.157C260.054 148.157 260.562 148.226 261.001 148.362C261.45 148.499 261.831 148.719 262.144 149.021C262.446 149.324 262.676 149.72 262.832 150.208C262.988 150.696 263.066 151.292 263.066 151.995V162H265.776V151.937C265.776 150.882 265.645 149.974 265.381 149.212C265.127 148.44 264.761 147.806 264.282 147.308C263.804 146.81 263.223 146.443 262.539 146.209C261.865 145.975 261.113 145.857 260.283 145.857C259.668 145.867 259.082 145.96 258.525 146.136C257.979 146.302 257.471 146.541 257.002 146.854C256.689 147.059 256.392 147.303 256.108 147.586C255.835 147.859 255.581 148.162 255.347 148.494L255.156 146.15H252.725V162ZM277.158 142.312H274.434V146.15H270.273V148.245H274.434V156.858C274.434 157.835 274.561 158.67 274.814 159.363C275.078 160.047 275.435 160.604 275.884 161.033C276.333 161.473 276.86 161.795 277.466 162C278.081 162.195 278.74 162.293 279.443 162.293C279.863 162.293 280.283 162.273 280.703 162.234C281.133 162.195 281.538 162.137 281.919 162.059C282.3 161.99 282.651 161.907 282.974 161.81C283.296 161.702 283.569 161.58 283.794 161.443L283.413 159.524C283.247 159.563 283.032 159.612 282.769 159.671C282.515 159.72 282.241 159.769 281.948 159.817C281.646 159.866 281.338 159.91 281.025 159.949C280.713 159.979 280.41 159.993 280.117 159.993C279.717 159.993 279.336 159.944 278.975 159.847C278.623 159.749 278.311 159.578 278.037 159.334C277.764 159.1 277.549 158.782 277.393 158.382C277.236 157.981 277.158 157.474 277.158 156.858V148.245H283.193V146.15H277.158V142.312ZM295.762 162.293C297.305 162.293 298.599 161.985 299.644 161.37C300.698 160.745 301.489 160.032 302.017 159.231L300.361 157.942C299.863 158.587 299.238 159.104 298.486 159.495C297.734 159.886 296.875 160.081 295.908 160.081C295.176 160.081 294.507 159.944 293.901 159.671C293.296 159.397 292.778 159.021 292.349 158.543C291.929 158.094 291.597 157.576 291.353 156.99C291.118 156.404 290.967 155.726 290.898 154.954V154.852H302.222V153.636C302.222 152.532 302.08 151.507 301.797 150.56C301.523 149.612 301.104 148.787 300.537 148.084C299.971 147.391 299.258 146.849 298.398 146.458C297.549 146.058 296.553 145.857 295.41 145.857C294.502 145.857 293.613 146.043 292.744 146.414C291.885 146.785 291.118 147.317 290.444 148.011C289.761 148.714 289.214 149.573 288.804 150.589C288.394 151.595 288.188 152.737 288.188 154.017V154.632C288.188 155.735 288.374 156.756 288.745 157.693C289.116 158.631 289.634 159.441 290.298 160.125C290.962 160.809 291.758 161.341 292.686 161.722C293.623 162.103 294.648 162.293 295.762 162.293ZM295.41 148.084C296.104 148.084 296.699 148.211 297.197 148.465C297.705 148.719 298.125 149.051 298.457 149.461C298.789 149.871 299.048 150.359 299.233 150.926C299.419 151.482 299.512 152.005 299.512 152.493V152.625H290.986C291.094 151.893 291.279 151.248 291.543 150.691C291.816 150.125 292.148 149.646 292.539 149.256C292.93 148.875 293.369 148.587 293.857 148.392C294.346 148.187 294.863 148.084 295.41 148.084ZM307.202 139.5V141.858H312.593V159.656H307.202V162H320.474V159.656H315.303V139.5H307.202ZM325.22 139.5V141.858H330.61V159.656H325.22V162H338.491V159.656H333.32V139.5H325.22ZM343.237 146.15V148.509H348.628V159.656H343.237V162H356.509V159.656H351.338V146.15H343.237ZM348.276 141.99C348.276 142.43 348.408 142.796 348.672 143.089C348.945 143.382 349.355 143.528 349.902 143.528C350.439 143.528 350.845 143.382 351.118 143.089C351.392 142.796 351.528 142.43 351.528 141.99C351.528 141.746 351.489 141.521 351.411 141.316C351.333 141.111 351.216 140.94 351.06 140.804C350.933 140.677 350.771 140.579 350.576 140.511C350.381 140.433 350.156 140.394 349.902 140.394C349.648 140.394 349.419 140.433 349.214 140.511C349.019 140.579 348.857 140.677 348.73 140.804C348.574 140.95 348.457 141.126 348.379 141.331C348.311 141.536 348.276 141.756 348.276 141.99ZM360.332 153.943V154.251C360.332 155.384 360.479 156.443 360.771 157.43C361.064 158.406 361.484 159.256 362.031 159.979C362.568 160.701 363.228 161.268 364.009 161.678C364.79 162.088 365.664 162.293 366.631 162.293C367.207 162.293 367.744 162.229 368.242 162.103C368.74 161.985 369.194 161.814 369.604 161.59C369.868 161.443 370.112 161.272 370.337 161.077C370.571 160.882 370.791 160.667 370.996 160.433V161.795C370.996 162.479 370.898 163.084 370.703 163.611C370.508 164.139 370.229 164.578 369.868 164.93C369.497 165.291 369.053 165.564 368.535 165.75C368.018 165.936 367.437 166.028 366.792 166.028C366.431 166.028 366.069 165.989 365.708 165.911C365.347 165.843 364.985 165.726 364.624 165.56C364.263 165.394 363.906 165.169 363.555 164.886C363.203 164.612 362.861 164.275 362.529 163.875L361.123 165.501C361.484 166.019 361.914 166.453 362.412 166.805C362.92 167.156 363.447 167.435 363.994 167.64C364.531 167.854 365.063 168.006 365.591 168.094C366.118 168.191 366.587 168.24 366.997 168.24C367.993 168.24 368.901 168.094 369.722 167.801C370.542 167.508 371.25 167.078 371.846 166.512C372.432 165.945 372.886 165.257 373.208 164.446C373.54 163.636 373.706 162.708 373.706 161.663V146.15H371.245L371.113 147.879C370.928 147.645 370.728 147.43 370.513 147.234C370.308 147.039 370.088 146.868 369.854 146.722C369.424 146.438 368.94 146.224 368.403 146.077C367.876 145.931 367.295 145.857 366.66 145.857C365.674 145.857 364.79 146.058 364.009 146.458C363.228 146.858 362.563 147.415 362.017 148.128C361.47 148.841 361.05 149.695 360.757 150.691C360.474 151.678 360.332 152.762 360.332 153.943ZM363.042 154.251V153.943C363.042 153.172 363.12 152.439 363.276 151.746C363.442 151.043 363.701 150.423 364.053 149.886C364.395 149.358 364.834 148.938 365.371 148.626C365.918 148.313 366.572 148.157 367.334 148.157C367.783 148.157 368.193 148.216 368.564 148.333C368.936 148.44 369.272 148.592 369.575 148.787C369.878 148.992 370.146 149.231 370.381 149.505C370.615 149.778 370.82 150.081 370.996 150.413V157.679C370.82 158.021 370.615 158.333 370.381 158.616C370.146 158.899 369.883 159.144 369.59 159.349C369.287 159.554 368.945 159.715 368.564 159.832C368.193 159.939 367.773 159.993 367.305 159.993C366.553 159.993 365.908 159.842 365.371 159.539C364.834 159.227 364.395 158.807 364.053 158.279C363.701 157.752 363.442 157.142 363.276 156.448C363.12 155.755 363.042 155.022 363.042 154.251ZM385.85 162.293C387.393 162.293 388.687 161.985 389.731 161.37C390.786 160.745 391.577 160.032 392.104 159.231L390.449 157.942C389.951 158.587 389.326 159.104 388.574 159.495C387.822 159.886 386.963 160.081 385.996 160.081C385.264 160.081 384.595 159.944 383.989 159.671C383.384 159.397 382.866 159.021 382.437 158.543C382.017 158.094 381.685 157.576 381.44 156.99C381.206 156.404 381.055 155.726 380.986 154.954V154.852H392.31V153.636C392.31 152.532 392.168 151.507 391.885 150.56C391.611 149.612 391.191 148.787 390.625 148.084C390.059 147.391 389.346 146.849 388.486 146.458C387.637 146.058 386.641 145.857 385.498 145.857C384.59 145.857 383.701 146.043 382.832 146.414C381.973 146.785 381.206 147.317 380.532 148.011C379.849 148.714 379.302 149.573 378.892 150.589C378.481 151.595 378.276 152.737 378.276 154.017V154.632C378.276 155.735 378.462 156.756 378.833 157.693C379.204 158.631 379.722 159.441 380.386 160.125C381.05 160.809 381.846 161.341 382.773 161.722C383.711 162.103 384.736 162.293 385.85 162.293ZM385.498 148.084C386.191 148.084 386.787 148.211 387.285 148.465C387.793 148.719 388.213 149.051 388.545 149.461C388.877 149.871 389.136 150.359 389.321 150.926C389.507 151.482 389.6 152.005 389.6 152.493V152.625H381.074C381.182 151.893 381.367 151.248 381.631 150.691C381.904 150.125 382.236 149.646 382.627 149.256C383.018 148.875 383.457 148.587 383.945 148.392C384.434 148.187 384.951 148.084 385.498 148.084ZM396.865 162H399.575V150.633C399.761 150.291 399.976 149.979 400.22 149.695C400.474 149.412 400.747 149.163 401.04 148.948C401.401 148.704 401.797 148.514 402.227 148.377C402.656 148.23 403.12 148.157 403.618 148.157C404.194 148.157 404.702 148.226 405.142 148.362C405.591 148.499 405.972 148.719 406.284 149.021C406.587 149.324 406.816 149.72 406.973 150.208C407.129 150.696 407.207 151.292 407.207 151.995V162H409.917V151.937C409.917 150.882 409.785 149.974 409.521 149.212C409.268 148.44 408.901 147.806 408.423 147.308C407.944 146.81 407.363 146.443 406.68 146.209C406.006 145.975 405.254 145.857 404.424 145.857C403.809 145.867 403.223 145.96 402.666 146.136C402.119 146.302 401.611 146.541 401.143 146.854C400.83 147.059 400.532 147.303 400.249 147.586C399.976 147.859 399.722 148.162 399.487 148.494L399.297 146.15H396.865V162ZM421.636 160.096C420.786 160.096 420.073 159.93 419.497 159.598C418.931 159.256 418.477 158.812 418.135 158.265C417.783 157.728 417.529 157.122 417.373 156.448C417.227 155.765 417.153 155.076 417.153 154.383V153.768C417.153 153.084 417.227 152.405 417.373 151.731C417.529 151.058 417.783 150.447 418.135 149.9C418.486 149.363 418.945 148.929 419.512 148.597C420.088 148.255 420.796 148.084 421.636 148.084C422.183 148.084 422.69 148.177 423.159 148.362C423.638 148.548 424.048 148.802 424.39 149.124C424.731 149.446 425 149.822 425.195 150.252C425.4 150.672 425.508 151.121 425.518 151.6H428.081C428.081 150.799 427.92 150.047 427.598 149.344C427.275 148.641 426.831 148.03 426.265 147.513C425.688 147.005 425.005 146.604 424.214 146.312C423.433 146.009 422.573 145.857 421.636 145.857C420.435 145.857 419.385 146.072 418.486 146.502C417.588 146.932 416.841 147.508 416.245 148.23C415.64 148.963 415.186 149.808 414.883 150.765C414.58 151.722 414.429 152.723 414.429 153.768V154.383C414.429 155.438 414.58 156.443 414.883 157.4C415.186 158.348 415.64 159.183 416.245 159.905C416.841 160.638 417.588 161.219 418.486 161.648C419.385 162.078 420.435 162.293 421.636 162.293C422.476 162.293 423.281 162.151 424.053 161.868C424.824 161.575 425.508 161.185 426.104 160.696C426.699 160.218 427.173 159.661 427.524 159.026C427.886 158.382 428.071 157.708 428.081 157.005H425.518C425.508 157.444 425.391 157.854 425.166 158.235C424.951 158.606 424.663 158.929 424.302 159.202C423.94 159.485 423.525 159.705 423.057 159.861C422.598 160.018 422.124 160.096 421.636 160.096ZM439.902 162.293C441.445 162.293 442.739 161.985 443.784 161.37C444.839 160.745 445.63 160.032 446.157 159.231L444.502 157.942C444.004 158.587 443.379 159.104 442.627 159.495C441.875 159.886 441.016 160.081 440.049 160.081C439.316 160.081 438.647 159.944 438.042 159.671C437.437 159.397 436.919 159.021 436.489 158.543C436.069 158.094 435.737 157.576 435.493 156.99C435.259 156.404 435.107 155.726 435.039 154.954V154.852H446.362V153.636C446.362 152.532 446.221 151.507 445.938 150.56C445.664 149.612 445.244 148.787 444.678 148.084C444.111 147.391 443.398 146.849 442.539 146.458C441.689 146.058 440.693 145.857 439.551 145.857C438.643 145.857 437.754 146.043 436.885 146.414C436.025 146.785 435.259 147.317 434.585 148.011C433.901 148.714 433.354 149.573 432.944 150.589C432.534 151.595 432.329 152.737 432.329 154.017V154.632C432.329 155.735 432.515 156.756 432.886 157.693C433.257 158.631 433.774 159.441 434.438 160.125C435.103 160.809 435.898 161.341 436.826 161.722C437.764 162.103 438.789 162.293 439.902 162.293ZM439.551 148.084C440.244 148.084 440.84 148.211 441.338 148.465C441.846 148.719 442.266 149.051 442.598 149.461C442.93 149.871 443.188 150.359 443.374 150.926C443.56 151.482 443.652 152.005 443.652 152.493V152.625H435.127C435.234 151.893 435.42 151.248 435.684 150.691C435.957 150.125 436.289 149.646 436.68 149.256C437.07 148.875 437.51 148.587 437.998 148.392C438.486 148.187 439.004 148.084 439.551 148.084Z" fill="#632CC5"/>
</g>
<defs>
<clipPath id="clip0_1125_222">
<rect width="520" height="245" fill="white"/>
</clipPath>
</defs>
</svg>
