<svg width="520" height="210" viewBox="0 0 520 210" fill="none" xmlns="http://www.w3.org/2000/svg">
<rect x="1.5" y="1.5" width="517" height="207" rx="18.5" fill="#141321" stroke="#D93A7C" stroke-width="3"/>
<path d="M105.475 64.8047L106.928 70H111.986L103.988 45.1172H99.6304L91.4785 70H96.5371L98.0068 64.8047H105.475ZM99.186 60.7202L101.801 51.5601L104.347 60.7202H99.186ZM114.43 70H119.198V56.8579C119.358 56.6073 119.534 56.3794 119.728 56.1743C119.922 55.9692 120.138 55.7926 120.377 55.6445C120.674 55.4395 121.01 55.2856 121.386 55.1831C121.773 55.0806 122.195 55.0293 122.65 55.0293C123.197 55.0293 123.687 55.0863 124.12 55.2002C124.553 55.3027 124.923 55.4907 125.231 55.7642C125.539 56.0376 125.772 56.4136 125.932 56.8921C126.103 57.3592 126.188 57.9574 126.188 58.6865V70H130.939V58.6182C130.939 57.2738 130.779 56.1344 130.46 55.2002C130.153 54.2546 129.72 53.4798 129.162 52.876C128.592 52.2835 127.92 51.8506 127.145 51.5771C126.37 51.3037 125.516 51.167 124.582 51.167C123.852 51.167 123.163 51.2695 122.514 51.4746C121.864 51.6797 121.266 51.9759 120.719 52.3633C120.4 52.5911 120.098 52.8475 119.813 53.1323C119.529 53.4172 119.267 53.7305 119.027 54.0723L118.737 51.5088H114.43V70ZM144.167 46.98H139.416V51.5088H135.194V55.0122H139.416V63.4204C139.416 64.6395 139.575 65.6877 139.894 66.5649C140.213 67.4308 140.669 68.1429 141.261 68.7012C141.842 69.2708 142.543 69.6924 143.363 69.9658C144.195 70.2279 145.118 70.3589 146.132 70.3589C146.656 70.3589 147.186 70.3304 147.721 70.2734C148.268 70.2279 148.792 70.1595 149.293 70.0684C149.795 69.9772 150.268 69.8633 150.712 69.7266C151.156 69.5785 151.544 69.4076 151.874 69.2139L151.413 65.9497C151.196 66.0067 150.934 66.0636 150.626 66.1206C150.33 66.1776 150.011 66.2288 149.669 66.2744C149.316 66.3314 148.946 66.377 148.559 66.4111C148.183 66.4453 147.812 66.4624 147.448 66.4624C146.946 66.4624 146.491 66.4054 146.081 66.2915C145.682 66.1776 145.34 65.9839 145.055 65.7104C144.77 65.4484 144.548 65.0952 144.389 64.6509C144.241 64.1951 144.167 63.6312 144.167 62.959V55.0122H151.071V51.5088H144.167V46.98ZM155.822 60.5835V60.9424C155.822 62.2982 156.015 63.5514 156.403 64.7021C156.79 65.8415 157.36 66.8327 158.112 67.6758C158.852 68.5189 159.764 69.1797 160.846 69.6582C161.94 70.1253 163.182 70.3589 164.572 70.3589C165.95 70.3589 167.181 70.1253 168.263 69.6582C169.346 69.1797 170.257 68.5189 170.998 67.6758C171.738 66.8327 172.302 65.8415 172.689 64.7021C173.077 63.5514 173.271 62.2982 173.271 60.9424V60.5835C173.271 59.2391 173.077 57.9972 172.689 56.8579C172.302 55.7072 171.738 54.7103 170.998 53.8672C170.246 53.0241 169.328 52.3633 168.246 51.8848C167.164 51.4062 165.928 51.167 164.538 51.167C163.148 51.167 161.911 51.4062 160.829 51.8848C159.758 52.3633 158.852 53.0241 158.112 53.8672C157.36 54.7103 156.79 55.7072 156.403 56.8579C156.015 57.9972 155.822 59.2391 155.822 60.5835ZM160.573 60.9424V60.5835C160.573 59.8315 160.647 59.1195 160.795 58.4473C160.943 57.7751 161.177 57.1826 161.496 56.6699C161.815 56.1572 162.225 55.7528 162.726 55.4565C163.227 55.1603 163.831 55.0122 164.538 55.0122C165.255 55.0122 165.865 55.1603 166.366 55.4565C166.868 55.7528 167.278 56.1572 167.597 56.6699C167.904 57.1826 168.132 57.7751 168.28 58.4473C168.428 59.1195 168.502 59.8315 168.502 60.5835V60.9424C168.502 61.7171 168.428 62.4463 168.28 63.1299C168.132 63.8021 167.904 64.3888 167.597 64.8901C167.278 65.4028 166.868 65.8073 166.366 66.1035C165.865 66.3997 165.267 66.5479 164.572 66.5479C163.854 66.5479 163.239 66.3997 162.726 66.1035C162.225 65.8073 161.815 65.4028 161.496 64.8901C161.177 64.3888 160.943 63.8021 160.795 63.1299C160.647 62.4463 160.573 61.7171 160.573 60.9424ZM171.066 47.7832L166.042 43.6304H163.29L158.334 47.749V48.2617H162.042L164.657 46.0913L167.289 48.2617H171.066V47.7832ZM177.492 70H182.26V56.8579C182.419 56.6073 182.596 56.3794 182.79 56.1743C182.983 55.9692 183.2 55.7926 183.439 55.6445C183.735 55.4395 184.071 55.2856 184.447 55.1831C184.835 55.0806 185.256 55.0293 185.712 55.0293C186.259 55.0293 186.749 55.0863 187.182 55.2002C187.615 55.3027 187.985 55.4907 188.292 55.7642C188.6 56.0376 188.834 56.4136 188.993 56.8921C189.164 57.3592 189.25 57.9574 189.25 58.6865V70H194V58.6182C194 57.2738 193.841 56.1344 193.522 55.2002C193.214 54.2546 192.781 53.4798 192.223 52.876C191.653 52.2835 190.981 51.8506 190.207 51.5771C189.432 51.3037 188.577 51.167 187.643 51.167C186.914 51.167 186.225 51.2695 185.575 51.4746C184.926 51.6797 184.328 51.9759 183.781 52.3633C183.462 52.5911 183.16 52.8475 182.875 53.1323C182.59 53.4172 182.328 53.7305 182.089 54.0723L181.798 51.5088H177.492V70ZM199.777 51.5088V55.3882H205.041V66.1377H199.777V70H214.85V66.1377H209.843V51.5088H199.777ZM204.699 46.7749C204.699 47.1395 204.761 47.4813 204.887 47.8003C205.023 48.1079 205.211 48.37 205.451 48.5864C205.69 48.8143 205.975 48.9909 206.305 49.1162C206.647 49.2415 207.023 49.3042 207.433 49.3042C208.276 49.3042 208.943 49.0706 209.433 48.6035C209.934 48.125 210.185 47.5155 210.185 46.7749C210.185 46.0343 209.934 45.4305 209.433 44.9634C208.943 44.4849 208.276 44.2456 207.433 44.2456C207.023 44.2456 206.647 44.3083 206.305 44.4336C205.975 44.5589 205.69 44.7298 205.451 44.9463C205.211 45.1742 205.023 45.4476 204.887 45.7666C204.761 46.0742 204.699 46.4103 204.699 46.7749ZM218.883 60.5835V60.9424C218.883 62.2982 219.077 63.5514 219.464 64.7021C219.852 65.8415 220.421 66.8327 221.173 67.6758C221.914 68.5189 222.825 69.1797 223.908 69.6582C225.001 70.1253 226.243 70.3589 227.633 70.3589C229.012 70.3589 230.242 70.1253 231.325 69.6582C232.407 69.1797 233.319 68.5189 234.059 67.6758C234.8 66.8327 235.364 65.8415 235.751 64.7021C236.138 63.5514 236.332 62.2982 236.332 60.9424V60.5835C236.332 59.2391 236.138 57.9972 235.751 56.8579C235.364 55.7072 234.8 54.7103 234.059 53.8672C233.307 53.0241 232.39 52.3633 231.308 51.8848C230.225 51.4062 228.989 51.167 227.599 51.167C226.209 51.167 224.973 51.4062 223.891 51.8848C222.82 52.3633 221.914 53.0241 221.173 53.8672C220.421 54.7103 219.852 55.7072 219.464 56.8579C219.077 57.9972 218.883 59.2391 218.883 60.5835ZM223.634 60.9424V60.5835C223.634 59.8315 223.708 59.1195 223.856 58.4473C224.005 57.7751 224.238 57.1826 224.557 56.6699C224.876 56.1572 225.286 55.7528 225.788 55.4565C226.289 55.1603 226.893 55.0122 227.599 55.0122C228.317 55.0122 228.926 55.1603 229.428 55.4565C229.929 55.7528 230.339 56.1572 230.658 56.6699C230.966 57.1826 231.194 57.7751 231.342 58.4473C231.49 59.1195 231.564 59.8315 231.564 60.5835V60.9424C231.564 61.7171 231.49 62.4463 231.342 63.1299C231.194 63.8021 230.966 64.3888 230.658 64.8901C230.339 65.4028 229.929 65.8073 229.428 66.1035C228.926 66.3997 228.328 66.5479 227.633 66.5479C226.916 66.5479 226.3 66.3997 225.788 66.1035C225.286 65.8073 224.876 65.4028 224.557 64.8901C224.238 64.3888 224.005 63.8021 223.856 63.1299C223.708 62.4463 223.634 61.7171 223.634 60.9424ZM269.845 60.7031L274.528 70H279.672V69.7778L274.323 59.5068C275.006 59.1992 275.622 58.8346 276.168 58.4131C276.727 57.9915 277.205 57.4959 277.604 56.9263C277.991 56.368 278.288 55.7357 278.493 55.0293C278.709 54.3115 278.817 53.5083 278.817 52.6196C278.817 51.3892 278.601 50.3068 278.168 49.3726C277.746 48.4383 277.143 47.6579 276.356 47.0312C275.559 46.4046 274.602 45.9318 273.485 45.6128C272.369 45.2824 271.121 45.1172 269.743 45.1172H261.403V70H266.205V60.7031H269.845ZM266.205 56.8066V49.0137H269.743C270.403 49.0137 270.99 49.0934 271.503 49.2529C272.016 49.4124 272.449 49.6403 272.802 49.9365C273.201 50.2669 273.497 50.6885 273.69 51.2012C273.896 51.7025 273.998 52.2835 273.998 52.9443C273.998 53.4912 273.918 53.9868 273.759 54.4312C273.611 54.8755 273.389 55.2572 273.092 55.5762C272.739 55.9749 272.278 56.2826 271.708 56.499C271.15 56.7041 270.5 56.8066 269.76 56.8066H266.205ZM291.566 70.3418C293.355 70.3418 294.905 69.9943 296.215 69.2993C297.525 68.6043 298.482 67.8296 299.086 66.9751L296.71 64.4116C296.164 65.118 295.451 65.6478 294.574 66.001C293.697 66.3542 292.791 66.5308 291.857 66.5308C291.196 66.5308 290.587 66.4282 290.028 66.2231C289.47 66.0181 288.974 65.7275 288.542 65.3516C288.12 64.987 287.784 64.5825 287.533 64.1382C287.283 63.6825 287.077 63.0843 286.918 62.3438V62.2925H299.462V60.2759C299.462 58.9201 299.274 57.6839 298.898 56.5674C298.522 55.4395 297.975 54.4767 297.257 53.6792C296.528 52.8817 295.639 52.2664 294.591 51.8335C293.555 51.3892 292.37 51.167 291.037 51.167C289.749 51.167 288.559 51.4006 287.465 51.8677C286.371 52.3348 285.425 52.9899 284.628 53.833C283.83 54.6761 283.209 55.6844 282.765 56.8579C282.321 58.02 282.099 59.3075 282.099 60.7202V61.4038C282.099 62.6457 282.321 63.8135 282.765 64.9072C283.221 65.9896 283.865 66.9295 284.696 67.7271C285.528 68.536 286.525 69.174 287.687 69.6411C288.849 70.1082 290.142 70.3418 291.566 70.3418ZM291.002 55.0122C291.606 55.0122 292.136 55.109 292.592 55.3027C293.059 55.485 293.452 55.7357 293.771 56.0547C294.09 56.3851 294.341 56.7725 294.523 57.2168C294.705 57.6611 294.796 58.134 294.796 58.6353V59.0112H287.003C287.117 58.4074 287.288 57.8605 287.516 57.3706C287.744 56.8807 288.029 56.4591 288.371 56.106C288.701 55.7528 289.088 55.485 289.533 55.3027C289.977 55.109 290.467 55.0122 291.002 55.0122ZM320.277 60.9424V60.5835C320.277 59.467 320.175 58.4188 319.97 57.439C319.776 56.4591 319.474 55.5762 319.064 54.79C318.802 54.3001 318.5 53.8501 318.158 53.4399C317.816 53.0184 317.435 52.6595 317.013 52.3633C316.489 51.9759 315.891 51.6797 315.219 51.4746C314.558 51.2695 313.829 51.167 313.031 51.167C312.45 51.167 311.909 51.2297 311.408 51.355C310.918 51.4689 310.462 51.6455 310.041 51.8848C309.744 52.0443 309.465 52.238 309.203 52.4658C308.941 52.6823 308.696 52.9215 308.468 53.1836V43.75H303.717V70H307.99L308.212 68.0347C308.406 68.2853 308.611 68.5189 308.827 68.7354C309.044 68.9404 309.277 69.1284 309.528 69.2993C309.995 69.6411 310.519 69.8975 311.1 70.0684C311.693 70.2507 312.348 70.3418 313.065 70.3418C313.852 70.3418 314.569 70.2393 315.219 70.0342C315.88 69.8405 316.472 69.5557 316.996 69.1797C317.577 68.7809 318.078 68.2796 318.5 67.6758C318.933 67.0719 319.28 66.3997 319.542 65.6592C319.782 64.987 319.964 64.2578 320.089 63.4717C320.215 62.6742 320.277 61.8311 320.277 60.9424ZM315.526 60.5835V60.9424C315.526 61.4209 315.504 61.8823 315.458 62.3267C315.424 62.771 315.361 63.1812 315.27 63.5571C315.156 64.0698 314.985 64.5312 314.757 64.9414C314.541 65.3402 314.256 65.6649 313.903 65.9155C313.652 66.0978 313.356 66.2402 313.014 66.3428C312.672 66.4453 312.291 66.4966 311.869 66.4966C311.379 66.4966 310.941 66.4396 310.553 66.3257C310.177 66.2118 309.847 66.0465 309.562 65.8301C309.323 65.6592 309.112 65.4598 308.93 65.2319C308.759 64.9927 308.605 64.7306 308.468 64.4458V57.0801C308.571 56.8636 308.685 56.6642 308.81 56.4819C308.935 56.2882 309.072 56.1174 309.22 55.9692C309.528 55.6616 309.898 55.4281 310.331 55.2686C310.764 55.109 311.265 55.0293 311.835 55.0293C312.257 55.0293 312.632 55.0806 312.963 55.1831C313.293 55.2743 313.59 55.4167 313.852 55.6104C314.25 55.918 314.547 56.2598 314.74 56.6357C314.945 57.0003 315.111 57.4162 315.236 57.8833C315.338 58.2821 315.412 58.7093 315.458 59.165C315.504 59.6208 315.526 60.0936 315.526 60.5835ZM323.986 60.5835V60.9424C323.986 62.2982 324.18 63.5514 324.567 64.7021C324.954 65.8415 325.524 66.8327 326.276 67.6758C327.016 68.5189 327.928 69.1797 329.01 69.6582C330.104 70.1253 331.346 70.3589 332.736 70.3589C334.114 70.3589 335.345 70.1253 336.427 69.6582C337.51 69.1797 338.421 68.5189 339.162 67.6758C339.902 66.8327 340.466 65.8415 340.854 64.7021C341.241 63.5514 341.435 62.2982 341.435 60.9424V60.5835C341.435 59.2391 341.241 57.9972 340.854 56.8579C340.466 55.7072 339.902 54.7103 339.162 53.8672C338.41 53.0241 337.493 52.3633 336.41 51.8848C335.328 51.4062 334.092 51.167 332.702 51.167C331.312 51.167 330.076 51.4062 328.993 51.8848C327.922 52.3633 327.016 53.0241 326.276 53.8672C325.524 54.7103 324.954 55.7072 324.567 56.8579C324.18 57.9972 323.986 59.2391 323.986 60.5835ZM328.737 60.9424V60.5835C328.737 59.8315 328.811 59.1195 328.959 58.4473C329.107 57.7751 329.341 57.1826 329.66 56.6699C329.979 56.1572 330.389 55.7528 330.89 55.4565C331.391 55.1603 331.995 55.0122 332.702 55.0122C333.419 55.0122 334.029 55.1603 334.53 55.4565C335.032 55.7528 335.442 56.1572 335.761 56.6699C336.068 57.1826 336.296 57.7751 336.444 58.4473C336.592 59.1195 336.667 59.8315 336.667 60.5835V60.9424C336.667 61.7171 336.592 62.4463 336.444 63.1299C336.296 63.8021 336.068 64.3888 335.761 64.8901C335.442 65.4028 335.032 65.8073 334.53 66.1035C334.029 66.3997 333.431 66.5479 332.736 66.5479C332.018 66.5479 331.403 66.3997 330.89 66.1035C330.389 65.8073 329.979 65.4028 329.66 64.8901C329.341 64.3888 329.107 63.8021 328.959 63.1299C328.811 62.4463 328.737 61.7171 328.737 60.9424ZM357.721 70H362.028V51.5088H357.26V64.48C357.112 64.7762 356.935 65.0439 356.73 65.2832C356.525 65.5225 356.291 65.7275 356.029 65.8984C355.722 66.0921 355.363 66.2402 354.953 66.3428C354.554 66.4453 354.104 66.4966 353.603 66.4966C353.044 66.4966 352.571 66.4282 352.184 66.2915C351.797 66.1548 351.483 65.9269 351.244 65.6079C351.005 65.3003 350.828 64.8901 350.714 64.3774C350.612 63.8647 350.561 63.2324 350.561 62.4805V51.5088H345.81V62.4463C345.81 63.8477 345.963 65.0496 346.271 66.0522C346.59 67.0435 347.034 67.8581 347.604 68.4961C348.174 69.1455 348.857 69.6183 349.655 69.9146C350.452 70.2108 351.33 70.3589 352.287 70.3589C353.335 70.3589 354.298 70.0968 355.175 69.5728C356.063 69.0487 356.821 68.3252 357.448 67.4023L357.721 70ZM374.862 66.5479C374.099 66.5479 373.467 66.394 372.965 66.0864C372.475 65.7788 372.088 65.3687 371.803 64.856C371.507 64.3547 371.302 63.7736 371.188 63.1128C371.074 62.4406 371.017 61.7456 371.017 61.0278V60.5151C371.017 59.8088 371.074 59.1252 371.188 58.4644C371.313 57.8035 371.524 57.2168 371.82 56.7041C372.105 56.1914 372.493 55.7812 372.982 55.4736C373.472 55.166 374.093 55.0122 374.845 55.0122C375.358 55.0122 375.831 55.1034 376.264 55.2856C376.697 55.4565 377.067 55.6901 377.375 55.9863C377.682 56.2826 377.916 56.6357 378.075 57.0459C378.235 57.4561 378.303 57.889 378.28 58.3447H382.758C382.781 57.251 382.598 56.2655 382.211 55.3882C381.824 54.4995 381.282 53.7419 380.587 53.1152C379.881 52.5 379.044 52.0215 378.075 51.6797C377.107 51.3379 376.053 51.167 374.914 51.167C373.489 51.167 372.236 51.4119 371.154 51.9019C370.083 52.3918 369.183 53.0583 368.454 53.9014C367.724 54.7445 367.178 55.7357 366.813 56.875C366.448 58.0029 366.266 59.2163 366.266 60.5151V61.0278C366.266 62.3267 366.448 63.5457 366.813 64.6851C367.189 65.813 367.742 66.7985 368.471 67.6416C369.188 68.4847 370.089 69.1512 371.171 69.6411C372.253 70.1196 373.512 70.3589 374.948 70.3589C376.007 70.3589 377.01 70.1937 377.956 69.8633C378.913 69.5215 379.75 69.0544 380.468 68.4619C381.186 67.8695 381.75 67.1631 382.16 66.3428C382.581 65.5225 382.781 64.6338 382.758 63.6768H378.28C378.303 64.1097 378.223 64.5028 378.041 64.856C377.87 65.2091 377.625 65.5111 377.306 65.7617C376.987 66.0124 376.617 66.2061 376.195 66.3428C375.774 66.4795 375.329 66.5479 374.862 66.5479ZM376.691 69.8291H373.153L372.624 72.2388C373.068 72.2729 373.45 72.3128 373.769 72.3584C374.088 72.4154 374.344 72.5008 374.538 72.6147C374.731 72.7173 374.874 72.8483 374.965 73.0078C375.056 73.1673 375.102 73.361 375.102 73.5889C375.102 73.8509 375.045 74.0731 374.931 74.2554C374.828 74.4377 374.686 74.5858 374.503 74.6997C374.321 74.8022 374.105 74.8763 373.854 74.9219C373.615 74.9788 373.353 75.0073 373.068 75.0073L373.188 77.7417C374.156 77.7417 375.005 77.6449 375.734 77.4512C376.463 77.2575 377.078 76.984 377.58 76.6309C378.069 76.2891 378.44 75.8732 378.69 75.3833C378.941 74.8934 379.066 74.3465 379.066 73.7427C379.066 73.2528 378.992 72.8312 378.844 72.478C378.696 72.1362 378.502 71.8457 378.263 71.6064C378.024 71.3786 377.75 71.1963 377.443 71.0596C377.135 70.9342 376.822 70.8431 376.503 70.7861L376.691 69.8291ZM399.25 70H404.069V69.7095C403.83 69.2424 403.647 68.6841 403.522 68.0347C403.397 67.3853 403.334 66.5649 403.334 65.5737V57.644C403.334 56.5731 403.135 55.6331 402.736 54.8242C402.337 54.0039 401.785 53.326 401.078 52.7905C400.372 52.255 399.534 51.8506 398.566 51.5771C397.609 51.3037 396.572 51.167 395.456 51.167C394.214 51.167 393.109 51.3265 392.14 51.6455C391.183 51.9531 390.374 52.3747 389.713 52.9102C389.041 53.4456 388.528 54.0666 388.175 54.7729C387.833 55.4793 387.663 56.2256 387.663 57.0117H392.414C392.414 56.6813 392.459 56.3794 392.55 56.106C392.653 55.8325 392.807 55.599 393.012 55.4053C393.24 55.1888 393.536 55.0236 393.9 54.9097C394.265 54.7843 394.698 54.7217 395.199 54.7217C395.769 54.7217 396.264 54.7957 396.686 54.9438C397.119 55.0806 397.478 55.2799 397.763 55.542C398.036 55.7926 398.241 56.0946 398.378 56.4478C398.515 56.7896 398.583 57.1769 398.583 57.6099V58.7036H395.934C394.567 58.7036 393.354 58.8289 392.294 59.0796C391.246 59.3188 390.363 59.672 389.645 60.1392C388.847 60.6519 388.249 61.307 387.851 62.1045C387.452 62.8906 387.252 63.7964 387.252 64.8218C387.252 65.6193 387.412 66.3599 387.731 67.0435C388.05 67.7157 388.494 68.2967 389.064 68.7866C389.634 69.2765 390.312 69.6582 391.098 69.9316C391.895 70.2051 392.767 70.3418 393.712 70.3418C394.293 70.3418 394.835 70.2848 395.336 70.1709C395.837 70.0684 396.299 69.9202 396.72 69.7266C397.13 69.5443 397.506 69.3278 397.848 69.0771C398.19 68.8265 398.492 68.5588 398.754 68.2739C398.811 68.6043 398.879 68.9176 398.959 69.2139C399.039 69.5101 399.136 69.7721 399.25 70ZM394.721 66.6675C394.276 66.6675 393.883 66.6162 393.542 66.5137C393.211 66.3997 392.932 66.2516 392.704 66.0693C392.476 65.8757 392.3 65.6421 392.174 65.3687C392.06 65.0838 392.003 64.7762 392.003 64.4458C392.003 64.0243 392.083 63.6369 392.243 63.2837C392.402 62.9191 392.647 62.6058 392.978 62.3438C393.308 62.0931 393.735 61.8994 394.259 61.7627C394.783 61.6146 395.416 61.5405 396.156 61.5405H398.583V64.7192C398.446 64.9585 398.258 65.1978 398.019 65.437C397.78 65.6649 397.495 65.87 397.165 66.0522C396.834 66.2345 396.464 66.3826 396.054 66.4966C395.644 66.6105 395.199 66.6675 394.721 66.6675ZM420.646 64.9243C420.646 65.2091 420.572 65.4712 420.424 65.7104C420.287 65.9497 420.076 66.1605 419.792 66.3428C419.495 66.5251 419.114 66.6732 418.646 66.7871C418.191 66.8896 417.655 66.9409 417.04 66.9409C416.527 66.9409 416.026 66.8896 415.536 66.7871C415.058 66.6846 414.63 66.5194 414.254 66.2915C413.878 66.075 413.571 65.7902 413.332 65.437C413.092 65.0724 412.956 64.6395 412.921 64.1382H408.393C408.393 64.8901 408.575 65.6421 408.939 66.394C409.315 67.1346 409.862 67.7954 410.58 68.3765C411.298 68.9689 412.187 69.4474 413.246 69.812C414.317 70.1766 415.548 70.3589 416.938 70.3589C418.202 70.3589 419.347 70.2222 420.373 69.9487C421.398 69.6639 422.275 69.2708 423.004 68.7695C423.722 68.2682 424.275 67.6758 424.662 66.9922C425.061 66.2972 425.26 65.5396 425.26 64.7192C425.26 63.8306 425.061 63.0672 424.662 62.4292C424.275 61.7798 423.734 61.2272 423.039 60.7715C422.344 60.3271 421.518 59.9626 420.561 59.6777C419.604 59.3929 418.567 59.1593 417.45 58.9771C416.675 58.8631 416.037 58.7321 415.536 58.584C415.035 58.4245 414.642 58.2479 414.357 58.0542C414.061 57.8719 413.856 57.6668 413.742 57.439C413.628 57.1997 413.571 56.9434 413.571 56.6699C413.571 56.3965 413.633 56.1401 413.759 55.9009C413.896 55.6502 414.089 55.4338 414.34 55.2515C414.613 55.0464 414.966 54.8869 415.399 54.7729C415.832 54.659 416.339 54.6021 416.92 54.6021C417.604 54.6021 418.185 54.6875 418.664 54.8584C419.153 55.0293 419.541 55.2572 419.826 55.542C420.031 55.7585 420.185 56.0034 420.287 56.2769C420.39 56.5389 420.441 56.8237 420.441 57.1313H425.192C425.192 56.2769 425.004 55.485 424.628 54.7559C424.252 54.0267 423.711 53.3944 423.004 52.8589C422.287 52.3348 421.415 51.9246 420.39 51.6284C419.364 51.3208 418.208 51.167 416.92 51.167C415.69 51.167 414.585 51.3208 413.605 51.6284C412.625 51.936 411.793 52.3519 411.11 52.876C410.426 53.4001 409.902 54.0096 409.538 54.7046C409.173 55.3996 408.991 56.1287 408.991 56.8921C408.991 57.6782 409.167 58.3732 409.521 58.9771C409.885 59.5809 410.386 60.1107 411.024 60.5664C411.662 61.0335 412.426 61.4323 413.314 61.7627C414.215 62.0817 415.206 62.3494 416.288 62.5659C417.143 62.7254 417.849 62.8849 418.407 63.0444C418.965 63.2039 419.416 63.3748 419.757 63.5571C420.088 63.7508 420.316 63.9559 420.441 64.1724C420.578 64.3888 420.646 64.6395 420.646 64.9243Z" fill="#F7D747"/>
<path d="M104.1 108H109.788C110.545 107.992 111.277 107.874 111.985 107.646C112.701 107.418 113.332 107.089 113.877 106.657C114.423 106.234 114.858 105.705 115.184 105.07C115.509 104.436 115.668 103.703 115.66 102.873C115.66 102.344 115.578 101.852 115.416 101.396C115.261 100.94 115.041 100.529 114.756 100.163C114.488 99.8294 114.146 99.5243 113.731 99.2476C113.316 98.9709 112.885 98.7796 112.437 98.6738V98.6372C112.868 98.45 113.235 98.2507 113.536 98.0391C113.845 97.8275 114.126 97.5671 114.378 97.2578C114.622 96.9567 114.813 96.6149 114.952 96.2324C115.098 95.8499 115.175 95.4268 115.184 94.9629C115.192 94.1328 115.033 93.4207 114.708 92.8267C114.382 92.2326 113.947 91.7443 113.401 91.3618C112.856 90.9793 112.234 90.6986 111.534 90.5195C110.834 90.3324 110.118 90.2347 109.385 90.2266H104.1V108ZM106.37 99.687H109.971C110.451 99.7033 110.899 99.7847 111.314 99.9312C111.729 100.078 112.091 100.285 112.4 100.554C112.71 100.83 112.95 101.164 113.121 101.555C113.3 101.945 113.385 102.393 113.377 102.897C113.377 103.394 113.279 103.837 113.084 104.228C112.897 104.619 112.64 104.948 112.315 105.217C111.989 105.485 111.615 105.697 111.192 105.852C110.769 105.998 110.321 106.075 109.849 106.083H106.37V99.687ZM106.37 97.8071V92.1553H109.458C109.898 92.1634 110.325 92.2204 110.74 92.3262C111.163 92.432 111.538 92.5947 111.863 92.8145C112.181 93.0423 112.433 93.3312 112.62 93.6812C112.815 94.0311 112.913 94.4543 112.913 94.9507C112.913 95.4146 112.815 95.8215 112.62 96.1714C112.425 96.5213 112.168 96.8143 111.851 97.0503C111.534 97.2944 111.172 97.4816 110.765 97.6118C110.358 97.7339 109.943 97.799 109.52 97.8071H106.37ZM127.842 108H129.893V94.792H127.623V104.265C127.5 104.549 127.346 104.814 127.159 105.058C126.98 105.294 126.768 105.498 126.524 105.668C126.231 105.88 125.885 106.047 125.486 106.169C125.088 106.283 124.636 106.34 124.131 106.34C123.7 106.34 123.318 106.283 122.984 106.169C122.658 106.055 122.382 105.856 122.154 105.571C121.926 105.294 121.755 104.92 121.641 104.448C121.527 103.976 121.47 103.382 121.47 102.666V94.792H119.212V102.641C119.212 103.626 119.318 104.472 119.529 105.18C119.749 105.88 120.058 106.458 120.457 106.914C120.856 107.369 121.336 107.707 121.897 107.927C122.459 108.138 123.086 108.244 123.777 108.244C124.64 108.244 125.401 108.065 126.06 107.707C126.719 107.341 127.269 106.832 127.708 106.181L127.842 108ZM142.93 104.497C142.93 104.708 142.889 104.908 142.808 105.095C142.727 105.282 142.609 105.453 142.454 105.607C142.202 105.86 141.852 106.059 141.404 106.206C140.957 106.344 140.432 106.413 139.83 106.413C139.447 106.413 139.061 106.372 138.67 106.291C138.279 106.21 137.925 106.071 137.608 105.876C137.282 105.681 137.01 105.424 136.79 105.107C136.578 104.79 136.456 104.399 136.424 103.935H134.166C134.166 104.497 134.292 105.038 134.544 105.559C134.804 106.079 135.179 106.535 135.667 106.926C136.147 107.325 136.737 107.646 137.437 107.89C138.137 108.126 138.934 108.244 139.83 108.244C140.611 108.244 141.331 108.151 141.99 107.963C142.649 107.776 143.215 107.512 143.687 107.17C144.159 106.828 144.525 106.417 144.786 105.937C145.054 105.457 145.188 104.924 145.188 104.338C145.188 103.793 145.07 103.312 144.834 102.897C144.607 102.482 144.273 102.116 143.833 101.799C143.394 101.49 142.853 101.225 142.21 101.005C141.567 100.778 140.839 100.578 140.025 100.407C139.406 100.285 138.894 100.159 138.487 100.029C138.088 99.8986 137.771 99.7521 137.535 99.5894C137.291 99.4266 137.12 99.2435 137.022 99.04C136.924 98.8366 136.875 98.6047 136.875 98.3442C136.875 98.092 136.937 97.8478 137.059 97.6118C137.181 97.3758 137.364 97.1683 137.608 96.9893C137.844 96.8102 138.141 96.6678 138.499 96.562C138.865 96.4562 139.288 96.4033 139.769 96.4033C140.232 96.4033 140.647 96.4684 141.014 96.5986C141.388 96.7288 141.705 96.8997 141.966 97.1113C142.226 97.3229 142.43 97.5671 142.576 97.8438C142.723 98.1123 142.796 98.389 142.796 98.6738H145.054C145.054 98.096 144.928 97.5589 144.676 97.0625C144.432 96.5579 144.082 96.1185 143.626 95.7441C143.17 95.3698 142.617 95.0768 141.966 94.8652C141.315 94.6536 140.582 94.5479 139.769 94.5479C139.012 94.5479 138.316 94.6496 137.681 94.853C137.055 95.0565 136.513 95.3332 136.058 95.6831C135.602 96.033 135.248 96.444 134.996 96.916C134.743 97.3799 134.617 97.8804 134.617 98.4175C134.617 98.9627 134.739 99.4429 134.983 99.8579C135.228 100.265 135.573 100.619 136.021 100.92C136.46 101.229 136.989 101.494 137.608 101.713C138.235 101.933 138.926 102.12 139.683 102.275C140.302 102.397 140.818 102.535 141.233 102.69C141.648 102.836 141.982 102.999 142.234 103.178C142.487 103.357 142.666 103.557 142.771 103.776C142.877 103.988 142.93 104.228 142.93 104.497ZM149.522 94.792V96.7573H154.014V106.047H149.522V108H160.582V106.047H156.272V94.792H149.522ZM153.721 91.3252C153.721 91.6914 153.831 91.9966 154.051 92.2407C154.279 92.4849 154.62 92.6069 155.076 92.6069C155.524 92.6069 155.861 92.4849 156.089 92.2407C156.317 91.9966 156.431 91.6914 156.431 91.3252C156.431 91.1217 156.399 90.9346 156.333 90.7637C156.268 90.5928 156.171 90.4504 156.041 90.3364C155.935 90.2306 155.8 90.1493 155.638 90.0923C155.475 90.0272 155.288 89.9946 155.076 89.9946C154.865 89.9946 154.673 90.0272 154.502 90.0923C154.34 90.1493 154.205 90.2306 154.1 90.3364C153.969 90.4585 153.872 90.605 153.807 90.7759C153.75 90.9468 153.721 91.1299 153.721 91.3252ZM164.183 108H166.441V98.5273C166.596 98.2425 166.775 97.9821 166.978 97.7461C167.19 97.5101 167.417 97.3026 167.662 97.1235C167.963 96.9201 168.292 96.7614 168.65 96.6475C169.008 96.5254 169.395 96.4644 169.81 96.4644C170.29 96.4644 170.713 96.5213 171.08 96.6353C171.454 96.7492 171.771 96.9323 172.032 97.1846C172.284 97.4368 172.475 97.7664 172.605 98.1733C172.736 98.5802 172.801 99.0767 172.801 99.6626V108H175.059V99.6138C175.059 98.7349 174.949 97.978 174.729 97.3433C174.518 96.7004 174.213 96.1714 173.814 95.7563C173.415 95.3413 172.931 95.0361 172.361 94.8408C171.8 94.6455 171.173 94.5479 170.481 94.5479C169.969 94.556 169.48 94.6333 169.017 94.7798C168.561 94.9181 168.138 95.1175 167.747 95.3779C167.487 95.5488 167.238 95.7523 167.002 95.9883C166.775 96.2161 166.563 96.4684 166.368 96.7451L166.209 94.792H164.183V108ZM179.197 108H181.456V98.5273C181.61 98.2425 181.789 97.9821 181.993 97.7461C182.204 97.5101 182.432 97.3026 182.676 97.1235C182.977 96.9201 183.307 96.7614 183.665 96.6475C184.023 96.5254 184.41 96.4644 184.825 96.4644C185.305 96.4644 185.728 96.5213 186.094 96.6353C186.469 96.7492 186.786 96.9323 187.046 97.1846C187.299 97.4368 187.49 97.7664 187.62 98.1733C187.75 98.5802 187.815 99.0767 187.815 99.6626V108H190.074V99.6138C190.074 98.7349 189.964 97.978 189.744 97.3433C189.533 96.7004 189.227 96.1714 188.829 95.7563C188.43 95.3413 187.946 95.0361 187.376 94.8408C186.814 94.6455 186.188 94.5479 185.496 94.5479C184.983 94.556 184.495 94.6333 184.031 94.7798C183.576 94.9181 183.152 95.1175 182.762 95.3779C182.501 95.5488 182.253 95.7523 182.017 95.9883C181.789 96.2161 181.578 96.4684 181.382 96.7451L181.224 94.792H179.197V108ZM200.047 108.244C201.333 108.244 202.411 107.988 203.282 107.475C204.161 106.954 204.82 106.36 205.259 105.693L203.88 104.619C203.465 105.156 202.944 105.587 202.317 105.913C201.691 106.238 200.975 106.401 200.169 106.401C199.559 106.401 199.001 106.287 198.497 106.059C197.992 105.831 197.561 105.518 197.203 105.119C196.853 104.745 196.576 104.313 196.373 103.825C196.177 103.337 196.051 102.771 195.994 102.128V102.043H205.43V101.03C205.43 100.11 205.312 99.2557 205.076 98.4663C204.848 97.6769 204.498 96.9893 204.026 96.4033C203.554 95.8255 202.96 95.3739 202.244 95.0483C201.536 94.7147 200.706 94.5479 199.754 94.5479C198.997 94.5479 198.257 94.7025 197.532 95.0117C196.816 95.321 196.177 95.7645 195.616 96.3423C195.046 96.9282 194.59 97.6444 194.249 98.4907C193.907 99.3289 193.736 100.281 193.736 101.347V101.86C193.736 102.779 193.89 103.63 194.2 104.411C194.509 105.192 194.94 105.868 195.494 106.438C196.047 107.007 196.71 107.451 197.483 107.768C198.265 108.085 199.119 108.244 200.047 108.244ZM199.754 96.4033C200.332 96.4033 200.828 96.5091 201.243 96.7207C201.666 96.9323 202.016 97.209 202.293 97.5508C202.57 97.8926 202.785 98.2995 202.94 98.7715C203.095 99.2354 203.172 99.6707 203.172 100.078V100.188H196.067C196.157 99.5771 196.312 99.04 196.531 98.5762C196.759 98.1042 197.036 97.7054 197.361 97.3799C197.687 97.0625 198.053 96.8224 198.46 96.6597C198.867 96.4888 199.298 96.4033 199.754 96.4033ZM218.003 104.497C218.003 104.708 217.963 104.908 217.881 105.095C217.8 105.282 217.682 105.453 217.527 105.607C217.275 105.86 216.925 106.059 216.478 106.206C216.03 106.344 215.505 106.413 214.903 106.413C214.52 106.413 214.134 106.372 213.743 106.291C213.353 106.21 212.999 106.071 212.681 105.876C212.356 105.681 212.083 105.424 211.863 105.107C211.652 104.79 211.53 104.399 211.497 103.935H209.239C209.239 104.497 209.365 105.038 209.617 105.559C209.878 106.079 210.252 106.535 210.74 106.926C211.22 107.325 211.81 107.646 212.51 107.89C213.21 108.126 214.008 108.244 214.903 108.244C215.684 108.244 216.404 108.151 217.063 107.963C217.723 107.776 218.288 107.512 218.76 107.17C219.232 106.828 219.598 106.417 219.859 105.937C220.127 105.457 220.262 104.924 220.262 104.338C220.262 103.793 220.144 103.312 219.908 102.897C219.68 102.482 219.346 102.116 218.907 101.799C218.467 101.49 217.926 101.225 217.283 101.005C216.64 100.778 215.912 100.578 215.098 100.407C214.48 100.285 213.967 100.159 213.56 100.029C213.161 99.8986 212.844 99.7521 212.608 99.5894C212.364 99.4266 212.193 99.2435 212.095 99.04C211.998 98.8366 211.949 98.6047 211.949 98.3442C211.949 98.092 212.01 97.8478 212.132 97.6118C212.254 97.3758 212.437 97.1683 212.681 96.9893C212.917 96.8102 213.214 96.6678 213.572 96.562C213.938 96.4562 214.362 96.4033 214.842 96.4033C215.306 96.4033 215.721 96.4684 216.087 96.5986C216.461 96.7288 216.779 96.8997 217.039 97.1113C217.299 97.3229 217.503 97.5671 217.649 97.8438C217.796 98.1123 217.869 98.389 217.869 98.6738H220.127C220.127 98.096 220.001 97.5589 219.749 97.0625C219.505 96.5579 219.155 96.1185 218.699 95.7441C218.243 95.3698 217.69 95.0768 217.039 94.8652C216.388 94.6536 215.656 94.5479 214.842 94.5479C214.085 94.5479 213.389 94.6496 212.754 94.853C212.128 95.0565 211.587 95.3332 211.131 95.6831C210.675 96.033 210.321 96.444 210.069 96.916C209.817 97.3799 209.69 97.8804 209.69 98.4175C209.69 98.9627 209.812 99.4429 210.057 99.8579C210.301 100.265 210.647 100.619 211.094 100.92C211.534 101.229 212.063 101.494 212.681 101.713C213.308 101.933 214 102.12 214.756 102.275C215.375 102.397 215.892 102.535 216.307 102.69C216.722 102.836 217.055 102.999 217.308 103.178C217.56 103.357 217.739 103.557 217.845 103.776C217.951 103.988 218.003 104.228 218.003 104.497ZM239.256 90.2266V92.1919H243.418V106.047H239.256V108H249.998V106.047H245.738V92.1919H249.998V90.2266H239.256ZM254.271 108H256.529V98.5273C256.683 98.2425 256.862 97.9821 257.066 97.7461C257.278 97.5101 257.505 97.3026 257.75 97.1235C258.051 96.9201 258.38 96.7614 258.738 96.6475C259.096 96.5254 259.483 96.4644 259.898 96.4644C260.378 96.4644 260.801 96.5213 261.167 96.6353C261.542 96.7492 261.859 96.9323 262.12 97.1846C262.372 97.4368 262.563 97.7664 262.693 98.1733C262.824 98.5802 262.889 99.0767 262.889 99.6626V108H265.147V99.6138C265.147 98.7349 265.037 97.978 264.817 97.3433C264.606 96.7004 264.301 96.1714 263.902 95.7563C263.503 95.3413 263.019 95.0361 262.449 94.8408C261.888 94.6455 261.261 94.5479 260.569 94.5479C260.057 94.556 259.568 94.6333 259.104 94.7798C258.649 94.9181 258.226 95.1175 257.835 95.3779C257.575 95.5488 257.326 95.7523 257.09 95.9883C256.862 96.2161 256.651 96.4684 256.456 96.7451L256.297 94.792H254.271V108ZM274.632 91.5938H272.361V94.792H268.895V96.5376H272.361V103.715C272.361 104.529 272.467 105.225 272.679 105.803C272.898 106.372 273.195 106.836 273.57 107.194C273.944 107.561 274.384 107.829 274.888 108C275.401 108.163 275.95 108.244 276.536 108.244C276.886 108.244 277.236 108.228 277.586 108.195C277.944 108.163 278.282 108.114 278.599 108.049C278.917 107.992 279.209 107.923 279.478 107.841C279.747 107.752 279.974 107.65 280.162 107.536L279.844 105.937C279.706 105.97 279.527 106.01 279.307 106.059C279.096 106.1 278.868 106.14 278.624 106.181C278.371 106.222 278.115 106.258 277.854 106.291C277.594 106.315 277.342 106.328 277.098 106.328C276.764 106.328 276.447 106.287 276.146 106.206C275.853 106.124 275.592 105.982 275.364 105.778C275.136 105.583 274.957 105.319 274.827 104.985C274.697 104.651 274.632 104.228 274.632 103.715V96.5376H279.661V94.792H274.632V91.5938ZM290.135 108.244C291.421 108.244 292.499 107.988 293.37 107.475C294.249 106.954 294.908 106.36 295.347 105.693L293.968 104.619C293.553 105.156 293.032 105.587 292.405 105.913C291.779 106.238 291.062 106.401 290.257 106.401C289.646 106.401 289.089 106.287 288.584 106.059C288.08 105.831 287.649 105.518 287.291 105.119C286.941 104.745 286.664 104.313 286.46 103.825C286.265 103.337 286.139 102.771 286.082 102.128V102.043H295.518V101.03C295.518 100.11 295.4 99.2557 295.164 98.4663C294.936 97.6769 294.586 96.9893 294.114 96.4033C293.642 95.8255 293.048 95.3739 292.332 95.0483C291.624 94.7147 290.794 94.5479 289.842 94.5479C289.085 94.5479 288.344 94.7025 287.62 95.0117C286.904 95.321 286.265 95.7645 285.704 96.3423C285.134 96.9282 284.678 97.6444 284.336 98.4907C283.995 99.3289 283.824 100.281 283.824 101.347V101.86C283.824 102.779 283.978 103.63 284.288 104.411C284.597 105.192 285.028 105.868 285.582 106.438C286.135 107.007 286.798 107.451 287.571 107.768C288.353 108.085 289.207 108.244 290.135 108.244ZM289.842 96.4033C290.42 96.4033 290.916 96.5091 291.331 96.7207C291.754 96.9323 292.104 97.209 292.381 97.5508C292.658 97.8926 292.873 98.2995 293.028 98.7715C293.182 99.2354 293.26 99.6707 293.26 100.078V100.188H286.155C286.245 99.5771 286.399 99.04 286.619 98.5762C286.847 98.1042 287.124 97.7054 287.449 97.3799C287.775 97.0625 288.141 96.8224 288.548 96.6597C288.955 96.4888 289.386 96.4033 289.842 96.4033ZM299.668 89.25V91.2153H304.161V106.047H299.668V108H310.728V106.047H306.419V89.25H299.668ZM314.683 89.25V91.2153H319.175V106.047H314.683V108H325.743V106.047H321.434V89.25H314.683ZM329.698 94.792V96.7573H334.19V106.047H329.698V108H340.757V106.047H336.448V94.792H329.698ZM333.897 91.3252C333.897 91.6914 334.007 91.9966 334.227 92.2407C334.454 92.4849 334.796 92.6069 335.252 92.6069C335.7 92.6069 336.037 92.4849 336.265 92.2407C336.493 91.9966 336.607 91.6914 336.607 91.3252C336.607 91.1217 336.574 90.9346 336.509 90.7637C336.444 90.5928 336.347 90.4504 336.216 90.3364C336.111 90.2306 335.976 90.1493 335.813 90.0923C335.651 90.0272 335.464 89.9946 335.252 89.9946C335.04 89.9946 334.849 90.0272 334.678 90.0923C334.515 90.1493 334.381 90.2306 334.275 90.3364C334.145 90.4585 334.048 90.605 333.982 90.7759C333.925 90.9468 333.897 91.1299 333.897 91.3252ZM343.943 101.286V101.542C343.943 102.486 344.065 103.369 344.31 104.191C344.554 105.005 344.904 105.713 345.359 106.315C345.807 106.918 346.356 107.39 347.007 107.731C347.658 108.073 348.387 108.244 349.192 108.244C349.673 108.244 350.12 108.191 350.535 108.085C350.95 107.988 351.329 107.845 351.67 107.658C351.89 107.536 352.094 107.394 352.281 107.231C352.476 107.068 352.659 106.889 352.83 106.694V107.829C352.83 108.399 352.749 108.903 352.586 109.343C352.423 109.782 352.191 110.148 351.89 110.441C351.581 110.743 351.211 110.97 350.779 111.125C350.348 111.28 349.864 111.357 349.327 111.357C349.026 111.357 348.724 111.324 348.423 111.259C348.122 111.202 347.821 111.105 347.52 110.966C347.219 110.828 346.922 110.641 346.629 110.405C346.336 110.177 346.051 109.896 345.774 109.562L344.603 110.917C344.904 111.349 345.262 111.711 345.677 112.004C346.1 112.297 346.539 112.529 346.995 112.7C347.443 112.879 347.886 113.005 348.326 113.078C348.765 113.16 349.156 113.2 349.498 113.2C350.328 113.2 351.084 113.078 351.768 112.834C352.452 112.59 353.042 112.232 353.538 111.76C354.026 111.288 354.405 110.714 354.673 110.039C354.95 109.363 355.088 108.59 355.088 107.719V94.792H353.038L352.928 96.2324C352.773 96.0371 352.606 95.8581 352.427 95.6953C352.256 95.5326 352.073 95.3901 351.878 95.2681C351.52 95.0321 351.117 94.853 350.669 94.731C350.23 94.6089 349.746 94.5479 349.217 94.5479C348.395 94.5479 347.658 94.7147 347.007 95.0483C346.356 95.382 345.803 95.8459 345.347 96.4399C344.891 97.034 344.542 97.7461 344.297 98.5762C344.061 99.3981 343.943 100.301 343.943 101.286ZM346.202 101.542V101.286C346.202 100.643 346.267 100.033 346.397 99.4551C346.535 98.8691 346.751 98.3524 347.044 97.9048C347.329 97.4653 347.695 97.1154 348.143 96.855C348.598 96.5946 349.144 96.4644 349.778 96.4644C350.153 96.4644 350.494 96.5132 350.804 96.6108C351.113 96.7004 351.394 96.8265 351.646 96.9893C351.898 97.1602 352.122 97.3595 352.317 97.5874C352.513 97.8153 352.684 98.0675 352.83 98.3442V104.399C352.684 104.684 352.513 104.944 352.317 105.18C352.122 105.416 351.902 105.62 351.658 105.791C351.406 105.961 351.121 106.096 350.804 106.193C350.494 106.283 350.145 106.328 349.754 106.328C349.127 106.328 348.59 106.201 348.143 105.949C347.695 105.689 347.329 105.339 347.044 104.899C346.751 104.46 346.535 103.951 346.397 103.374C346.267 102.796 346.202 102.185 346.202 101.542ZM365.208 108.244C366.494 108.244 367.572 107.988 368.443 107.475C369.322 106.954 369.981 106.36 370.42 105.693L369.041 104.619C368.626 105.156 368.105 105.587 367.479 105.913C366.852 106.238 366.136 106.401 365.33 106.401C364.72 106.401 364.162 106.287 363.658 106.059C363.153 105.831 362.722 105.518 362.364 105.119C362.014 104.745 361.737 104.313 361.534 103.825C361.338 103.337 361.212 102.771 361.155 102.128V102.043H370.591V101.03C370.591 100.11 370.473 99.2557 370.237 98.4663C370.009 97.6769 369.66 96.9893 369.188 96.4033C368.715 95.8255 368.121 95.3739 367.405 95.0483C366.697 94.7147 365.867 94.5479 364.915 94.5479C364.158 94.5479 363.418 94.7025 362.693 95.0117C361.977 95.321 361.338 95.7645 360.777 96.3423C360.207 96.9282 359.751 97.6444 359.41 98.4907C359.068 99.3289 358.897 100.281 358.897 101.347V101.86C358.897 102.779 359.052 103.63 359.361 104.411C359.67 105.192 360.101 105.868 360.655 106.438C361.208 107.007 361.871 107.451 362.645 107.768C363.426 108.085 364.28 108.244 365.208 108.244ZM364.915 96.4033C365.493 96.4033 365.989 96.5091 366.404 96.7207C366.827 96.9323 367.177 97.209 367.454 97.5508C367.731 97.8926 367.946 98.2995 368.101 98.7715C368.256 99.2354 368.333 99.6707 368.333 100.078V100.188H361.229C361.318 99.5771 361.473 99.04 361.692 98.5762C361.92 98.1042 362.197 97.7054 362.522 97.3799C362.848 97.0625 363.214 96.8224 363.621 96.6597C364.028 96.4888 364.459 96.4033 364.915 96.4033ZM374.388 108H376.646V98.5273C376.801 98.2425 376.98 97.9821 377.183 97.7461C377.395 97.5101 377.623 97.3026 377.867 97.1235C378.168 96.9201 378.497 96.7614 378.855 96.6475C379.214 96.5254 379.6 96.4644 380.015 96.4644C380.495 96.4644 380.918 96.5213 381.285 96.6353C381.659 96.7492 381.976 96.9323 382.237 97.1846C382.489 97.4368 382.68 97.7664 382.811 98.1733C382.941 98.5802 383.006 99.0767 383.006 99.6626V108H385.264V99.6138C385.264 98.7349 385.154 97.978 384.935 97.3433C384.723 96.7004 384.418 96.1714 384.019 95.7563C383.62 95.3413 383.136 95.0361 382.566 94.8408C382.005 94.6455 381.378 94.5479 380.687 94.5479C380.174 94.556 379.686 94.6333 379.222 94.7798C378.766 94.9181 378.343 95.1175 377.952 95.3779C377.692 95.5488 377.444 95.7523 377.208 95.9883C376.98 96.2161 376.768 96.4684 376.573 96.7451L376.414 94.792H374.388V108ZM395.03 106.413C394.322 106.413 393.728 106.275 393.248 105.998C392.776 105.713 392.397 105.343 392.112 104.887C391.819 104.44 391.608 103.935 391.478 103.374C391.355 102.804 391.294 102.23 391.294 101.652V101.14C391.294 100.57 391.355 100.004 391.478 99.4429C391.608 98.8813 391.819 98.3727 392.112 97.917C392.405 97.4694 392.788 97.1073 393.26 96.8306C393.74 96.5457 394.33 96.4033 395.03 96.4033C395.486 96.4033 395.909 96.4806 396.299 96.6353C396.698 96.7899 397.04 97.0015 397.325 97.27C397.61 97.5386 397.833 97.8519 397.996 98.21C398.167 98.5599 398.257 98.9342 398.265 99.333H400.401C400.401 98.6657 400.267 98.0391 399.998 97.4531C399.729 96.8672 399.359 96.3586 398.887 95.9272C398.407 95.5041 397.837 95.1704 397.178 94.9263C396.527 94.674 395.811 94.5479 395.03 94.5479C394.029 94.5479 393.154 94.7269 392.405 95.085C391.657 95.443 391.034 95.9232 390.538 96.5254C390.033 97.1357 389.655 97.8397 389.402 98.6372C389.15 99.4347 389.024 100.269 389.024 101.14V101.652C389.024 102.531 389.15 103.369 389.402 104.167C389.655 104.956 390.033 105.652 390.538 106.254C391.034 106.865 391.657 107.349 392.405 107.707C393.154 108.065 394.029 108.244 395.03 108.244C395.73 108.244 396.401 108.126 397.044 107.89C397.687 107.646 398.257 107.32 398.753 106.914C399.249 106.515 399.644 106.051 399.937 105.522C400.238 104.985 400.393 104.423 400.401 103.837H398.265C398.257 104.204 398.159 104.545 397.972 104.863C397.793 105.172 397.553 105.441 397.251 105.668C396.95 105.904 396.604 106.088 396.214 106.218C395.831 106.348 395.437 106.413 395.03 106.413ZM410.252 108.244C411.538 108.244 412.616 107.988 413.487 107.475C414.366 106.954 415.025 106.36 415.464 105.693L414.085 104.619C413.67 105.156 413.149 105.587 412.522 105.913C411.896 106.238 411.18 106.401 410.374 106.401C409.764 106.401 409.206 106.287 408.702 106.059C408.197 105.831 407.766 105.518 407.408 105.119C407.058 104.745 406.781 104.313 406.578 103.825C406.382 103.337 406.256 102.771 406.199 102.128V102.043H415.635V101.03C415.635 100.11 415.517 99.2557 415.281 98.4663C415.053 97.6769 414.703 96.9893 414.231 96.4033C413.759 95.8255 413.165 95.3739 412.449 95.0483C411.741 94.7147 410.911 94.5479 409.959 94.5479C409.202 94.5479 408.462 94.7025 407.737 95.0117C407.021 95.321 406.382 95.7645 405.821 96.3423C405.251 96.9282 404.795 97.6444 404.454 98.4907C404.112 99.3289 403.941 100.281 403.941 101.347V101.86C403.941 102.779 404.096 103.63 404.405 104.411C404.714 105.192 405.145 105.868 405.699 106.438C406.252 107.007 406.915 107.451 407.688 107.768C408.47 108.085 409.324 108.244 410.252 108.244ZM409.959 96.4033C410.537 96.4033 411.033 96.5091 411.448 96.7207C411.871 96.9323 412.221 97.209 412.498 97.5508C412.775 97.8926 412.99 98.2995 413.145 98.7715C413.3 99.2354 413.377 99.6707 413.377 100.078V100.188H406.272C406.362 99.5771 406.517 99.04 406.736 98.5762C406.964 98.1042 407.241 97.7054 407.566 97.3799C407.892 97.0625 408.258 96.8224 408.665 96.6597C409.072 96.4888 409.503 96.4033 409.959 96.4033Z" fill="#F7D747"/>
<path d="M90.9531 186.727H93.9326C94.4893 186.721 95.0107 186.633 95.4971 186.463C95.9893 186.293 96.417 186.047 96.7803 185.725C97.1494 185.408 97.4395 185.021 97.6504 184.564C97.8613 184.102 97.9668 183.577 97.9668 182.991C97.9668 182.399 97.8613 181.872 97.6504 181.409C97.4395 180.946 97.1523 180.554 96.7891 180.231C96.4258 179.909 95.998 179.66 95.5059 179.484C95.0137 179.309 94.4893 179.215 93.9326 179.203H89.9072V192H90.9531V186.727ZM90.9531 185.83V180.108H93.9326C94.3545 180.114 94.7471 180.188 95.1104 180.328C95.4795 180.463 95.7988 180.656 96.0684 180.908C96.332 181.16 96.54 181.465 96.6924 181.822C96.8447 182.174 96.9209 182.569 96.9209 183.009C96.9209 183.448 96.8418 183.841 96.6836 184.187C96.5312 184.526 96.3203 184.816 96.0508 185.057C95.7812 185.303 95.4648 185.493 95.1016 185.628C94.7383 185.757 94.3486 185.824 93.9326 185.83H90.9531ZM99.9707 187.104V187.395C99.9707 188.039 100.067 188.651 100.261 189.231C100.454 189.812 100.735 190.318 101.104 190.752C101.462 191.191 101.904 191.54 102.432 191.798C102.959 192.05 103.557 192.176 104.225 192.176C104.887 192.176 105.479 192.047 106 191.789C106.521 191.531 106.964 191.186 107.327 190.752C107.69 190.312 107.966 189.806 108.153 189.231C108.347 188.651 108.446 188.039 108.452 187.395V187.104C108.446 186.46 108.347 185.848 108.153 185.268C107.96 184.688 107.685 184.178 107.327 183.738C106.958 183.305 106.51 182.959 105.982 182.701C105.461 182.443 104.869 182.314 104.207 182.314C103.539 182.314 102.944 182.443 102.423 182.701C101.901 182.959 101.459 183.308 101.096 183.747C100.732 184.181 100.454 184.688 100.261 185.268C100.067 185.848 99.9707 186.46 99.9707 187.104ZM101.017 187.395V187.104C101.017 186.606 101.087 186.123 101.228 185.654C101.368 185.186 101.573 184.772 101.843 184.415C102.112 184.052 102.443 183.762 102.836 183.545C103.229 183.328 103.686 183.22 104.207 183.22C104.723 183.22 105.177 183.328 105.569 183.545C105.968 183.762 106.305 184.052 106.58 184.415C106.844 184.772 107.046 185.186 107.187 185.654C107.327 186.123 107.4 186.606 107.406 187.104V187.395C107.4 187.898 107.327 188.385 107.187 188.854C107.052 189.316 106.853 189.729 106.589 190.093C106.313 190.456 105.979 190.746 105.587 190.963C105.194 191.174 104.74 191.279 104.225 191.279C103.703 191.279 103.243 191.174 102.845 190.963C102.446 190.746 102.112 190.456 101.843 190.093C101.573 189.735 101.368 189.322 101.228 188.854C101.087 188.385 101.017 187.898 101.017 187.395ZM112.275 192H113.128L114.789 185.514L115.079 184.02L115.352 185.514L117.03 192H117.883L119.992 182.49H119.025L117.725 188.906L117.417 190.585L117.057 188.906L115.448 182.49H114.71L113.102 188.906L112.75 190.523L112.469 188.906L111.142 182.49H110.175L112.275 192ZM126.188 192.176C126.979 192.176 127.674 192.021 128.271 191.71C128.869 191.399 129.347 190.992 129.704 190.488L129.045 189.987C128.705 190.409 128.298 190.731 127.823 190.954C127.349 191.177 126.818 191.285 126.232 191.279C125.723 191.279 125.257 191.18 124.835 190.98C124.419 190.775 124.064 190.503 123.771 190.163C123.473 189.829 123.241 189.445 123.077 189.012C122.913 188.578 122.819 188.109 122.796 187.605V187.315H129.915V186.674C129.909 186.07 129.821 185.505 129.651 184.978C129.481 184.444 129.229 183.979 128.896 183.58C128.562 183.188 128.151 182.88 127.665 182.657C127.179 182.429 126.622 182.314 125.995 182.314C125.397 182.314 124.841 182.44 124.325 182.692C123.81 182.938 123.364 183.275 122.989 183.703C122.603 184.137 122.298 184.649 122.075 185.241C121.858 185.827 121.75 186.457 121.75 187.131V187.509C121.75 188.147 121.858 188.751 122.075 189.319C122.292 189.882 122.597 190.377 122.989 190.805C123.376 191.227 123.842 191.561 124.387 191.807C124.932 192.053 125.532 192.176 126.188 192.176ZM125.995 183.22C126.446 183.22 126.848 183.308 127.199 183.483C127.551 183.653 127.85 183.882 128.096 184.169C128.336 184.456 128.523 184.79 128.658 185.171C128.799 185.552 128.869 185.936 128.869 186.322V186.419H122.84C122.904 185.962 123.024 185.537 123.2 185.145C123.376 184.752 123.599 184.412 123.868 184.125C124.138 183.844 124.451 183.624 124.809 183.466C125.166 183.302 125.562 183.22 125.995 183.22ZM139.231 182.314C138.37 182.309 137.62 182.49 136.981 182.859C136.343 183.223 135.839 183.729 135.47 184.38V183.958L135.408 182.49H134.406V192H135.487L135.479 185.918C135.596 185.479 135.763 185.101 135.979 184.784C136.202 184.462 136.463 184.195 136.762 183.984C137.072 183.768 137.421 183.609 137.808 183.51C138.2 183.404 138.619 183.352 139.064 183.352C139.322 183.352 139.574 183.366 139.82 183.396C140.066 183.425 140.31 183.466 140.55 183.519L140.69 182.499C140.509 182.44 140.283 182.396 140.014 182.367C139.75 182.332 139.489 182.314 139.231 182.314ZM154.577 192H158.603C159.13 191.988 159.634 191.9 160.114 191.736C160.601 191.572 161.028 191.335 161.397 191.024C161.761 190.72 162.051 190.348 162.268 189.908C162.484 189.469 162.59 188.965 162.584 188.396C162.584 188.004 162.52 187.641 162.391 187.307C162.262 186.973 162.086 186.671 161.863 186.401C161.646 186.149 161.38 185.93 161.063 185.742C160.753 185.549 160.422 185.411 160.07 185.329V185.294C160.387 185.165 160.665 185.021 160.905 184.863C161.151 184.705 161.368 184.512 161.556 184.283C161.737 184.061 161.878 183.806 161.978 183.519C162.083 183.226 162.136 182.9 162.136 182.543C162.142 181.963 162.03 181.465 161.802 181.049C161.573 180.627 161.269 180.281 160.888 180.012C160.507 179.742 160.07 179.543 159.578 179.414C159.086 179.279 158.582 179.209 158.066 179.203H154.577V192ZM155.623 185.848H158.708C159.083 185.859 159.44 185.924 159.78 186.041C160.12 186.158 160.422 186.322 160.686 186.533C160.943 186.756 161.148 187.025 161.301 187.342C161.453 187.652 161.529 188.01 161.529 188.414C161.529 188.824 161.45 189.193 161.292 189.521C161.14 189.85 160.929 190.125 160.659 190.348C160.396 190.576 160.088 190.755 159.736 190.884C159.385 191.007 159.013 191.071 158.62 191.077H155.623V185.848ZM155.623 184.934V180.135H158.093C158.468 180.141 158.834 180.19 159.191 180.284C159.555 180.372 159.877 180.51 160.158 180.697C160.439 180.891 160.662 181.137 160.826 181.436C160.996 181.734 161.081 182.098 161.081 182.525C161.081 182.936 160.999 183.29 160.835 183.589C160.677 183.882 160.463 184.128 160.193 184.327C159.924 184.526 159.616 184.676 159.271 184.775C158.925 184.875 158.567 184.928 158.198 184.934H155.623ZM168.446 191.244C168.446 191.484 168.525 191.689 168.684 191.859C168.842 192.023 169.059 192.105 169.334 192.105C169.609 192.105 169.829 192.023 169.993 191.859C170.157 191.695 170.239 191.49 170.239 191.244C170.239 190.998 170.157 190.79 169.993 190.62C169.829 190.444 169.609 190.356 169.334 190.356C169.059 190.356 168.842 190.444 168.684 190.62C168.525 190.79 168.446 190.998 168.446 191.244ZM176.181 179.203V180.152H179.292V191.06H176.181V192H183.59V191.06H180.382V180.152H183.59V179.203H176.181ZM204.701 186.727V185.821H198.188V186.727H204.701ZM226.428 188.854C226.428 189.27 226.34 189.63 226.164 189.935C225.988 190.233 225.757 190.479 225.47 190.673C225.188 190.872 224.866 191.019 224.503 191.112C224.14 191.206 223.771 191.253 223.396 191.253C222.944 191.253 222.522 191.194 222.13 191.077C221.743 190.954 221.4 190.772 221.102 190.532C220.797 190.292 220.548 189.999 220.354 189.653C220.167 189.302 220.047 188.897 219.994 188.44H218.931C218.954 188.985 219.074 189.478 219.291 189.917C219.508 190.356 219.804 190.734 220.179 191.051C220.595 191.42 221.084 191.701 221.646 191.895C222.215 192.082 222.798 192.176 223.396 192.176C223.899 192.176 224.397 192.108 224.89 191.974C225.382 191.833 225.821 191.622 226.208 191.341C226.595 191.065 226.908 190.72 227.148 190.304C227.395 189.888 227.518 189.398 227.518 188.836C227.518 188.273 227.397 187.784 227.157 187.368C226.923 186.946 226.618 186.589 226.243 186.296C225.851 185.997 225.417 185.748 224.942 185.549C224.474 185.344 224.008 185.171 223.545 185.03C223.205 184.925 222.848 184.805 222.473 184.67C222.098 184.529 221.758 184.356 221.453 184.151C221.143 183.946 220.888 183.697 220.688 183.404C220.489 183.105 220.39 182.742 220.39 182.314C220.39 181.916 220.475 181.57 220.645 181.277C220.82 180.984 221.049 180.738 221.33 180.539C221.605 180.346 221.919 180.202 222.271 180.108C222.622 180.009 222.977 179.959 223.334 179.959C223.762 179.959 224.151 180.026 224.503 180.161C224.86 180.296 225.168 180.486 225.426 180.732C225.689 180.979 225.9 181.274 226.059 181.62C226.217 181.96 226.319 182.338 226.366 182.754H227.43C227.412 182.191 227.292 181.682 227.069 181.225C226.847 180.762 226.548 180.369 226.173 180.047C225.804 179.725 225.373 179.476 224.881 179.3C224.395 179.118 223.879 179.027 223.334 179.027C222.848 179.027 222.364 179.101 221.884 179.247C221.403 179.388 220.973 179.596 220.592 179.871C220.211 180.152 219.9 180.501 219.66 180.917C219.426 181.327 219.309 181.799 219.309 182.332C219.314 182.912 219.443 183.401 219.695 183.8C219.947 184.198 220.272 184.541 220.671 184.828C221.034 185.092 221.441 185.317 221.893 185.505C222.344 185.692 222.783 185.854 223.211 185.988C223.568 186.1 223.938 186.229 224.318 186.375C224.699 186.521 225.048 186.7 225.364 186.911C225.675 187.128 225.93 187.395 226.129 187.711C226.334 188.021 226.434 188.402 226.428 188.854ZM238.442 186.366V184.846C238.437 184.395 238.393 183.938 238.311 183.475C238.234 183.006 238.12 182.555 237.968 182.121C237.804 181.693 237.602 181.292 237.361 180.917C237.121 180.536 236.837 180.205 236.509 179.924C236.175 179.648 235.794 179.432 235.366 179.273C234.944 179.109 234.476 179.027 233.96 179.027C233.438 179.027 232.964 179.109 232.536 179.273C232.114 179.432 231.739 179.648 231.411 179.924C231.077 180.211 230.79 180.542 230.55 180.917C230.31 181.292 230.11 181.696 229.952 182.13C229.794 182.558 229.677 183.006 229.601 183.475C229.524 183.938 229.483 184.395 229.478 184.846V186.366C229.483 186.823 229.524 187.283 229.601 187.746C229.677 188.203 229.797 188.648 229.961 189.082C230.119 189.51 230.318 189.914 230.559 190.295C230.805 190.67 231.095 190.995 231.429 191.271C231.757 191.552 232.132 191.774 232.554 191.938C232.976 192.097 233.447 192.176 233.969 192.176C234.209 192.176 234.438 192.155 234.654 192.114C234.871 192.079 235.079 192.029 235.278 191.965L237.695 194.241L238.416 193.556L236.228 191.481C236.608 191.218 236.937 190.896 237.212 190.515C237.487 190.128 237.716 189.706 237.897 189.249C238.079 188.798 238.214 188.326 238.302 187.834C238.39 187.342 238.437 186.853 238.442 186.366ZM237.405 184.828V186.366C237.399 186.724 237.37 187.093 237.317 187.474C237.271 187.849 237.191 188.218 237.08 188.581C236.969 188.938 236.825 189.278 236.649 189.601C236.474 189.923 236.26 190.201 236.008 190.436C235.75 190.682 235.454 190.875 235.12 191.016C234.786 191.156 234.402 191.227 233.969 191.227C233.541 191.227 233.157 191.156 232.817 191.016C232.483 190.875 232.19 190.682 231.938 190.436C231.687 190.195 231.47 189.917 231.288 189.601C231.112 189.278 230.969 188.936 230.857 188.572C230.74 188.215 230.655 187.849 230.603 187.474C230.55 187.093 230.521 186.724 230.515 186.366V184.828C230.521 184.471 230.55 184.104 230.603 183.729C230.655 183.354 230.74 182.985 230.857 182.622C230.969 182.265 231.112 181.928 231.288 181.611C231.464 181.289 231.681 181.008 231.938 180.768C232.19 180.527 232.48 180.337 232.809 180.196C233.143 180.056 233.526 179.985 233.96 179.985C234.388 179.985 234.769 180.056 235.103 180.196C235.442 180.337 235.738 180.524 235.99 180.759C236.242 181.005 236.456 181.289 236.632 181.611C236.813 181.928 236.963 182.262 237.08 182.613C237.186 182.977 237.265 183.349 237.317 183.729C237.37 184.104 237.399 184.471 237.405 184.828ZM242.336 191.077V179.203H241.281V192H248.849V191.077H242.336ZM269.564 186.727V185.821H263.052V186.727H269.564ZM291.045 185.865V184.942H285.402V180.135H291.871V179.203H284.356V192H291.906V191.077H285.402V185.865H291.045ZM303.411 180.135V179.203H294.227V180.135H298.313L298.305 192H299.333V180.135H303.411ZM307.199 191.077V179.203H306.145V192H313.712V191.077H307.199ZM334.428 186.727V185.821H327.915V186.727H334.428ZM356.866 179.203H355.855L355.838 187.878C355.826 188.312 355.753 188.733 355.618 189.144C355.489 189.548 355.299 189.905 355.047 190.216C354.795 190.532 354.484 190.784 354.115 190.972C353.752 191.159 353.333 191.253 352.858 191.253C352.384 191.253 351.962 191.159 351.593 190.972C351.224 190.784 350.913 190.532 350.661 190.216C350.409 189.905 350.216 189.548 350.081 189.144C349.946 188.739 349.876 188.317 349.87 187.878L349.844 179.203H348.851L348.842 187.878C348.848 188.458 348.944 189.009 349.132 189.53C349.325 190.052 349.595 190.506 349.94 190.893C350.286 191.291 350.705 191.604 351.197 191.833C351.689 192.062 352.243 192.176 352.858 192.176C353.468 192.176 354.016 192.062 354.502 191.833C354.994 191.599 355.416 191.285 355.768 190.893C356.119 190.5 356.392 190.046 356.585 189.53C356.778 189.009 356.875 188.458 356.875 187.878L356.866 179.203ZM359.96 179.203V180.152H363.071V191.06H359.96V192H367.369V191.06H364.161V180.152H367.369V179.203H359.96ZM372.511 193.099L377.854 179.203H376.87L371.526 193.099H372.511ZM389.298 179.203H388.287L388.27 187.878C388.258 188.312 388.185 188.733 388.05 189.144C387.921 189.548 387.73 189.905 387.479 190.216C387.227 190.532 386.916 190.784 386.547 190.972C386.184 191.159 385.765 191.253 385.29 191.253C384.815 191.253 384.394 191.159 384.024 190.972C383.655 190.784 383.345 190.532 383.093 190.216C382.841 189.905 382.647 189.548 382.513 189.144C382.378 188.739 382.308 188.317 382.302 187.878L382.275 179.203H381.282L381.273 187.878C381.279 188.458 381.376 189.009 381.563 189.53C381.757 190.052 382.026 190.506 382.372 190.893C382.718 191.291 383.137 191.604 383.629 191.833C384.121 192.062 384.675 192.176 385.29 192.176C385.899 192.176 386.447 192.062 386.934 191.833C387.426 191.599 387.848 191.285 388.199 190.893C388.551 190.5 388.823 190.046 389.017 189.53C389.21 189.009 389.307 188.458 389.307 187.878L389.298 179.203ZM396.224 184.661L392.998 179.203H391.768L395.626 185.505L391.645 192H392.875L396.241 186.357L399.607 192H400.829L396.848 185.505L400.706 179.203H399.467L396.224 184.661ZM406.278 191.244C406.278 191.484 406.357 191.689 406.516 191.859C406.674 192.023 406.891 192.105 407.166 192.105C407.441 192.105 407.661 192.023 407.825 191.859C407.989 191.695 408.071 191.49 408.071 191.244C408.071 190.998 407.989 190.79 407.825 190.62C407.661 190.444 407.441 190.356 407.166 190.356C406.891 190.356 406.674 190.444 406.516 190.62C406.357 190.79 406.278 190.998 406.278 191.244ZM417.089 191.244C417.089 191.484 417.168 191.689 417.326 191.859C417.484 192.023 417.701 192.105 417.977 192.105C418.252 192.105 418.472 192.023 418.636 191.859C418.8 191.695 418.882 191.49 418.882 191.244C418.882 190.998 418.8 190.79 418.636 190.62C418.472 190.444 418.252 190.356 417.977 190.356C417.701 190.356 417.484 190.444 417.326 190.62C417.168 190.79 417.089 190.998 417.089 191.244ZM427.899 191.244C427.899 191.484 427.979 191.689 428.137 191.859C428.295 192.023 428.512 192.105 428.787 192.105C429.062 192.105 429.282 192.023 429.446 191.859C429.61 191.695 429.692 191.49 429.692 191.244C429.692 190.998 429.61 190.79 429.446 190.62C429.282 190.444 429.062 190.356 428.787 190.356C428.512 190.356 428.295 190.444 428.137 190.62C427.979 190.79 427.899 190.998 427.899 191.244Z" fill="#F7D747"/>
</svg>
